%TF.GenerationSoftware,KiCad,Pcbnew,10.0.0*%
%TF.CreationDate,2026-04-28T07:58:37-06:00*%
%TF.ProjectId,2026_PhilsLab_PCBDesign,32303236-5f50-4686-996c-734c61625f50,rev?*%
%TF.SameCoordinates,Original*%
%TF.FileFunction,Legend,Top*%
%TF.FilePolarity,Positive*%
%FSLAX46Y46*%
G04 Gerber Fmt 4.6, Leading zero omitted, Abs format (unit mm)*
G04 Created by KiCad (PCBNEW 10.0.0) date 2026-04-28 07:58:37*
%MOMM*%
%LPD*%
G01*
G04 APERTURE LIST*
%ADD10C,0.100000*%
%ADD11C,0.150000*%
%ADD12C,0.000000*%
%ADD13C,0.120000*%
G04 APERTURE END LIST*
D10*
X73803884Y-82872419D02*
X73803884Y-83681942D01*
X73803884Y-83681942D02*
X73851503Y-83777180D01*
X73851503Y-83777180D02*
X73899122Y-83824800D01*
X73899122Y-83824800D02*
X73994360Y-83872419D01*
X73994360Y-83872419D02*
X74184836Y-83872419D01*
X74184836Y-83872419D02*
X74280074Y-83824800D01*
X74280074Y-83824800D02*
X74327693Y-83777180D01*
X74327693Y-83777180D02*
X74375312Y-83681942D01*
X74375312Y-83681942D02*
X74375312Y-82872419D01*
X74803884Y-83824800D02*
X74946741Y-83872419D01*
X74946741Y-83872419D02*
X75184836Y-83872419D01*
X75184836Y-83872419D02*
X75280074Y-83824800D01*
X75280074Y-83824800D02*
X75327693Y-83777180D01*
X75327693Y-83777180D02*
X75375312Y-83681942D01*
X75375312Y-83681942D02*
X75375312Y-83586704D01*
X75375312Y-83586704D02*
X75327693Y-83491466D01*
X75327693Y-83491466D02*
X75280074Y-83443847D01*
X75280074Y-83443847D02*
X75184836Y-83396228D01*
X75184836Y-83396228D02*
X74994360Y-83348609D01*
X74994360Y-83348609D02*
X74899122Y-83300990D01*
X74899122Y-83300990D02*
X74851503Y-83253371D01*
X74851503Y-83253371D02*
X74803884Y-83158133D01*
X74803884Y-83158133D02*
X74803884Y-83062895D01*
X74803884Y-83062895D02*
X74851503Y-82967657D01*
X74851503Y-82967657D02*
X74899122Y-82920038D01*
X74899122Y-82920038D02*
X74994360Y-82872419D01*
X74994360Y-82872419D02*
X75232455Y-82872419D01*
X75232455Y-82872419D02*
X75375312Y-82920038D01*
X76137217Y-83348609D02*
X76280074Y-83396228D01*
X76280074Y-83396228D02*
X76327693Y-83443847D01*
X76327693Y-83443847D02*
X76375312Y-83539085D01*
X76375312Y-83539085D02*
X76375312Y-83681942D01*
X76375312Y-83681942D02*
X76327693Y-83777180D01*
X76327693Y-83777180D02*
X76280074Y-83824800D01*
X76280074Y-83824800D02*
X76184836Y-83872419D01*
X76184836Y-83872419D02*
X75803884Y-83872419D01*
X75803884Y-83872419D02*
X75803884Y-82872419D01*
X75803884Y-82872419D02*
X76137217Y-82872419D01*
X76137217Y-82872419D02*
X76232455Y-82920038D01*
X76232455Y-82920038D02*
X76280074Y-82967657D01*
X76280074Y-82967657D02*
X76327693Y-83062895D01*
X76327693Y-83062895D02*
X76327693Y-83158133D01*
X76327693Y-83158133D02*
X76280074Y-83253371D01*
X76280074Y-83253371D02*
X76232455Y-83300990D01*
X76232455Y-83300990D02*
X76137217Y-83348609D01*
X76137217Y-83348609D02*
X75803884Y-83348609D01*
X36848609Y-94362782D02*
X36896228Y-94219925D01*
X36896228Y-94219925D02*
X36943847Y-94172306D01*
X36943847Y-94172306D02*
X37039085Y-94124687D01*
X37039085Y-94124687D02*
X37181942Y-94124687D01*
X37181942Y-94124687D02*
X37277180Y-94172306D01*
X37277180Y-94172306D02*
X37324800Y-94219925D01*
X37324800Y-94219925D02*
X37372419Y-94315163D01*
X37372419Y-94315163D02*
X37372419Y-94696115D01*
X37372419Y-94696115D02*
X36372419Y-94696115D01*
X36372419Y-94696115D02*
X36372419Y-94362782D01*
X36372419Y-94362782D02*
X36420038Y-94267544D01*
X36420038Y-94267544D02*
X36467657Y-94219925D01*
X36467657Y-94219925D02*
X36562895Y-94172306D01*
X36562895Y-94172306D02*
X36658133Y-94172306D01*
X36658133Y-94172306D02*
X36753371Y-94219925D01*
X36753371Y-94219925D02*
X36800990Y-94267544D01*
X36800990Y-94267544D02*
X36848609Y-94362782D01*
X36848609Y-94362782D02*
X36848609Y-94696115D01*
X36372419Y-93505639D02*
X36372419Y-93315163D01*
X36372419Y-93315163D02*
X36420038Y-93219925D01*
X36420038Y-93219925D02*
X36515276Y-93124687D01*
X36515276Y-93124687D02*
X36705752Y-93077068D01*
X36705752Y-93077068D02*
X37039085Y-93077068D01*
X37039085Y-93077068D02*
X37229561Y-93124687D01*
X37229561Y-93124687D02*
X37324800Y-93219925D01*
X37324800Y-93219925D02*
X37372419Y-93315163D01*
X37372419Y-93315163D02*
X37372419Y-93505639D01*
X37372419Y-93505639D02*
X37324800Y-93600877D01*
X37324800Y-93600877D02*
X37229561Y-93696115D01*
X37229561Y-93696115D02*
X37039085Y-93743734D01*
X37039085Y-93743734D02*
X36705752Y-93743734D01*
X36705752Y-93743734D02*
X36515276Y-93696115D01*
X36515276Y-93696115D02*
X36420038Y-93600877D01*
X36420038Y-93600877D02*
X36372419Y-93505639D01*
X36372419Y-92458020D02*
X36372419Y-92267544D01*
X36372419Y-92267544D02*
X36420038Y-92172306D01*
X36420038Y-92172306D02*
X36515276Y-92077068D01*
X36515276Y-92077068D02*
X36705752Y-92029449D01*
X36705752Y-92029449D02*
X37039085Y-92029449D01*
X37039085Y-92029449D02*
X37229561Y-92077068D01*
X37229561Y-92077068D02*
X37324800Y-92172306D01*
X37324800Y-92172306D02*
X37372419Y-92267544D01*
X37372419Y-92267544D02*
X37372419Y-92458020D01*
X37372419Y-92458020D02*
X37324800Y-92553258D01*
X37324800Y-92553258D02*
X37229561Y-92648496D01*
X37229561Y-92648496D02*
X37039085Y-92696115D01*
X37039085Y-92696115D02*
X36705752Y-92696115D01*
X36705752Y-92696115D02*
X36515276Y-92648496D01*
X36515276Y-92648496D02*
X36420038Y-92553258D01*
X36420038Y-92553258D02*
X36372419Y-92458020D01*
X36372419Y-91743734D02*
X36372419Y-91172306D01*
X37372419Y-91458020D02*
X36372419Y-91458020D01*
X53303884Y-81372419D02*
X53303884Y-82181942D01*
X53303884Y-82181942D02*
X53351503Y-82277180D01*
X53351503Y-82277180D02*
X53399122Y-82324800D01*
X53399122Y-82324800D02*
X53494360Y-82372419D01*
X53494360Y-82372419D02*
X53684836Y-82372419D01*
X53684836Y-82372419D02*
X53780074Y-82324800D01*
X53780074Y-82324800D02*
X53827693Y-82277180D01*
X53827693Y-82277180D02*
X53875312Y-82181942D01*
X53875312Y-82181942D02*
X53875312Y-81372419D01*
X54303884Y-82086704D02*
X54780074Y-82086704D01*
X54208646Y-82372419D02*
X54541979Y-81372419D01*
X54541979Y-81372419D02*
X54875312Y-82372419D01*
X55780074Y-82372419D02*
X55446741Y-81896228D01*
X55208646Y-82372419D02*
X55208646Y-81372419D01*
X55208646Y-81372419D02*
X55589598Y-81372419D01*
X55589598Y-81372419D02*
X55684836Y-81420038D01*
X55684836Y-81420038D02*
X55732455Y-81467657D01*
X55732455Y-81467657D02*
X55780074Y-81562895D01*
X55780074Y-81562895D02*
X55780074Y-81705752D01*
X55780074Y-81705752D02*
X55732455Y-81800990D01*
X55732455Y-81800990D02*
X55684836Y-81848609D01*
X55684836Y-81848609D02*
X55589598Y-81896228D01*
X55589598Y-81896228D02*
X55208646Y-81896228D01*
X56065789Y-81372419D02*
X56637217Y-81372419D01*
X56351503Y-82372419D02*
X56351503Y-81372419D01*
X63756265Y-82324800D02*
X63899122Y-82372419D01*
X63899122Y-82372419D02*
X64137217Y-82372419D01*
X64137217Y-82372419D02*
X64232455Y-82324800D01*
X64232455Y-82324800D02*
X64280074Y-82277180D01*
X64280074Y-82277180D02*
X64327693Y-82181942D01*
X64327693Y-82181942D02*
X64327693Y-82086704D01*
X64327693Y-82086704D02*
X64280074Y-81991466D01*
X64280074Y-81991466D02*
X64232455Y-81943847D01*
X64232455Y-81943847D02*
X64137217Y-81896228D01*
X64137217Y-81896228D02*
X63946741Y-81848609D01*
X63946741Y-81848609D02*
X63851503Y-81800990D01*
X63851503Y-81800990D02*
X63803884Y-81753371D01*
X63803884Y-81753371D02*
X63756265Y-81658133D01*
X63756265Y-81658133D02*
X63756265Y-81562895D01*
X63756265Y-81562895D02*
X63803884Y-81467657D01*
X63803884Y-81467657D02*
X63851503Y-81420038D01*
X63851503Y-81420038D02*
X63946741Y-81372419D01*
X63946741Y-81372419D02*
X64184836Y-81372419D01*
X64184836Y-81372419D02*
X64327693Y-81420038D01*
X64661027Y-81372419D02*
X64899122Y-82372419D01*
X64899122Y-82372419D02*
X65089598Y-81658133D01*
X65089598Y-81658133D02*
X65280074Y-82372419D01*
X65280074Y-82372419D02*
X65518170Y-81372419D01*
X65899122Y-82372419D02*
X65899122Y-81372419D01*
X65899122Y-81372419D02*
X66137217Y-81372419D01*
X66137217Y-81372419D02*
X66280074Y-81420038D01*
X66280074Y-81420038D02*
X66375312Y-81515276D01*
X66375312Y-81515276D02*
X66422931Y-81610514D01*
X66422931Y-81610514D02*
X66470550Y-81800990D01*
X66470550Y-81800990D02*
X66470550Y-81943847D01*
X66470550Y-81943847D02*
X66422931Y-82134323D01*
X66422931Y-82134323D02*
X66375312Y-82229561D01*
X66375312Y-82229561D02*
X66280074Y-82324800D01*
X66280074Y-82324800D02*
X66137217Y-82372419D01*
X66137217Y-82372419D02*
X65899122Y-82372419D01*
D11*
X47333333Y-94359580D02*
X47285714Y-94407200D01*
X47285714Y-94407200D02*
X47142857Y-94454819D01*
X47142857Y-94454819D02*
X47047619Y-94454819D01*
X47047619Y-94454819D02*
X46904762Y-94407200D01*
X46904762Y-94407200D02*
X46809524Y-94311961D01*
X46809524Y-94311961D02*
X46761905Y-94216723D01*
X46761905Y-94216723D02*
X46714286Y-94026247D01*
X46714286Y-94026247D02*
X46714286Y-93883390D01*
X46714286Y-93883390D02*
X46761905Y-93692914D01*
X46761905Y-93692914D02*
X46809524Y-93597676D01*
X46809524Y-93597676D02*
X46904762Y-93502438D01*
X46904762Y-93502438D02*
X47047619Y-93454819D01*
X47047619Y-93454819D02*
X47142857Y-93454819D01*
X47142857Y-93454819D02*
X47285714Y-93502438D01*
X47285714Y-93502438D02*
X47333333Y-93550057D01*
X48190476Y-93454819D02*
X48000000Y-93454819D01*
X48000000Y-93454819D02*
X47904762Y-93502438D01*
X47904762Y-93502438D02*
X47857143Y-93550057D01*
X47857143Y-93550057D02*
X47761905Y-93692914D01*
X47761905Y-93692914D02*
X47714286Y-93883390D01*
X47714286Y-93883390D02*
X47714286Y-94264342D01*
X47714286Y-94264342D02*
X47761905Y-94359580D01*
X47761905Y-94359580D02*
X47809524Y-94407200D01*
X47809524Y-94407200D02*
X47904762Y-94454819D01*
X47904762Y-94454819D02*
X48095238Y-94454819D01*
X48095238Y-94454819D02*
X48190476Y-94407200D01*
X48190476Y-94407200D02*
X48238095Y-94359580D01*
X48238095Y-94359580D02*
X48285714Y-94264342D01*
X48285714Y-94264342D02*
X48285714Y-94026247D01*
X48285714Y-94026247D02*
X48238095Y-93931009D01*
X48238095Y-93931009D02*
X48190476Y-93883390D01*
X48190476Y-93883390D02*
X48095238Y-93835771D01*
X48095238Y-93835771D02*
X47904762Y-93835771D01*
X47904762Y-93835771D02*
X47809524Y-93883390D01*
X47809524Y-93883390D02*
X47761905Y-93931009D01*
X47761905Y-93931009D02*
X47714286Y-94026247D01*
X72833333Y-95454819D02*
X72500000Y-94978628D01*
X72261905Y-95454819D02*
X72261905Y-94454819D01*
X72261905Y-94454819D02*
X72642857Y-94454819D01*
X72642857Y-94454819D02*
X72738095Y-94502438D01*
X72738095Y-94502438D02*
X72785714Y-94550057D01*
X72785714Y-94550057D02*
X72833333Y-94645295D01*
X72833333Y-94645295D02*
X72833333Y-94788152D01*
X72833333Y-94788152D02*
X72785714Y-94883390D01*
X72785714Y-94883390D02*
X72738095Y-94931009D01*
X72738095Y-94931009D02*
X72642857Y-94978628D01*
X72642857Y-94978628D02*
X72261905Y-94978628D01*
X73166667Y-94454819D02*
X73785714Y-94454819D01*
X73785714Y-94454819D02*
X73452381Y-94835771D01*
X73452381Y-94835771D02*
X73595238Y-94835771D01*
X73595238Y-94835771D02*
X73690476Y-94883390D01*
X73690476Y-94883390D02*
X73738095Y-94931009D01*
X73738095Y-94931009D02*
X73785714Y-95026247D01*
X73785714Y-95026247D02*
X73785714Y-95264342D01*
X73785714Y-95264342D02*
X73738095Y-95359580D01*
X73738095Y-95359580D02*
X73690476Y-95407200D01*
X73690476Y-95407200D02*
X73595238Y-95454819D01*
X73595238Y-95454819D02*
X73309524Y-95454819D01*
X73309524Y-95454819D02*
X73214286Y-95407200D01*
X73214286Y-95407200D02*
X73166667Y-95359580D01*
X61333333Y-87859580D02*
X61285714Y-87907200D01*
X61285714Y-87907200D02*
X61142857Y-87954819D01*
X61142857Y-87954819D02*
X61047619Y-87954819D01*
X61047619Y-87954819D02*
X60904762Y-87907200D01*
X60904762Y-87907200D02*
X60809524Y-87811961D01*
X60809524Y-87811961D02*
X60761905Y-87716723D01*
X60761905Y-87716723D02*
X60714286Y-87526247D01*
X60714286Y-87526247D02*
X60714286Y-87383390D01*
X60714286Y-87383390D02*
X60761905Y-87192914D01*
X60761905Y-87192914D02*
X60809524Y-87097676D01*
X60809524Y-87097676D02*
X60904762Y-87002438D01*
X60904762Y-87002438D02*
X61047619Y-86954819D01*
X61047619Y-86954819D02*
X61142857Y-86954819D01*
X61142857Y-86954819D02*
X61285714Y-87002438D01*
X61285714Y-87002438D02*
X61333333Y-87050057D01*
X62285714Y-87954819D02*
X61714286Y-87954819D01*
X62000000Y-87954819D02*
X62000000Y-86954819D01*
X62000000Y-86954819D02*
X61904762Y-87097676D01*
X61904762Y-87097676D02*
X61809524Y-87192914D01*
X61809524Y-87192914D02*
X61714286Y-87240533D01*
X42407200Y-84833332D02*
X42454819Y-84690475D01*
X42454819Y-84690475D02*
X42454819Y-84452380D01*
X42454819Y-84452380D02*
X42407200Y-84357142D01*
X42407200Y-84357142D02*
X42359580Y-84309523D01*
X42359580Y-84309523D02*
X42264342Y-84261904D01*
X42264342Y-84261904D02*
X42169104Y-84261904D01*
X42169104Y-84261904D02*
X42073866Y-84309523D01*
X42073866Y-84309523D02*
X42026247Y-84357142D01*
X42026247Y-84357142D02*
X41978628Y-84452380D01*
X41978628Y-84452380D02*
X41931009Y-84642856D01*
X41931009Y-84642856D02*
X41883390Y-84738094D01*
X41883390Y-84738094D02*
X41835771Y-84785713D01*
X41835771Y-84785713D02*
X41740533Y-84833332D01*
X41740533Y-84833332D02*
X41645295Y-84833332D01*
X41645295Y-84833332D02*
X41550057Y-84785713D01*
X41550057Y-84785713D02*
X41502438Y-84738094D01*
X41502438Y-84738094D02*
X41454819Y-84642856D01*
X41454819Y-84642856D02*
X41454819Y-84404761D01*
X41454819Y-84404761D02*
X41502438Y-84261904D01*
X41454819Y-83928570D02*
X42454819Y-83690475D01*
X42454819Y-83690475D02*
X41740533Y-83499999D01*
X41740533Y-83499999D02*
X42454819Y-83309523D01*
X42454819Y-83309523D02*
X41454819Y-83071428D01*
X42454819Y-82166666D02*
X42454819Y-82738094D01*
X42454819Y-82452380D02*
X41454819Y-82452380D01*
X41454819Y-82452380D02*
X41597676Y-82547618D01*
X41597676Y-82547618D02*
X41692914Y-82642856D01*
X41692914Y-82642856D02*
X41740533Y-82738094D01*
X69357142Y-98009580D02*
X69309523Y-98057200D01*
X69309523Y-98057200D02*
X69166666Y-98104819D01*
X69166666Y-98104819D02*
X69071428Y-98104819D01*
X69071428Y-98104819D02*
X68928571Y-98057200D01*
X68928571Y-98057200D02*
X68833333Y-97961961D01*
X68833333Y-97961961D02*
X68785714Y-97866723D01*
X68785714Y-97866723D02*
X68738095Y-97676247D01*
X68738095Y-97676247D02*
X68738095Y-97533390D01*
X68738095Y-97533390D02*
X68785714Y-97342914D01*
X68785714Y-97342914D02*
X68833333Y-97247676D01*
X68833333Y-97247676D02*
X68928571Y-97152438D01*
X68928571Y-97152438D02*
X69071428Y-97104819D01*
X69071428Y-97104819D02*
X69166666Y-97104819D01*
X69166666Y-97104819D02*
X69309523Y-97152438D01*
X69309523Y-97152438D02*
X69357142Y-97200057D01*
X70309523Y-98104819D02*
X69738095Y-98104819D01*
X70023809Y-98104819D02*
X70023809Y-97104819D01*
X70023809Y-97104819D02*
X69928571Y-97247676D01*
X69928571Y-97247676D02*
X69833333Y-97342914D01*
X69833333Y-97342914D02*
X69738095Y-97390533D01*
X70642857Y-97104819D02*
X71261904Y-97104819D01*
X71261904Y-97104819D02*
X70928571Y-97485771D01*
X70928571Y-97485771D02*
X71071428Y-97485771D01*
X71071428Y-97485771D02*
X71166666Y-97533390D01*
X71166666Y-97533390D02*
X71214285Y-97581009D01*
X71214285Y-97581009D02*
X71261904Y-97676247D01*
X71261904Y-97676247D02*
X71261904Y-97914342D01*
X71261904Y-97914342D02*
X71214285Y-98009580D01*
X71214285Y-98009580D02*
X71166666Y-98057200D01*
X71166666Y-98057200D02*
X71071428Y-98104819D01*
X71071428Y-98104819D02*
X70785714Y-98104819D01*
X70785714Y-98104819D02*
X70690476Y-98057200D01*
X70690476Y-98057200D02*
X70642857Y-98009580D01*
X67357142Y-95509580D02*
X67309523Y-95557200D01*
X67309523Y-95557200D02*
X67166666Y-95604819D01*
X67166666Y-95604819D02*
X67071428Y-95604819D01*
X67071428Y-95604819D02*
X66928571Y-95557200D01*
X66928571Y-95557200D02*
X66833333Y-95461961D01*
X66833333Y-95461961D02*
X66785714Y-95366723D01*
X66785714Y-95366723D02*
X66738095Y-95176247D01*
X66738095Y-95176247D02*
X66738095Y-95033390D01*
X66738095Y-95033390D02*
X66785714Y-94842914D01*
X66785714Y-94842914D02*
X66833333Y-94747676D01*
X66833333Y-94747676D02*
X66928571Y-94652438D01*
X66928571Y-94652438D02*
X67071428Y-94604819D01*
X67071428Y-94604819D02*
X67166666Y-94604819D01*
X67166666Y-94604819D02*
X67309523Y-94652438D01*
X67309523Y-94652438D02*
X67357142Y-94700057D01*
X68309523Y-95604819D02*
X67738095Y-95604819D01*
X68023809Y-95604819D02*
X68023809Y-94604819D01*
X68023809Y-94604819D02*
X67928571Y-94747676D01*
X67928571Y-94747676D02*
X67833333Y-94842914D01*
X67833333Y-94842914D02*
X67738095Y-94890533D01*
X68690476Y-94700057D02*
X68738095Y-94652438D01*
X68738095Y-94652438D02*
X68833333Y-94604819D01*
X68833333Y-94604819D02*
X69071428Y-94604819D01*
X69071428Y-94604819D02*
X69166666Y-94652438D01*
X69166666Y-94652438D02*
X69214285Y-94700057D01*
X69214285Y-94700057D02*
X69261904Y-94795295D01*
X69261904Y-94795295D02*
X69261904Y-94890533D01*
X69261904Y-94890533D02*
X69214285Y-95033390D01*
X69214285Y-95033390D02*
X68642857Y-95604819D01*
X68642857Y-95604819D02*
X69261904Y-95604819D01*
X43857142Y-98859580D02*
X43809523Y-98907200D01*
X43809523Y-98907200D02*
X43666666Y-98954819D01*
X43666666Y-98954819D02*
X43571428Y-98954819D01*
X43571428Y-98954819D02*
X43428571Y-98907200D01*
X43428571Y-98907200D02*
X43333333Y-98811961D01*
X43333333Y-98811961D02*
X43285714Y-98716723D01*
X43285714Y-98716723D02*
X43238095Y-98526247D01*
X43238095Y-98526247D02*
X43238095Y-98383390D01*
X43238095Y-98383390D02*
X43285714Y-98192914D01*
X43285714Y-98192914D02*
X43333333Y-98097676D01*
X43333333Y-98097676D02*
X43428571Y-98002438D01*
X43428571Y-98002438D02*
X43571428Y-97954819D01*
X43571428Y-97954819D02*
X43666666Y-97954819D01*
X43666666Y-97954819D02*
X43809523Y-98002438D01*
X43809523Y-98002438D02*
X43857142Y-98050057D01*
X44809523Y-98954819D02*
X44238095Y-98954819D01*
X44523809Y-98954819D02*
X44523809Y-97954819D01*
X44523809Y-97954819D02*
X44428571Y-98097676D01*
X44428571Y-98097676D02*
X44333333Y-98192914D01*
X44333333Y-98192914D02*
X44238095Y-98240533D01*
X45761904Y-98954819D02*
X45190476Y-98954819D01*
X45476190Y-98954819D02*
X45476190Y-97954819D01*
X45476190Y-97954819D02*
X45380952Y-98097676D01*
X45380952Y-98097676D02*
X45285714Y-98192914D01*
X45285714Y-98192914D02*
X45190476Y-98240533D01*
X43857142Y-88859580D02*
X43809523Y-88907200D01*
X43809523Y-88907200D02*
X43666666Y-88954819D01*
X43666666Y-88954819D02*
X43571428Y-88954819D01*
X43571428Y-88954819D02*
X43428571Y-88907200D01*
X43428571Y-88907200D02*
X43333333Y-88811961D01*
X43333333Y-88811961D02*
X43285714Y-88716723D01*
X43285714Y-88716723D02*
X43238095Y-88526247D01*
X43238095Y-88526247D02*
X43238095Y-88383390D01*
X43238095Y-88383390D02*
X43285714Y-88192914D01*
X43285714Y-88192914D02*
X43333333Y-88097676D01*
X43333333Y-88097676D02*
X43428571Y-88002438D01*
X43428571Y-88002438D02*
X43571428Y-87954819D01*
X43571428Y-87954819D02*
X43666666Y-87954819D01*
X43666666Y-87954819D02*
X43809523Y-88002438D01*
X43809523Y-88002438D02*
X43857142Y-88050057D01*
X44809523Y-88954819D02*
X44238095Y-88954819D01*
X44523809Y-88954819D02*
X44523809Y-87954819D01*
X44523809Y-87954819D02*
X44428571Y-88097676D01*
X44428571Y-88097676D02*
X44333333Y-88192914D01*
X44333333Y-88192914D02*
X44238095Y-88240533D01*
X45428571Y-87954819D02*
X45523809Y-87954819D01*
X45523809Y-87954819D02*
X45619047Y-88002438D01*
X45619047Y-88002438D02*
X45666666Y-88050057D01*
X45666666Y-88050057D02*
X45714285Y-88145295D01*
X45714285Y-88145295D02*
X45761904Y-88335771D01*
X45761904Y-88335771D02*
X45761904Y-88573866D01*
X45761904Y-88573866D02*
X45714285Y-88764342D01*
X45714285Y-88764342D02*
X45666666Y-88859580D01*
X45666666Y-88859580D02*
X45619047Y-88907200D01*
X45619047Y-88907200D02*
X45523809Y-88954819D01*
X45523809Y-88954819D02*
X45428571Y-88954819D01*
X45428571Y-88954819D02*
X45333333Y-88907200D01*
X45333333Y-88907200D02*
X45285714Y-88859580D01*
X45285714Y-88859580D02*
X45238095Y-88764342D01*
X45238095Y-88764342D02*
X45190476Y-88573866D01*
X45190476Y-88573866D02*
X45190476Y-88335771D01*
X45190476Y-88335771D02*
X45238095Y-88145295D01*
X45238095Y-88145295D02*
X45285714Y-88050057D01*
X45285714Y-88050057D02*
X45333333Y-88002438D01*
X45333333Y-88002438D02*
X45428571Y-87954819D01*
X49333333Y-101359580D02*
X49285714Y-101407200D01*
X49285714Y-101407200D02*
X49142857Y-101454819D01*
X49142857Y-101454819D02*
X49047619Y-101454819D01*
X49047619Y-101454819D02*
X48904762Y-101407200D01*
X48904762Y-101407200D02*
X48809524Y-101311961D01*
X48809524Y-101311961D02*
X48761905Y-101216723D01*
X48761905Y-101216723D02*
X48714286Y-101026247D01*
X48714286Y-101026247D02*
X48714286Y-100883390D01*
X48714286Y-100883390D02*
X48761905Y-100692914D01*
X48761905Y-100692914D02*
X48809524Y-100597676D01*
X48809524Y-100597676D02*
X48904762Y-100502438D01*
X48904762Y-100502438D02*
X49047619Y-100454819D01*
X49047619Y-100454819D02*
X49142857Y-100454819D01*
X49142857Y-100454819D02*
X49285714Y-100502438D01*
X49285714Y-100502438D02*
X49333333Y-100550057D01*
X49809524Y-101454819D02*
X50000000Y-101454819D01*
X50000000Y-101454819D02*
X50095238Y-101407200D01*
X50095238Y-101407200D02*
X50142857Y-101359580D01*
X50142857Y-101359580D02*
X50238095Y-101216723D01*
X50238095Y-101216723D02*
X50285714Y-101026247D01*
X50285714Y-101026247D02*
X50285714Y-100645295D01*
X50285714Y-100645295D02*
X50238095Y-100550057D01*
X50238095Y-100550057D02*
X50190476Y-100502438D01*
X50190476Y-100502438D02*
X50095238Y-100454819D01*
X50095238Y-100454819D02*
X49904762Y-100454819D01*
X49904762Y-100454819D02*
X49809524Y-100502438D01*
X49809524Y-100502438D02*
X49761905Y-100550057D01*
X49761905Y-100550057D02*
X49714286Y-100645295D01*
X49714286Y-100645295D02*
X49714286Y-100883390D01*
X49714286Y-100883390D02*
X49761905Y-100978628D01*
X49761905Y-100978628D02*
X49809524Y-101026247D01*
X49809524Y-101026247D02*
X49904762Y-101073866D01*
X49904762Y-101073866D02*
X50095238Y-101073866D01*
X50095238Y-101073866D02*
X50190476Y-101026247D01*
X50190476Y-101026247D02*
X50238095Y-100978628D01*
X50238095Y-100978628D02*
X50285714Y-100883390D01*
X40833333Y-103359580D02*
X40785714Y-103407200D01*
X40785714Y-103407200D02*
X40642857Y-103454819D01*
X40642857Y-103454819D02*
X40547619Y-103454819D01*
X40547619Y-103454819D02*
X40404762Y-103407200D01*
X40404762Y-103407200D02*
X40309524Y-103311961D01*
X40309524Y-103311961D02*
X40261905Y-103216723D01*
X40261905Y-103216723D02*
X40214286Y-103026247D01*
X40214286Y-103026247D02*
X40214286Y-102883390D01*
X40214286Y-102883390D02*
X40261905Y-102692914D01*
X40261905Y-102692914D02*
X40309524Y-102597676D01*
X40309524Y-102597676D02*
X40404762Y-102502438D01*
X40404762Y-102502438D02*
X40547619Y-102454819D01*
X40547619Y-102454819D02*
X40642857Y-102454819D01*
X40642857Y-102454819D02*
X40785714Y-102502438D01*
X40785714Y-102502438D02*
X40833333Y-102550057D01*
X41404762Y-102883390D02*
X41309524Y-102835771D01*
X41309524Y-102835771D02*
X41261905Y-102788152D01*
X41261905Y-102788152D02*
X41214286Y-102692914D01*
X41214286Y-102692914D02*
X41214286Y-102645295D01*
X41214286Y-102645295D02*
X41261905Y-102550057D01*
X41261905Y-102550057D02*
X41309524Y-102502438D01*
X41309524Y-102502438D02*
X41404762Y-102454819D01*
X41404762Y-102454819D02*
X41595238Y-102454819D01*
X41595238Y-102454819D02*
X41690476Y-102502438D01*
X41690476Y-102502438D02*
X41738095Y-102550057D01*
X41738095Y-102550057D02*
X41785714Y-102645295D01*
X41785714Y-102645295D02*
X41785714Y-102692914D01*
X41785714Y-102692914D02*
X41738095Y-102788152D01*
X41738095Y-102788152D02*
X41690476Y-102835771D01*
X41690476Y-102835771D02*
X41595238Y-102883390D01*
X41595238Y-102883390D02*
X41404762Y-102883390D01*
X41404762Y-102883390D02*
X41309524Y-102931009D01*
X41309524Y-102931009D02*
X41261905Y-102978628D01*
X41261905Y-102978628D02*
X41214286Y-103073866D01*
X41214286Y-103073866D02*
X41214286Y-103264342D01*
X41214286Y-103264342D02*
X41261905Y-103359580D01*
X41261905Y-103359580D02*
X41309524Y-103407200D01*
X41309524Y-103407200D02*
X41404762Y-103454819D01*
X41404762Y-103454819D02*
X41595238Y-103454819D01*
X41595238Y-103454819D02*
X41690476Y-103407200D01*
X41690476Y-103407200D02*
X41738095Y-103359580D01*
X41738095Y-103359580D02*
X41785714Y-103264342D01*
X41785714Y-103264342D02*
X41785714Y-103073866D01*
X41785714Y-103073866D02*
X41738095Y-102978628D01*
X41738095Y-102978628D02*
X41690476Y-102931009D01*
X41690476Y-102931009D02*
X41595238Y-102883390D01*
X40833333Y-100859580D02*
X40785714Y-100907200D01*
X40785714Y-100907200D02*
X40642857Y-100954819D01*
X40642857Y-100954819D02*
X40547619Y-100954819D01*
X40547619Y-100954819D02*
X40404762Y-100907200D01*
X40404762Y-100907200D02*
X40309524Y-100811961D01*
X40309524Y-100811961D02*
X40261905Y-100716723D01*
X40261905Y-100716723D02*
X40214286Y-100526247D01*
X40214286Y-100526247D02*
X40214286Y-100383390D01*
X40214286Y-100383390D02*
X40261905Y-100192914D01*
X40261905Y-100192914D02*
X40309524Y-100097676D01*
X40309524Y-100097676D02*
X40404762Y-100002438D01*
X40404762Y-100002438D02*
X40547619Y-99954819D01*
X40547619Y-99954819D02*
X40642857Y-99954819D01*
X40642857Y-99954819D02*
X40785714Y-100002438D01*
X40785714Y-100002438D02*
X40833333Y-100050057D01*
X41166667Y-99954819D02*
X41833333Y-99954819D01*
X41833333Y-99954819D02*
X41404762Y-100954819D01*
X51333333Y-85179580D02*
X51285714Y-85227200D01*
X51285714Y-85227200D02*
X51142857Y-85274819D01*
X51142857Y-85274819D02*
X51047619Y-85274819D01*
X51047619Y-85274819D02*
X50904762Y-85227200D01*
X50904762Y-85227200D02*
X50809524Y-85131961D01*
X50809524Y-85131961D02*
X50761905Y-85036723D01*
X50761905Y-85036723D02*
X50714286Y-84846247D01*
X50714286Y-84846247D02*
X50714286Y-84703390D01*
X50714286Y-84703390D02*
X50761905Y-84512914D01*
X50761905Y-84512914D02*
X50809524Y-84417676D01*
X50809524Y-84417676D02*
X50904762Y-84322438D01*
X50904762Y-84322438D02*
X51047619Y-84274819D01*
X51047619Y-84274819D02*
X51142857Y-84274819D01*
X51142857Y-84274819D02*
X51285714Y-84322438D01*
X51285714Y-84322438D02*
X51333333Y-84370057D01*
X52238095Y-84274819D02*
X51761905Y-84274819D01*
X51761905Y-84274819D02*
X51714286Y-84751009D01*
X51714286Y-84751009D02*
X51761905Y-84703390D01*
X51761905Y-84703390D02*
X51857143Y-84655771D01*
X51857143Y-84655771D02*
X52095238Y-84655771D01*
X52095238Y-84655771D02*
X52190476Y-84703390D01*
X52190476Y-84703390D02*
X52238095Y-84751009D01*
X52238095Y-84751009D02*
X52285714Y-84846247D01*
X52285714Y-84846247D02*
X52285714Y-85084342D01*
X52285714Y-85084342D02*
X52238095Y-85179580D01*
X52238095Y-85179580D02*
X52190476Y-85227200D01*
X52190476Y-85227200D02*
X52095238Y-85274819D01*
X52095238Y-85274819D02*
X51857143Y-85274819D01*
X51857143Y-85274819D02*
X51761905Y-85227200D01*
X51761905Y-85227200D02*
X51714286Y-85179580D01*
X49333333Y-89359580D02*
X49285714Y-89407200D01*
X49285714Y-89407200D02*
X49142857Y-89454819D01*
X49142857Y-89454819D02*
X49047619Y-89454819D01*
X49047619Y-89454819D02*
X48904762Y-89407200D01*
X48904762Y-89407200D02*
X48809524Y-89311961D01*
X48809524Y-89311961D02*
X48761905Y-89216723D01*
X48761905Y-89216723D02*
X48714286Y-89026247D01*
X48714286Y-89026247D02*
X48714286Y-88883390D01*
X48714286Y-88883390D02*
X48761905Y-88692914D01*
X48761905Y-88692914D02*
X48809524Y-88597676D01*
X48809524Y-88597676D02*
X48904762Y-88502438D01*
X48904762Y-88502438D02*
X49047619Y-88454819D01*
X49047619Y-88454819D02*
X49142857Y-88454819D01*
X49142857Y-88454819D02*
X49285714Y-88502438D01*
X49285714Y-88502438D02*
X49333333Y-88550057D01*
X50190476Y-88788152D02*
X50190476Y-89454819D01*
X49952381Y-88407200D02*
X49714286Y-89121485D01*
X49714286Y-89121485D02*
X50333333Y-89121485D01*
X45333333Y-84359580D02*
X45285714Y-84407200D01*
X45285714Y-84407200D02*
X45142857Y-84454819D01*
X45142857Y-84454819D02*
X45047619Y-84454819D01*
X45047619Y-84454819D02*
X44904762Y-84407200D01*
X44904762Y-84407200D02*
X44809524Y-84311961D01*
X44809524Y-84311961D02*
X44761905Y-84216723D01*
X44761905Y-84216723D02*
X44714286Y-84026247D01*
X44714286Y-84026247D02*
X44714286Y-83883390D01*
X44714286Y-83883390D02*
X44761905Y-83692914D01*
X44761905Y-83692914D02*
X44809524Y-83597676D01*
X44809524Y-83597676D02*
X44904762Y-83502438D01*
X44904762Y-83502438D02*
X45047619Y-83454819D01*
X45047619Y-83454819D02*
X45142857Y-83454819D01*
X45142857Y-83454819D02*
X45285714Y-83502438D01*
X45285714Y-83502438D02*
X45333333Y-83550057D01*
X45666667Y-83454819D02*
X46285714Y-83454819D01*
X46285714Y-83454819D02*
X45952381Y-83835771D01*
X45952381Y-83835771D02*
X46095238Y-83835771D01*
X46095238Y-83835771D02*
X46190476Y-83883390D01*
X46190476Y-83883390D02*
X46238095Y-83931009D01*
X46238095Y-83931009D02*
X46285714Y-84026247D01*
X46285714Y-84026247D02*
X46285714Y-84264342D01*
X46285714Y-84264342D02*
X46238095Y-84359580D01*
X46238095Y-84359580D02*
X46190476Y-84407200D01*
X46190476Y-84407200D02*
X46095238Y-84454819D01*
X46095238Y-84454819D02*
X45809524Y-84454819D01*
X45809524Y-84454819D02*
X45714286Y-84407200D01*
X45714286Y-84407200D02*
X45666667Y-84359580D01*
X57333333Y-102859580D02*
X57285714Y-102907200D01*
X57285714Y-102907200D02*
X57142857Y-102954819D01*
X57142857Y-102954819D02*
X57047619Y-102954819D01*
X57047619Y-102954819D02*
X56904762Y-102907200D01*
X56904762Y-102907200D02*
X56809524Y-102811961D01*
X56809524Y-102811961D02*
X56761905Y-102716723D01*
X56761905Y-102716723D02*
X56714286Y-102526247D01*
X56714286Y-102526247D02*
X56714286Y-102383390D01*
X56714286Y-102383390D02*
X56761905Y-102192914D01*
X56761905Y-102192914D02*
X56809524Y-102097676D01*
X56809524Y-102097676D02*
X56904762Y-102002438D01*
X56904762Y-102002438D02*
X57047619Y-101954819D01*
X57047619Y-101954819D02*
X57142857Y-101954819D01*
X57142857Y-101954819D02*
X57285714Y-102002438D01*
X57285714Y-102002438D02*
X57333333Y-102050057D01*
X57714286Y-102050057D02*
X57761905Y-102002438D01*
X57761905Y-102002438D02*
X57857143Y-101954819D01*
X57857143Y-101954819D02*
X58095238Y-101954819D01*
X58095238Y-101954819D02*
X58190476Y-102002438D01*
X58190476Y-102002438D02*
X58238095Y-102050057D01*
X58238095Y-102050057D02*
X58285714Y-102145295D01*
X58285714Y-102145295D02*
X58285714Y-102240533D01*
X58285714Y-102240533D02*
X58238095Y-102383390D01*
X58238095Y-102383390D02*
X57666667Y-102954819D01*
X57666667Y-102954819D02*
X58285714Y-102954819D01*
X63738095Y-100604819D02*
X63738095Y-101414342D01*
X63738095Y-101414342D02*
X63785714Y-101509580D01*
X63785714Y-101509580D02*
X63833333Y-101557200D01*
X63833333Y-101557200D02*
X63928571Y-101604819D01*
X63928571Y-101604819D02*
X64119047Y-101604819D01*
X64119047Y-101604819D02*
X64214285Y-101557200D01*
X64214285Y-101557200D02*
X64261904Y-101509580D01*
X64261904Y-101509580D02*
X64309523Y-101414342D01*
X64309523Y-101414342D02*
X64309523Y-100604819D01*
X64738095Y-100700057D02*
X64785714Y-100652438D01*
X64785714Y-100652438D02*
X64880952Y-100604819D01*
X64880952Y-100604819D02*
X65119047Y-100604819D01*
X65119047Y-100604819D02*
X65214285Y-100652438D01*
X65214285Y-100652438D02*
X65261904Y-100700057D01*
X65261904Y-100700057D02*
X65309523Y-100795295D01*
X65309523Y-100795295D02*
X65309523Y-100890533D01*
X65309523Y-100890533D02*
X65261904Y-101033390D01*
X65261904Y-101033390D02*
X64690476Y-101604819D01*
X64690476Y-101604819D02*
X65309523Y-101604819D01*
X53738095Y-92954819D02*
X53738095Y-93764342D01*
X53738095Y-93764342D02*
X53785714Y-93859580D01*
X53785714Y-93859580D02*
X53833333Y-93907200D01*
X53833333Y-93907200D02*
X53928571Y-93954819D01*
X53928571Y-93954819D02*
X54119047Y-93954819D01*
X54119047Y-93954819D02*
X54214285Y-93907200D01*
X54214285Y-93907200D02*
X54261904Y-93859580D01*
X54261904Y-93859580D02*
X54309523Y-93764342D01*
X54309523Y-93764342D02*
X54309523Y-92954819D01*
X55309523Y-93954819D02*
X54738095Y-93954819D01*
X55023809Y-93954819D02*
X55023809Y-92954819D01*
X55023809Y-92954819D02*
X54928571Y-93097676D01*
X54928571Y-93097676D02*
X54833333Y-93192914D01*
X54833333Y-93192914D02*
X54738095Y-93240533D01*
X55333333Y-106454819D02*
X55000000Y-105978628D01*
X54761905Y-106454819D02*
X54761905Y-105454819D01*
X54761905Y-105454819D02*
X55142857Y-105454819D01*
X55142857Y-105454819D02*
X55238095Y-105502438D01*
X55238095Y-105502438D02*
X55285714Y-105550057D01*
X55285714Y-105550057D02*
X55333333Y-105645295D01*
X55333333Y-105645295D02*
X55333333Y-105788152D01*
X55333333Y-105788152D02*
X55285714Y-105883390D01*
X55285714Y-105883390D02*
X55238095Y-105931009D01*
X55238095Y-105931009D02*
X55142857Y-105978628D01*
X55142857Y-105978628D02*
X54761905Y-105978628D01*
X56238095Y-105454819D02*
X55761905Y-105454819D01*
X55761905Y-105454819D02*
X55714286Y-105931009D01*
X55714286Y-105931009D02*
X55761905Y-105883390D01*
X55761905Y-105883390D02*
X55857143Y-105835771D01*
X55857143Y-105835771D02*
X56095238Y-105835771D01*
X56095238Y-105835771D02*
X56190476Y-105883390D01*
X56190476Y-105883390D02*
X56238095Y-105931009D01*
X56238095Y-105931009D02*
X56285714Y-106026247D01*
X56285714Y-106026247D02*
X56285714Y-106264342D01*
X56285714Y-106264342D02*
X56238095Y-106359580D01*
X56238095Y-106359580D02*
X56190476Y-106407200D01*
X56190476Y-106407200D02*
X56095238Y-106454819D01*
X56095238Y-106454819D02*
X55857143Y-106454819D01*
X55857143Y-106454819D02*
X55761905Y-106407200D01*
X55761905Y-106407200D02*
X55714286Y-106359580D01*
X48333333Y-106454819D02*
X48000000Y-105978628D01*
X47761905Y-106454819D02*
X47761905Y-105454819D01*
X47761905Y-105454819D02*
X48142857Y-105454819D01*
X48142857Y-105454819D02*
X48238095Y-105502438D01*
X48238095Y-105502438D02*
X48285714Y-105550057D01*
X48285714Y-105550057D02*
X48333333Y-105645295D01*
X48333333Y-105645295D02*
X48333333Y-105788152D01*
X48333333Y-105788152D02*
X48285714Y-105883390D01*
X48285714Y-105883390D02*
X48238095Y-105931009D01*
X48238095Y-105931009D02*
X48142857Y-105978628D01*
X48142857Y-105978628D02*
X47761905Y-105978628D01*
X49190476Y-105788152D02*
X49190476Y-106454819D01*
X48952381Y-105407200D02*
X48714286Y-106121485D01*
X48714286Y-106121485D02*
X49333333Y-106121485D01*
X64833333Y-89954819D02*
X64500000Y-89478628D01*
X64261905Y-89954819D02*
X64261905Y-88954819D01*
X64261905Y-88954819D02*
X64642857Y-88954819D01*
X64642857Y-88954819D02*
X64738095Y-89002438D01*
X64738095Y-89002438D02*
X64785714Y-89050057D01*
X64785714Y-89050057D02*
X64833333Y-89145295D01*
X64833333Y-89145295D02*
X64833333Y-89288152D01*
X64833333Y-89288152D02*
X64785714Y-89383390D01*
X64785714Y-89383390D02*
X64738095Y-89431009D01*
X64738095Y-89431009D02*
X64642857Y-89478628D01*
X64642857Y-89478628D02*
X64261905Y-89478628D01*
X65214286Y-89050057D02*
X65261905Y-89002438D01*
X65261905Y-89002438D02*
X65357143Y-88954819D01*
X65357143Y-88954819D02*
X65595238Y-88954819D01*
X65595238Y-88954819D02*
X65690476Y-89002438D01*
X65690476Y-89002438D02*
X65738095Y-89050057D01*
X65738095Y-89050057D02*
X65785714Y-89145295D01*
X65785714Y-89145295D02*
X65785714Y-89240533D01*
X65785714Y-89240533D02*
X65738095Y-89383390D01*
X65738095Y-89383390D02*
X65166667Y-89954819D01*
X65166667Y-89954819D02*
X65785714Y-89954819D01*
X43333333Y-86954819D02*
X43000000Y-86478628D01*
X42761905Y-86954819D02*
X42761905Y-85954819D01*
X42761905Y-85954819D02*
X43142857Y-85954819D01*
X43142857Y-85954819D02*
X43238095Y-86002438D01*
X43238095Y-86002438D02*
X43285714Y-86050057D01*
X43285714Y-86050057D02*
X43333333Y-86145295D01*
X43333333Y-86145295D02*
X43333333Y-86288152D01*
X43333333Y-86288152D02*
X43285714Y-86383390D01*
X43285714Y-86383390D02*
X43238095Y-86431009D01*
X43238095Y-86431009D02*
X43142857Y-86478628D01*
X43142857Y-86478628D02*
X42761905Y-86478628D01*
X44285714Y-86954819D02*
X43714286Y-86954819D01*
X44000000Y-86954819D02*
X44000000Y-85954819D01*
X44000000Y-85954819D02*
X43904762Y-86097676D01*
X43904762Y-86097676D02*
X43809524Y-86192914D01*
X43809524Y-86192914D02*
X43714286Y-86240533D01*
X74421666Y-88454819D02*
X74421666Y-89169104D01*
X74421666Y-89169104D02*
X74374047Y-89311961D01*
X74374047Y-89311961D02*
X74278809Y-89407200D01*
X74278809Y-89407200D02*
X74135952Y-89454819D01*
X74135952Y-89454819D02*
X74040714Y-89454819D01*
X75421666Y-89454819D02*
X74850238Y-89454819D01*
X75135952Y-89454819D02*
X75135952Y-88454819D01*
X75135952Y-88454819D02*
X75040714Y-88597676D01*
X75040714Y-88597676D02*
X74945476Y-88692914D01*
X74945476Y-88692914D02*
X74850238Y-88740533D01*
X46666666Y-99431009D02*
X46333333Y-99431009D01*
X46333333Y-99954819D02*
X46333333Y-98954819D01*
X46333333Y-98954819D02*
X46809523Y-98954819D01*
X47523809Y-99431009D02*
X47666666Y-99478628D01*
X47666666Y-99478628D02*
X47714285Y-99526247D01*
X47714285Y-99526247D02*
X47761904Y-99621485D01*
X47761904Y-99621485D02*
X47761904Y-99764342D01*
X47761904Y-99764342D02*
X47714285Y-99859580D01*
X47714285Y-99859580D02*
X47666666Y-99907200D01*
X47666666Y-99907200D02*
X47571428Y-99954819D01*
X47571428Y-99954819D02*
X47190476Y-99954819D01*
X47190476Y-99954819D02*
X47190476Y-98954819D01*
X47190476Y-98954819D02*
X47523809Y-98954819D01*
X47523809Y-98954819D02*
X47619047Y-99002438D01*
X47619047Y-99002438D02*
X47666666Y-99050057D01*
X47666666Y-99050057D02*
X47714285Y-99145295D01*
X47714285Y-99145295D02*
X47714285Y-99240533D01*
X47714285Y-99240533D02*
X47666666Y-99335771D01*
X47666666Y-99335771D02*
X47619047Y-99383390D01*
X47619047Y-99383390D02*
X47523809Y-99431009D01*
X47523809Y-99431009D02*
X47190476Y-99431009D01*
X48714285Y-99954819D02*
X48142857Y-99954819D01*
X48428571Y-99954819D02*
X48428571Y-98954819D01*
X48428571Y-98954819D02*
X48333333Y-99097676D01*
X48333333Y-99097676D02*
X48238095Y-99192914D01*
X48238095Y-99192914D02*
X48142857Y-99240533D01*
X72261905Y-103304819D02*
X72261905Y-102304819D01*
X72261905Y-102304819D02*
X72500000Y-102304819D01*
X72500000Y-102304819D02*
X72642857Y-102352438D01*
X72642857Y-102352438D02*
X72738095Y-102447676D01*
X72738095Y-102447676D02*
X72785714Y-102542914D01*
X72785714Y-102542914D02*
X72833333Y-102733390D01*
X72833333Y-102733390D02*
X72833333Y-102876247D01*
X72833333Y-102876247D02*
X72785714Y-103066723D01*
X72785714Y-103066723D02*
X72738095Y-103161961D01*
X72738095Y-103161961D02*
X72642857Y-103257200D01*
X72642857Y-103257200D02*
X72500000Y-103304819D01*
X72500000Y-103304819D02*
X72261905Y-103304819D01*
X73785714Y-103304819D02*
X73214286Y-103304819D01*
X73500000Y-103304819D02*
X73500000Y-102304819D01*
X73500000Y-102304819D02*
X73404762Y-102447676D01*
X73404762Y-102447676D02*
X73309524Y-102542914D01*
X73309524Y-102542914D02*
X73214286Y-102590533D01*
X41023809Y-96978628D02*
X41023809Y-97454819D01*
X40690476Y-96454819D02*
X41023809Y-96978628D01*
X41023809Y-96978628D02*
X41357142Y-96454819D01*
X42214285Y-97454819D02*
X41642857Y-97454819D01*
X41928571Y-97454819D02*
X41928571Y-96454819D01*
X41928571Y-96454819D02*
X41833333Y-96597676D01*
X41833333Y-96597676D02*
X41738095Y-96692914D01*
X41738095Y-96692914D02*
X41642857Y-96740533D01*
D12*
%TO.C,G\u002A\u002A\u002A*%
G36*
X62643140Y-108729587D02*
G01*
X62633640Y-108790537D01*
X62609967Y-108820099D01*
X62600443Y-108830038D01*
X62592695Y-108854784D01*
X62586475Y-108898813D01*
X62581539Y-108966598D01*
X62577640Y-109062616D01*
X62574533Y-109191339D01*
X62571972Y-109357244D01*
X62569850Y-109550394D01*
X62567814Y-109750913D01*
X62565745Y-109911017D01*
X62563239Y-110036139D01*
X62559893Y-110131713D01*
X62555302Y-110203171D01*
X62549062Y-110255945D01*
X62540771Y-110295469D01*
X62530024Y-110327174D01*
X62516417Y-110356495D01*
X62508855Y-110371119D01*
X62404881Y-110524218D01*
X62270488Y-110643405D01*
X62196119Y-110688373D01*
X62081498Y-110749368D01*
X61313537Y-110754494D01*
X61104182Y-110755752D01*
X60935338Y-110756272D01*
X60801672Y-110755803D01*
X60697851Y-110754098D01*
X60618541Y-110750907D01*
X60558408Y-110745981D01*
X60512118Y-110739071D01*
X60474337Y-110729929D01*
X60439733Y-110718304D01*
X60425964Y-110713050D01*
X60358513Y-110678823D01*
X60282829Y-110628446D01*
X60209043Y-110570343D01*
X60147281Y-110512938D01*
X60107675Y-110464655D01*
X60098556Y-110440747D01*
X60121455Y-110432508D01*
X60190124Y-110426012D01*
X60304513Y-110421263D01*
X60464577Y-110418261D01*
X60670269Y-110417008D01*
X60720580Y-110416967D01*
X60951052Y-110415878D01*
X61136840Y-110412580D01*
X61279057Y-110407032D01*
X61378818Y-110399188D01*
X61436961Y-110389089D01*
X61524826Y-110346117D01*
X61617519Y-110273750D01*
X61702150Y-110184879D01*
X61765828Y-110092395D01*
X61789991Y-110036059D01*
X61800211Y-109976945D01*
X61808067Y-109876176D01*
X61813602Y-109732705D01*
X61816855Y-109545486D01*
X61817870Y-109324263D01*
X61818517Y-109121558D01*
X61820555Y-108961363D01*
X61824125Y-108840356D01*
X61829368Y-108755216D01*
X61836426Y-108702622D01*
X61845379Y-108679314D01*
X61875761Y-108667769D01*
X61942330Y-108659490D01*
X62047944Y-108654287D01*
X62195465Y-108651970D01*
X62258014Y-108651805D01*
X62643140Y-108651805D01*
X62643140Y-108729587D01*
G37*
G36*
X63781227Y-109367767D02*
G01*
X63935879Y-109374980D01*
X64054284Y-109386616D01*
X64146013Y-109405362D01*
X64220634Y-109433905D01*
X64287717Y-109474932D01*
X64353963Y-109528606D01*
X64450024Y-109641735D01*
X64508218Y-109779689D01*
X64529019Y-109943624D01*
X64529081Y-109957949D01*
X64513756Y-110115633D01*
X64466683Y-110245813D01*
X64384170Y-110357247D01*
X64345005Y-110394524D01*
X64262134Y-110457428D01*
X64172472Y-110502443D01*
X64066819Y-110531993D01*
X63935979Y-110548502D01*
X63770753Y-110554393D01*
X63737796Y-110554512D01*
X63465321Y-110554512D01*
X63484059Y-110502933D01*
X63490339Y-110462328D01*
X63491345Y-110446509D01*
X63697653Y-110446509D01*
X63870389Y-110433445D01*
X63991415Y-110418268D01*
X64084485Y-110391002D01*
X64143277Y-110361688D01*
X64239894Y-110284815D01*
X64302526Y-110185033D01*
X64333257Y-110057635D01*
X64336001Y-109926908D01*
X64313933Y-109779854D01*
X64262565Y-109664917D01*
X64179322Y-109579700D01*
X64061628Y-109521808D01*
X63906908Y-109488844D01*
X63859899Y-109484028D01*
X63697653Y-109470426D01*
X63697653Y-109958468D01*
X63697653Y-110446509D01*
X63491345Y-110446509D01*
X63495296Y-110384404D01*
X63498939Y-110277674D01*
X63501274Y-110150648D01*
X63502307Y-110011837D01*
X63502208Y-109958468D01*
X63502044Y-109869752D01*
X63500494Y-109732905D01*
X63497661Y-109609806D01*
X63493554Y-109508966D01*
X63488177Y-109438898D01*
X63483213Y-109411367D01*
X63463628Y-109357120D01*
X63781227Y-109367767D01*
G37*
G36*
X65485740Y-109466142D02*
G01*
X65485740Y-109569829D01*
X65429013Y-109532661D01*
X65386564Y-109514039D01*
X65321293Y-109501730D01*
X65224909Y-109494624D01*
X65125268Y-109492015D01*
X64878249Y-109488538D01*
X64871602Y-109690719D01*
X64864955Y-109892900D01*
X65077920Y-109884837D01*
X65176343Y-109879303D01*
X65260392Y-109871284D01*
X65317311Y-109862138D01*
X65331001Y-109857866D01*
X65354391Y-109851986D01*
X65366429Y-109868956D01*
X65370734Y-109917887D01*
X65371119Y-109958838D01*
X65369528Y-110027157D01*
X65362727Y-110057612D01*
X65347672Y-110058136D01*
X65336234Y-110049767D01*
X65297292Y-110035136D01*
X65223314Y-110021977D01*
X65125111Y-110012017D01*
X65084068Y-110009450D01*
X64866787Y-109998085D01*
X64866787Y-110221524D01*
X64866787Y-110444963D01*
X65117455Y-110436384D01*
X65232879Y-110431267D01*
X65313044Y-110423934D01*
X65368538Y-110412389D01*
X65409950Y-110394633D01*
X65438394Y-110375851D01*
X65508664Y-110323898D01*
X65508664Y-110439205D01*
X65508664Y-110554512D01*
X65075806Y-110554512D01*
X64642947Y-110554512D01*
X64673626Y-110468547D01*
X64686588Y-110411125D01*
X64695853Y-110319872D01*
X64701636Y-110191195D01*
X64704154Y-110021501D01*
X64704305Y-109958484D01*
X64702778Y-109775019D01*
X64698055Y-109633712D01*
X64689919Y-109530970D01*
X64678154Y-109463200D01*
X64673626Y-109448420D01*
X64642947Y-109362455D01*
X65064343Y-109362455D01*
X65485740Y-109362455D01*
X65485740Y-109466142D01*
G37*
G36*
X66687564Y-109448420D02*
G01*
X66676051Y-109497974D01*
X66667348Y-109576564D01*
X66661237Y-109688304D01*
X66657500Y-109837305D01*
X66655919Y-110027681D01*
X66655879Y-110044449D01*
X66654873Y-110554512D01*
X66566528Y-110554512D01*
X66478182Y-110554512D01*
X66184697Y-110090298D01*
X66101530Y-109959128D01*
X66025807Y-109840416D01*
X65961177Y-109739825D01*
X65911288Y-109663018D01*
X65879791Y-109615657D01*
X65870894Y-109603329D01*
X65864666Y-109616868D01*
X65860257Y-109668230D01*
X65857555Y-109749431D01*
X65856448Y-109852485D01*
X65856825Y-109969409D01*
X65858574Y-110092218D01*
X65861584Y-110212927D01*
X65865742Y-110323552D01*
X65870938Y-110416108D01*
X65877059Y-110482611D01*
X65883634Y-110514395D01*
X65890028Y-110537797D01*
X65873490Y-110549828D01*
X65824960Y-110554126D01*
X65783754Y-110554512D01*
X65714807Y-110552783D01*
X65682539Y-110545173D01*
X65677834Y-110528046D01*
X65683150Y-110514395D01*
X65691025Y-110475182D01*
X65697695Y-110398906D01*
X65703093Y-110293835D01*
X65707150Y-110168238D01*
X65709800Y-110030383D01*
X65710975Y-109888540D01*
X65710607Y-109750976D01*
X65708630Y-109625960D01*
X65704975Y-109521760D01*
X65699575Y-109446646D01*
X65692362Y-109408886D01*
X65692178Y-109408528D01*
X65680151Y-109381444D01*
X65687302Y-109367766D01*
X65722385Y-109364042D01*
X65794153Y-109366821D01*
X65797532Y-109366999D01*
X65928815Y-109373917D01*
X66217341Y-109830429D01*
X66505866Y-110286940D01*
X66512116Y-109870009D01*
X66513159Y-109704242D01*
X66510978Y-109570842D01*
X66505727Y-109473819D01*
X66497564Y-109417180D01*
X66494117Y-109407766D01*
X66483631Y-109381785D01*
X66494027Y-109368266D01*
X66534207Y-109363174D01*
X66594055Y-109362455D01*
X66718243Y-109362455D01*
X66687564Y-109448420D01*
G37*
G36*
X67067509Y-109452434D02*
G01*
X67074206Y-109492162D01*
X67092578Y-109562939D01*
X67120038Y-109656994D01*
X67154005Y-109766554D01*
X67191894Y-109883851D01*
X67231122Y-110001112D01*
X67269104Y-110110566D01*
X67303258Y-110204444D01*
X67330999Y-110274973D01*
X67349743Y-110314383D01*
X67355847Y-110319664D01*
X67365791Y-110297339D01*
X67389580Y-110239155D01*
X67424459Y-110151994D01*
X67467675Y-110042734D01*
X67512833Y-109927575D01*
X67573484Y-109766734D01*
X67619773Y-109632123D01*
X67650175Y-109528553D01*
X67663163Y-109460837D01*
X67663537Y-109452111D01*
X67663537Y-109362455D01*
X67778158Y-109362455D01*
X67843565Y-109364282D01*
X67885064Y-109368954D01*
X67892779Y-109372606D01*
X67882303Y-109397039D01*
X67856334Y-109444864D01*
X67848406Y-109458572D01*
X67825757Y-109504626D01*
X67789438Y-109587500D01*
X67741914Y-109701101D01*
X67685651Y-109839333D01*
X67623115Y-109996103D01*
X67556773Y-110165317D01*
X67489091Y-110340879D01*
X67453616Y-110434160D01*
X67425287Y-110503093D01*
X67400471Y-110539047D01*
X67368446Y-110552628D01*
X67331942Y-110554512D01*
X67266040Y-110542321D01*
X67240087Y-110514395D01*
X67227797Y-110481644D01*
X67202327Y-110412762D01*
X67166226Y-110314684D01*
X67122048Y-110194345D01*
X67072342Y-110058680D01*
X67054157Y-110008985D01*
X67001053Y-109865465D01*
X66950225Y-109731124D01*
X66904766Y-109613902D01*
X66867767Y-109521742D01*
X66842320Y-109462582D01*
X66837717Y-109453074D01*
X66791487Y-109362455D01*
X66929498Y-109362455D01*
X67067509Y-109362455D01*
X67067509Y-109452434D01*
G37*
G36*
X68809747Y-109466142D02*
G01*
X68809747Y-109569829D01*
X68752713Y-109532459D01*
X68698723Y-109510911D01*
X68608924Y-109495043D01*
X68478739Y-109484094D01*
X68454698Y-109482790D01*
X68213718Y-109470491D01*
X68213718Y-109680101D01*
X68213718Y-109889711D01*
X68402843Y-109889570D01*
X68525166Y-109884507D01*
X68616343Y-109870267D01*
X68655009Y-109856543D01*
X68718050Y-109823657D01*
X68718050Y-109948381D01*
X68714506Y-110028128D01*
X68702272Y-110066276D01*
X68678944Y-110066639D01*
X68655672Y-110047405D01*
X68622467Y-110034749D01*
X68555357Y-110022614D01*
X68466267Y-110012917D01*
X68421846Y-110009839D01*
X68213718Y-109997973D01*
X68213718Y-110218932D01*
X68213718Y-110439892D01*
X68402843Y-110439345D01*
X68570626Y-110432484D01*
X68695216Y-110413049D01*
X68776244Y-110381115D01*
X68803402Y-110356535D01*
X68820364Y-110339245D01*
X68829218Y-110351510D01*
X68832420Y-110399956D01*
X68832671Y-110435510D01*
X68832671Y-110554512D01*
X68406121Y-110554512D01*
X68256681Y-110554254D01*
X68147314Y-110553101D01*
X68072243Y-110550482D01*
X68025694Y-110545830D01*
X68001891Y-110538573D01*
X67995060Y-110528144D01*
X67999217Y-110514395D01*
X68004910Y-110480549D01*
X68009956Y-110408015D01*
X68014100Y-110303950D01*
X68017091Y-110175511D01*
X68018676Y-110029857D01*
X68018862Y-109958484D01*
X68018016Y-109807277D01*
X68015646Y-109669968D01*
X68012004Y-109553712D01*
X68007345Y-109465670D01*
X68001921Y-109412997D01*
X67999217Y-109402572D01*
X67995018Y-109388340D01*
X68002325Y-109377929D01*
X68026981Y-109370748D01*
X68074831Y-109366204D01*
X68151720Y-109363702D01*
X68263492Y-109362651D01*
X68394659Y-109362455D01*
X68809747Y-109362455D01*
X68809747Y-109466142D01*
G37*
G36*
X69393633Y-109366095D02*
G01*
X69513378Y-109377889D01*
X69605032Y-109400127D01*
X69677268Y-109434971D01*
X69738761Y-109484582D01*
X69742832Y-109488608D01*
X69802501Y-109576499D01*
X69821965Y-109673345D01*
X69803246Y-109770252D01*
X69748370Y-109858324D01*
X69659361Y-109928666D01*
X69640458Y-109938475D01*
X69582237Y-109969413D01*
X69559482Y-109992245D01*
X69565035Y-110015764D01*
X69570907Y-110023953D01*
X69595231Y-110054209D01*
X69641705Y-110111118D01*
X69703212Y-110186041D01*
X69772634Y-110270340D01*
X69842852Y-110355379D01*
X69906749Y-110432518D01*
X69957207Y-110493121D01*
X69975064Y-110514395D01*
X69991343Y-110538038D01*
X69982824Y-110549943D01*
X69941526Y-110554091D01*
X69894622Y-110554512D01*
X69780334Y-110554512D01*
X69564400Y-110280455D01*
X69477986Y-110172319D01*
X69413454Y-110096017D01*
X69365586Y-110046404D01*
X69329162Y-110018331D01*
X69298963Y-110006653D01*
X69285424Y-110005365D01*
X69222382Y-110004332D01*
X69222382Y-110220619D01*
X69224715Y-110322651D01*
X69230956Y-110413157D01*
X69239972Y-110478190D01*
X69244739Y-110495710D01*
X69267096Y-110554512D01*
X69131311Y-110554512D01*
X68995525Y-110554512D01*
X69018147Y-110489621D01*
X69024772Y-110446980D01*
X69029620Y-110367906D01*
X69032771Y-110260784D01*
X69034303Y-110133999D01*
X69034297Y-109995938D01*
X69033007Y-109871961D01*
X69222382Y-109871961D01*
X69385610Y-109862737D01*
X69476396Y-109855256D01*
X69534130Y-109842840D01*
X69571595Y-109821621D01*
X69591928Y-109800300D01*
X69622754Y-109738958D01*
X69635018Y-109670285D01*
X69616044Y-109587060D01*
X69558773Y-109527345D01*
X69462680Y-109490827D01*
X69327239Y-109477193D01*
X69311213Y-109477076D01*
X69222382Y-109477076D01*
X69222382Y-109674518D01*
X69222382Y-109871961D01*
X69033007Y-109871961D01*
X69032830Y-109854985D01*
X69029983Y-109719527D01*
X69028447Y-109674518D01*
X69025834Y-109597949D01*
X69020463Y-109498637D01*
X69013949Y-109429976D01*
X69007881Y-109402572D01*
X69002685Y-109384944D01*
X69012568Y-109373392D01*
X69044756Y-109366657D01*
X69106476Y-109363477D01*
X69204952Y-109362592D01*
X69237123Y-109362583D01*
X69393633Y-109366095D01*
G37*
G36*
X60410797Y-108239644D02*
G01*
X60664007Y-108241087D01*
X60874062Y-108243527D01*
X61042301Y-108246994D01*
X61170068Y-108251517D01*
X61258701Y-108257126D01*
X61309545Y-108263848D01*
X61315319Y-108265336D01*
X61429964Y-108320388D01*
X61534857Y-108408544D01*
X61615298Y-108517327D01*
X61617948Y-108522208D01*
X61632790Y-108551634D01*
X61644429Y-108581738D01*
X61653253Y-108618235D01*
X61659651Y-108666842D01*
X61664012Y-108733272D01*
X61666725Y-108823243D01*
X61668179Y-108942468D01*
X61668761Y-109096663D01*
X61668862Y-109270758D01*
X61668729Y-109461502D01*
X61668071Y-109612109D01*
X61666502Y-109728290D01*
X61663636Y-109815758D01*
X61659087Y-109880223D01*
X61652468Y-109927397D01*
X61643394Y-109962991D01*
X61631478Y-109992716D01*
X61618288Y-110018641D01*
X61534883Y-110133460D01*
X61424163Y-110227532D01*
X61342929Y-110271434D01*
X61316585Y-110278781D01*
X61273257Y-110284941D01*
X61209440Y-110290003D01*
X61121626Y-110294056D01*
X61006307Y-110297191D01*
X60859978Y-110299496D01*
X60679131Y-110301062D01*
X60460258Y-110301978D01*
X60199853Y-110302334D01*
X60133678Y-110302346D01*
X58998195Y-110302346D01*
X58998195Y-110225791D01*
X59007468Y-110165161D01*
X59041913Y-110129977D01*
X59055505Y-110123124D01*
X59112815Y-110097012D01*
X59112815Y-110004332D01*
X59812003Y-110004332D01*
X60308065Y-110004332D01*
X60472725Y-110004040D01*
X60597863Y-110002828D01*
X60689803Y-110000193D01*
X60754867Y-109995632D01*
X60799380Y-109988641D01*
X60829665Y-109978717D01*
X60852047Y-109965357D01*
X60858245Y-109960539D01*
X60912364Y-109916746D01*
X60919136Y-109283552D01*
X60925907Y-108650359D01*
X60857858Y-108582309D01*
X60789808Y-108514260D01*
X60300906Y-108514260D01*
X59812003Y-108514260D01*
X59812003Y-109259296D01*
X59812003Y-110004332D01*
X59112815Y-110004332D01*
X59112815Y-109274929D01*
X59112815Y-109259296D01*
X59112815Y-108452847D01*
X59055505Y-108426734D01*
X59014425Y-108396836D01*
X58999191Y-108347394D01*
X58998195Y-108319896D01*
X58998195Y-108239170D01*
X60113089Y-108239170D01*
X60410797Y-108239644D01*
G37*
G36*
X63997381Y-108468361D02*
G01*
X64056406Y-108468411D01*
X64046183Y-108726308D01*
X64040193Y-108834146D01*
X64031831Y-108927833D01*
X64022289Y-108996165D01*
X64014351Y-109025550D01*
X63967334Y-109078110D01*
X63894247Y-109123626D01*
X63814714Y-109151341D01*
X63777888Y-109155154D01*
X63706638Y-109144968D01*
X63636095Y-109122584D01*
X63580483Y-109089650D01*
X63540634Y-109041891D01*
X63513839Y-108971846D01*
X63497385Y-108872053D01*
X63488562Y-108735051D01*
X63487848Y-108714568D01*
X63479873Y-108468360D01*
X63550267Y-108468386D01*
X63620661Y-108468411D01*
X63610501Y-108661983D01*
X63607488Y-108805479D01*
X63617445Y-108909656D01*
X63642895Y-108979840D01*
X63686365Y-109021354D01*
X63750378Y-109039522D01*
X63790459Y-109041516D01*
X63855281Y-109034757D01*
X63900564Y-109010366D01*
X63929106Y-108962174D01*
X63943704Y-108884008D01*
X63947156Y-108769699D01*
X63945646Y-108699250D01*
X63938357Y-108468311D01*
X63997381Y-108468361D01*
G37*
G36*
X67473605Y-108459308D02*
G01*
X67526842Y-108492980D01*
X67548826Y-108545367D01*
X67548917Y-108549379D01*
X67545934Y-108589959D01*
X67528584Y-108592645D01*
X67497967Y-108572870D01*
X67431167Y-108543638D01*
X67359750Y-108538112D01*
X67300318Y-108555658D01*
X67274715Y-108581372D01*
X67259913Y-108625475D01*
X67271886Y-108663695D01*
X67315923Y-108703038D01*
X67397314Y-108750509D01*
X67405781Y-108754964D01*
X67501157Y-108815122D01*
X67554140Y-108876406D01*
X67567936Y-108944746D01*
X67548638Y-109019265D01*
X67495268Y-109093062D01*
X67414090Y-109138015D01*
X67315053Y-109151293D01*
X67208103Y-109130063D01*
X67187861Y-109121960D01*
X67133269Y-109088085D01*
X67113928Y-109043726D01*
X67113357Y-109031161D01*
X67117318Y-108986858D01*
X67134745Y-108976734D01*
X67173955Y-108999565D01*
X67198798Y-109018592D01*
X67272469Y-109055535D01*
X67349572Y-109061338D01*
X67413592Y-109035270D01*
X67421196Y-109028417D01*
X67450665Y-108989664D01*
X67451041Y-108954806D01*
X67418413Y-108917808D01*
X67348868Y-108872636D01*
X67304124Y-108847838D01*
X67210586Y-108781322D01*
X67155058Y-108706695D01*
X67138718Y-108629990D01*
X67162746Y-108557238D01*
X67228321Y-108494469D01*
X67234324Y-108490710D01*
X67316552Y-108456160D01*
X67399910Y-108446364D01*
X67473605Y-108459308D01*
G37*
G36*
X64281097Y-108473104D02*
G01*
X64319912Y-108477463D01*
X64350803Y-108488288D01*
X64380146Y-108512269D01*
X64414317Y-108556098D01*
X64459693Y-108626464D01*
X64516926Y-108720577D01*
X64662182Y-108961281D01*
X64655595Y-108714798D01*
X64649007Y-108468315D01*
X64717779Y-108468327D01*
X64786552Y-108468340D01*
X64779643Y-108800776D01*
X64772734Y-109133213D01*
X64699408Y-109132555D01*
X64668494Y-109129913D01*
X64641421Y-109118470D01*
X64612782Y-109092023D01*
X64577171Y-109044367D01*
X64529180Y-108969299D01*
X64465613Y-108864302D01*
X64397213Y-108751522D01*
X64348722Y-108678545D01*
X64317118Y-108646399D01*
X64299381Y-108656106D01*
X64292490Y-108708694D01*
X64293424Y-108805185D01*
X64298057Y-108921164D01*
X64307263Y-109133213D01*
X64248893Y-109133213D01*
X64190523Y-109133213D01*
X64190523Y-108799774D01*
X64190523Y-108466335D01*
X64281097Y-108473104D01*
G37*
G36*
X65084566Y-108794585D02*
G01*
X65084566Y-109133168D01*
X65001037Y-109133191D01*
X64917508Y-109133213D01*
X64940282Y-109035785D01*
X64948958Y-108970033D01*
X64953369Y-108874335D01*
X64953018Y-108764436D01*
X64950725Y-108705727D01*
X64938395Y-108473096D01*
X65011481Y-108464549D01*
X65084566Y-108456001D01*
X65084566Y-108794585D01*
G37*
G36*
X65278918Y-108464434D02*
G01*
X65338851Y-108474064D01*
X65365420Y-108493183D01*
X65371119Y-108526931D01*
X65378731Y-108571826D01*
X65399098Y-108646524D01*
X65428510Y-108738039D01*
X65443806Y-108781517D01*
X65516493Y-108982397D01*
X65556607Y-108887946D01*
X65584826Y-108816548D01*
X65619219Y-108722622D01*
X65650120Y-108633066D01*
X65679999Y-108548963D01*
X65704564Y-108499211D01*
X65730622Y-108473943D01*
X65764981Y-108463292D01*
X65767545Y-108462888D01*
X65812763Y-108462515D01*
X65820194Y-108477968D01*
X65807943Y-108507190D01*
X65781986Y-108570675D01*
X65745691Y-108660133D01*
X65702426Y-108767278D01*
X65684309Y-108812274D01*
X65634246Y-108934737D01*
X65596535Y-109020727D01*
X65567468Y-109076716D01*
X65543341Y-109109177D01*
X65520446Y-109124582D01*
X65503130Y-109128688D01*
X65479793Y-109128767D01*
X65459598Y-109118337D01*
X65438867Y-109090996D01*
X65413919Y-109040340D01*
X65381074Y-108959968D01*
X65336651Y-108843476D01*
X65331836Y-108830673D01*
X65289386Y-108718109D01*
X65251788Y-108619113D01*
X65222422Y-108542525D01*
X65204661Y-108497184D01*
X65201965Y-108490682D01*
X65199826Y-108468878D01*
X65225610Y-108461473D01*
X65278918Y-108464434D01*
G37*
G36*
X66150541Y-108468428D02*
G01*
X66391245Y-108468444D01*
X66394648Y-108527297D01*
X66391503Y-108568189D01*
X66370368Y-108572858D01*
X66360262Y-108568782D01*
X66317266Y-108557648D01*
X66246617Y-108547388D01*
X66190658Y-108542263D01*
X66058844Y-108533112D01*
X66058844Y-108640343D01*
X66058844Y-108747574D01*
X66196431Y-108739807D01*
X66334018Y-108732040D01*
X66333976Y-108811128D01*
X66330628Y-108861227D01*
X66318490Y-108871900D01*
X66306426Y-108862707D01*
X66268380Y-108846356D01*
X66203595Y-108836503D01*
X66168880Y-108835198D01*
X66058844Y-108835198D01*
X66058844Y-108949819D01*
X66058844Y-109064440D01*
X66179827Y-109064440D01*
X66270737Y-109056687D01*
X66339542Y-109035943D01*
X66351758Y-109028754D01*
X66387225Y-109007135D01*
X66400639Y-109017222D01*
X66402707Y-109063140D01*
X66402707Y-109133213D01*
X66156272Y-109133213D01*
X65909837Y-109133213D01*
X65909837Y-108800812D01*
X65909837Y-108468411D01*
X66150541Y-108468428D01*
G37*
G36*
X66715581Y-108468411D02*
G01*
X66839021Y-108481785D01*
X66923059Y-108506470D01*
X66973480Y-108546018D01*
X66996068Y-108603980D01*
X66998736Y-108642234D01*
X66985782Y-108708370D01*
X66940057Y-108762891D01*
X66929618Y-108771347D01*
X66860500Y-108825440D01*
X66987433Y-108979327D01*
X67114365Y-109133213D01*
X67035719Y-109133213D01*
X66993032Y-109129138D01*
X66955901Y-109111963D01*
X66914569Y-109074263D01*
X66859284Y-109008612D01*
X66839973Y-108984206D01*
X66781462Y-108915188D01*
X66729200Y-108863136D01*
X66692239Y-108836786D01*
X66685558Y-108835198D01*
X66665834Y-108841253D01*
X66656782Y-108865886D01*
X66656877Y-108918802D01*
X66662158Y-108984206D01*
X66676072Y-109133213D01*
X66602431Y-109133191D01*
X66528790Y-109133168D01*
X66528790Y-108795059D01*
X66528790Y-108640343D01*
X66654873Y-108640343D01*
X66656622Y-108703730D01*
X66668207Y-108733746D01*
X66699132Y-108742868D01*
X66733470Y-108743502D01*
X66798173Y-108733351D01*
X66846725Y-108708793D01*
X66848091Y-108707478D01*
X66879532Y-108652736D01*
X66871243Y-108600632D01*
X66828965Y-108559692D01*
X66758437Y-108538445D01*
X66733470Y-108537184D01*
X66685175Y-108539480D01*
X66662306Y-108554684D01*
X66655356Y-108595273D01*
X66654873Y-108640343D01*
X66528790Y-108640343D01*
X66528790Y-108456949D01*
X66715581Y-108468411D01*
G37*
G36*
X67766696Y-108464049D02*
G01*
X67835469Y-108472089D01*
X67835469Y-108802651D01*
X67835469Y-109133213D01*
X67766696Y-109133195D01*
X67697924Y-109133177D01*
X67697924Y-108794593D01*
X67697924Y-108456009D01*
X67766696Y-108464049D01*
G37*
G36*
X69059878Y-108476383D02*
G01*
X69035860Y-108507189D01*
X69029391Y-108512713D01*
X69002785Y-108544440D01*
X68961373Y-108604392D01*
X68913064Y-108680969D01*
X68901351Y-108700484D01*
X68853214Y-108784674D01*
X68825399Y-108846286D01*
X68813217Y-108901166D01*
X68811979Y-108965161D01*
X68813521Y-108997280D01*
X68821209Y-109133296D01*
X68740974Y-109133296D01*
X68660740Y-109133296D01*
X68668478Y-108996282D01*
X68670212Y-108918170D01*
X68661362Y-108858486D01*
X68636715Y-108798397D01*
X68592241Y-108721028D01*
X68532413Y-108630458D01*
X68480603Y-108574643D01*
X68427038Y-108546081D01*
X68361949Y-108537270D01*
X68352770Y-108537184D01*
X68282491Y-108537184D01*
X68282491Y-108760846D01*
X68284675Y-108866776D01*
X68290527Y-108963476D01*
X68298996Y-109036264D01*
X68303814Y-109058861D01*
X68315521Y-109107809D01*
X68305271Y-109128526D01*
X68262760Y-109133168D01*
X68240773Y-109133245D01*
X68156407Y-109133278D01*
X68163960Y-108835231D01*
X68171513Y-108537184D01*
X68113873Y-108537184D01*
X68046250Y-108545709D01*
X67997431Y-108559541D01*
X67955137Y-108571119D01*
X67940200Y-108554417D01*
X67938628Y-108525154D01*
X67938628Y-108468411D01*
X68282491Y-108468411D01*
X68416681Y-108469002D01*
X68511484Y-108471214D01*
X68573349Y-108475707D01*
X68608728Y-108483143D01*
X68624070Y-108494181D01*
X68626353Y-108503610D01*
X68637190Y-108541763D01*
X68665174Y-108603546D01*
X68693007Y-108655514D01*
X68759661Y-108772221D01*
X68830337Y-108648971D01*
X68867714Y-108579875D01*
X68893414Y-108524877D01*
X68901228Y-108499575D01*
X68921553Y-108479925D01*
X68971242Y-108465500D01*
X68981678Y-108464061D01*
X69042049Y-108462244D01*
X69059878Y-108476383D01*
G37*
G36*
X69411383Y-108585076D02*
G01*
X69489955Y-108617485D01*
X69530832Y-108657295D01*
X69553822Y-108712989D01*
X69565769Y-108786593D01*
X69566245Y-108802787D01*
X69547246Y-108901763D01*
X69493494Y-108973144D01*
X69409855Y-109012064D01*
X69351070Y-109017863D01*
X69281981Y-109010836D01*
X69228624Y-108994319D01*
X69220396Y-108989208D01*
X69163658Y-108920131D01*
X69134827Y-108831115D01*
X69135356Y-108798233D01*
X69220040Y-108798233D01*
X69231462Y-108873304D01*
X69264424Y-108929782D01*
X69273331Y-108937057D01*
X69319780Y-108963824D01*
X69348465Y-108972744D01*
X69383950Y-108960595D01*
X69423599Y-108937057D01*
X69459788Y-108897190D01*
X69473722Y-108835821D01*
X69474548Y-108807048D01*
X69460197Y-108718931D01*
X69422167Y-108658229D01*
X69367998Y-108629973D01*
X69305228Y-108639189D01*
X69264305Y-108666820D01*
X69230780Y-108723196D01*
X69220040Y-108798233D01*
X69135356Y-108798233D01*
X69136317Y-108738511D01*
X69170545Y-108658672D01*
X69171397Y-108657555D01*
X69237194Y-108605122D01*
X69322159Y-108580959D01*
X69411383Y-108585076D01*
G37*
G36*
X69853999Y-108586038D02*
G01*
X69897362Y-108596219D01*
X69910108Y-108615237D01*
X69898120Y-108635288D01*
X69856118Y-108639078D01*
X69818411Y-108635143D01*
X69759925Y-108629322D01*
X69733776Y-108638676D01*
X69726950Y-108671651D01*
X69726714Y-108694635D01*
X69730903Y-108742826D01*
X69752774Y-108762592D01*
X69806289Y-108766426D01*
X69806949Y-108766426D01*
X69866292Y-108773882D01*
X69887039Y-108797680D01*
X69887184Y-108800812D01*
X69870323Y-108825898D01*
X69816002Y-108835054D01*
X69804541Y-108835198D01*
X69751936Y-108837403D01*
X69729874Y-108852782D01*
X69727760Y-108894478D01*
X69730643Y-108926895D01*
X69733477Y-108985747D01*
X69722831Y-109012062D01*
X69692688Y-109018544D01*
X69687203Y-109018592D01*
X69663014Y-109016439D01*
X69647757Y-109004263D01*
X69639377Y-108973489D01*
X69635817Y-108915542D01*
X69635025Y-108821846D01*
X69635018Y-108800812D01*
X69635018Y-108583032D01*
X69772563Y-108583032D01*
X69853999Y-108586038D01*
G37*
G36*
X60322066Y-108657007D02*
G01*
X60728971Y-108663267D01*
X60735101Y-109245003D01*
X60736431Y-109447140D01*
X60735631Y-109606031D01*
X60732618Y-109724235D01*
X60727307Y-109804307D01*
X60719617Y-109848806D01*
X60715101Y-109858225D01*
X60693384Y-109871010D01*
X60648886Y-109880059D01*
X60575702Y-109885863D01*
X60467928Y-109888914D01*
X60336453Y-109889711D01*
X59983935Y-109889711D01*
X59983935Y-109361735D01*
X59983553Y-109189602D01*
X59982181Y-109057967D01*
X59979479Y-108961488D01*
X59975109Y-108894818D01*
X59968729Y-108852614D01*
X59960001Y-108829530D01*
X59949548Y-108820564D01*
X59923572Y-108787709D01*
X59915162Y-108729058D01*
X59915162Y-108650747D01*
X60322066Y-108657007D01*
G37*
%TO.C,C6*%
D13*
X46765000Y-96261252D02*
X46765000Y-95738748D01*
X48235000Y-96261252D02*
X48235000Y-95738748D01*
%TO.C,R3*%
X73380000Y-97153641D02*
X73380000Y-96846359D01*
X72620000Y-97153641D02*
X72620000Y-96846359D01*
%TO.C,C1*%
X60765000Y-89738748D02*
X60765000Y-90261252D01*
X62235000Y-89738748D02*
X62235000Y-90261252D01*
%TO.C,SW1*%
X38570000Y-83550000D02*
X37780000Y-83550000D01*
X36770000Y-84150000D02*
X36770000Y-89850000D01*
X39620000Y-85400000D02*
X39620000Y-87100000D01*
X39620000Y-88400000D02*
X39620000Y-88600000D01*
X37780000Y-90450000D02*
X38570000Y-90450000D01*
%TO.C,C13*%
X68765000Y-100411252D02*
X68765000Y-99888748D01*
X70235000Y-100411252D02*
X70235000Y-99888748D01*
%TO.C,C12*%
X64238748Y-94415000D02*
X64761252Y-94415000D01*
X64238748Y-95885000D02*
X64761252Y-95885000D01*
%TO.C,C11*%
X43765000Y-96261252D02*
X43765000Y-95738748D01*
X45235000Y-96261252D02*
X45235000Y-95738748D01*
%TO.C,C10*%
X43765000Y-91261252D02*
X43765000Y-90738748D01*
X45235000Y-91261252D02*
X45235000Y-90738748D01*
%TO.C,C9*%
X51738748Y-100265000D02*
X52261252Y-100265000D01*
X51738748Y-101735000D02*
X52261252Y-101735000D01*
%TO.C,C8*%
X44261252Y-103735000D02*
X43738748Y-103735000D01*
X44261252Y-102265000D02*
X43738748Y-102265000D01*
%TO.C,C7*%
X44261252Y-101235000D02*
X43738748Y-101235000D01*
X44261252Y-99765000D02*
X43738748Y-99765000D01*
%TO.C,C5*%
X51238748Y-85765000D02*
X51761252Y-85765000D01*
X51238748Y-87235000D02*
X51761252Y-87235000D01*
%TO.C,C4*%
X46765000Y-89761252D02*
X46765000Y-89238748D01*
X48235000Y-89761252D02*
X48235000Y-89238748D01*
%TO.C,C3*%
X48238748Y-83265000D02*
X48761252Y-83265000D01*
X48238748Y-84735000D02*
X48761252Y-84735000D01*
%TO.C,C2*%
X58261252Y-101235000D02*
X57738748Y-101235000D01*
X58261252Y-99765000D02*
X57738748Y-99765000D01*
%TO.C,U2*%
X67910000Y-99300000D02*
X67910000Y-103060000D01*
X61090000Y-99300000D02*
X61090000Y-103060000D01*
X67910000Y-103060000D02*
X66650000Y-103060000D01*
X61090000Y-103060000D02*
X62350000Y-103060000D01*
X68140000Y-98260000D02*
X67810000Y-98020000D01*
X68140000Y-97780000D01*
X68140000Y-98260000D01*
G36*
X68140000Y-98260000D02*
G01*
X67810000Y-98020000D01*
X68140000Y-97780000D01*
X68140000Y-98260000D01*
G37*
%TO.C,U1*%
X50890000Y-89890000D02*
X51340000Y-89890000D01*
X50890000Y-90340000D02*
X50890000Y-89890000D01*
X50890000Y-97110000D02*
X50890000Y-96660000D01*
X51340000Y-97110000D02*
X50890000Y-97110000D01*
X57660000Y-89890000D02*
X58110000Y-89890000D01*
X58110000Y-89890000D02*
X58110000Y-90340000D01*
X58110000Y-96660000D02*
X58110000Y-97110000D01*
X58110000Y-97110000D02*
X57660000Y-97110000D01*
X50250000Y-90340000D02*
X49910000Y-89870000D01*
X50590000Y-89870000D01*
X50250000Y-90340000D01*
G36*
X50250000Y-90340000D02*
G01*
X49910000Y-89870000D01*
X50590000Y-89870000D01*
X50250000Y-90340000D01*
G37*
%TO.C,R5*%
X52846359Y-105620000D02*
X53153641Y-105620000D01*
X52846359Y-106380000D02*
X53153641Y-106380000D01*
%TO.C,R4*%
X50653641Y-106380000D02*
X50346359Y-106380000D01*
X50653641Y-105620000D02*
X50346359Y-105620000D01*
%TO.C,R2*%
X65380000Y-91346359D02*
X65380000Y-91653641D01*
X64620000Y-91346359D02*
X64620000Y-91653641D01*
%TO.C,R1*%
X41620000Y-87143641D02*
X41620000Y-86836359D01*
X42380000Y-87143641D02*
X42380000Y-86836359D01*
%TO.C,J4*%
X45810000Y-110880000D02*
X45810000Y-109500000D01*
X47190000Y-110880000D02*
X45810000Y-110880000D01*
X48460000Y-110880000D02*
X56190000Y-110880000D01*
X48460000Y-110880000D02*
X48460000Y-108120000D01*
X56190000Y-110880000D02*
X56190000Y-108120000D01*
X48460000Y-108120000D02*
X56190000Y-108120000D01*
%TO.C,J3*%
X57690000Y-78120000D02*
X57690000Y-79500000D01*
X56310000Y-78120000D02*
X57690000Y-78120000D01*
X55040000Y-78120000D02*
X47310000Y-78120000D01*
X55040000Y-78120000D02*
X55040000Y-80880000D01*
X47310000Y-78120000D02*
X47310000Y-80880000D01*
X55040000Y-80880000D02*
X47310000Y-80880000D01*
%TO.C,J2*%
X70190000Y-78120000D02*
X70190000Y-79500000D01*
X68810000Y-78120000D02*
X70190000Y-78120000D01*
X67540000Y-78120000D02*
X59810000Y-78120000D01*
X67540000Y-78120000D02*
X67540000Y-80880000D01*
X59810000Y-78120000D02*
X59810000Y-80880000D01*
X67540000Y-80880000D02*
X59810000Y-80880000D01*
%TO.C,J1*%
X72350000Y-93150000D02*
X73750000Y-93150000D01*
X76150000Y-93150000D02*
X76300000Y-93150000D01*
X76300000Y-93150000D02*
X76300000Y-92850000D01*
X76300000Y-92850000D02*
X76750000Y-92850000D01*
X70175000Y-90800000D02*
X70600000Y-90800000D01*
X70600000Y-90800000D02*
X70600000Y-91800000D01*
X70175000Y-90075000D02*
X70175000Y-90800000D01*
X70600000Y-87200000D02*
X70600000Y-86200000D01*
X76300000Y-85150000D02*
X76300000Y-84850000D01*
X76750000Y-85150000D02*
X76300000Y-85150000D01*
X73750000Y-84850000D02*
X72350000Y-84850000D01*
X76300000Y-84850000D02*
X76150000Y-84850000D01*
%TO.C,FB1*%
X47510000Y-101837221D02*
X47510000Y-102162779D01*
X46490000Y-101837221D02*
X46490000Y-102162779D01*
%TO.C,D1*%
X73735000Y-99015000D02*
X72265000Y-99015000D01*
X72265000Y-99015000D02*
X72265000Y-101300000D01*
X73735000Y-101300000D02*
X73735000Y-99015000D01*
%TO.C,Y1*%
X42710000Y-91940000D02*
X39290000Y-91940000D01*
X39290000Y-91940000D02*
X39290000Y-96060000D01*
%TD*%
M02*
