M48
; DRILL file KiCad 10.0.0 date 2026-04-28T07:58:31
; FORMAT={-:-/ absolute / metric / decimal}
; #@! TF.CreationDate,2026-04-28T07:58:31-06:00
; #@! TF.GenerationSoftware,Kicad,Pcbnew,10.0.0
; #@! TF.FileFunction,MixedPlating,1,2
FMAT,2
METRIC
; #@! TA.AperFunction,Plated,PTH,ViaDrill
T1C0.300
; #@! TA.AperFunction,Plated,PTH,ComponentDrill
T2C0.550
; #@! TA.AperFunction,Plated,PTH,ComponentDrill
T3C0.850
; #@! TA.AperFunction,Plated,PTH,ComponentDrill
T4C1.000
; #@! TA.AperFunction,NonPlated,NPTH,ComponentDrill
T5C0.800
; #@! TA.AperFunction,NonPlated,NPTH,ComponentDrill
T6C0.900
; #@! TA.AperFunction,NonPlated,NPTH,ComponentDrill
T7C2.200
%
G90
G05
T1
X40.0Y-97.0
X40.5Y-84.0
X42.0Y-91.5
X43.0Y-90.5
X43.0Y-99.0
X43.0Y-104.5
X45.0Y-93.5
X47.5Y-87.5
X49.0Y-107.0
X50.5Y-84.0
X51.01Y-106.99
X51.85Y-94.5
X52.5Y-91.0
X54.0Y-101.0
X55.0Y-105.0
X56.5Y-96.0
X57.0Y-105.0
X63.0Y-91.0
X66.5Y-99.5
X67.0Y-94.5
X67.0Y-96.0
X67.5Y-99.5
X70.0Y-87.5
X71.0Y-99.0
X74.0Y-96.35
T4
X47.19Y-109.5
X48.69Y-79.5
X49.73Y-109.5
X51.23Y-79.5
X52.27Y-109.5
X53.77Y-79.5
X54.81Y-109.5
X56.31Y-79.5
X61.19Y-79.5
X63.73Y-79.5
X66.27Y-79.5
X68.81Y-79.5
T5
X72.2Y-86.5
X72.2Y-91.5
T6
X38.17Y-85.5
X38.17Y-88.5
T7
X39.0Y-79.5
X39.0Y-109.5
X74.0Y-79.5
X74.0Y-109.5
T2
G00X74.625Y-85.125
M15
G01X75.275Y-85.125
M16
G05
G00X74.625Y-92.875
M15
G01X75.275Y-92.875
M16
G05
T3
G00X70.875Y-85.275
M15
G01X71.425Y-85.275
M16
G05
G00X70.875Y-92.725
M15
G01X71.425Y-92.725
M16
G05
M30
