%TF.GenerationSoftware,KiCad,Pcbnew,10.0.0*%
%TF.CreationDate,2026-04-28T07:58:37-06:00*%
%TF.ProjectId,2026_PhilsLab_PCBDesign,32303236-5f50-4686-996c-734c61625f50,rev?*%
%TF.SameCoordinates,Original*%
%TF.FileFunction,Copper,L2,Bot*%
%TF.FilePolarity,Positive*%
%FSLAX46Y46*%
G04 Gerber Fmt 4.6, Leading zero omitted, Abs format (unit mm)*
G04 Created by KiCad (PCBNEW 10.0.0) date 2026-04-28 07:58:37*
%MOMM*%
%LPD*%
G01*
G04 APERTURE LIST*
%TA.AperFunction,ComponentPad*%
%ADD10R,1.700000X1.700000*%
%TD*%
%TA.AperFunction,ComponentPad*%
%ADD11C,1.700000*%
%TD*%
%TA.AperFunction,ComponentPad*%
%ADD12O,1.800000X1.150000*%
%TD*%
%TA.AperFunction,ComponentPad*%
%ADD13O,2.000000X1.450000*%
%TD*%
%TA.AperFunction,ViaPad*%
%ADD14C,0.700000*%
%TD*%
%TA.AperFunction,Conductor*%
%ADD15C,0.500000*%
%TD*%
G04 APERTURE END LIST*
D10*
%TO.P,J4,1,Pin_1_1*%
%TO.N,+3.3V*%
X47190000Y-109500000D03*
D11*
%TO.P,J4,2,Pin_2_2*%
%TO.N,/I2C2_SCL*%
X49730000Y-109500000D03*
%TO.P,J4,3,Pin_3_3*%
%TO.N,/I2C2_SDA*%
X52270000Y-109500000D03*
%TO.P,J4,4,Pin_4_4*%
%TO.N,GND*%
X54810000Y-109500000D03*
%TD*%
D10*
%TO.P,J3,1,Pin_1_1*%
%TO.N,+3.3V*%
X56310000Y-79500000D03*
D11*
%TO.P,J3,2,Pin_2_2*%
%TO.N,/USART1_TX*%
X53770000Y-79500000D03*
%TO.P,J3,3,Pin_3_3*%
%TO.N,/USART1_RX*%
X51230000Y-79500000D03*
%TO.P,J3,4,Pin_4_4*%
%TO.N,GND*%
X48690000Y-79500000D03*
%TD*%
D10*
%TO.P,J2,1,Pin_1_1*%
%TO.N,+3.3V*%
X68810000Y-79500000D03*
D11*
%TO.P,J2,2,Pin_2_2*%
%TO.N,/SWDIO*%
X66270000Y-79500000D03*
%TO.P,J2,3,Pin_3_3*%
%TO.N,/SWCLK*%
X63730000Y-79500000D03*
%TO.P,J2,4,Pin_4_4*%
%TO.N,GND*%
X61190000Y-79500000D03*
%TD*%
D12*
%TO.P,J1,SH,Shield_SH*%
%TO.N,unconnected-(J1-Shield-PadSH)*%
X74950000Y-92875000D03*
D13*
%TO.N,unconnected-(J1-Shield-PadSH)_1*%
X71150000Y-92725000D03*
%TO.N,unconnected-(J1-Shield-PadSH)_3*%
X71150000Y-85275000D03*
D12*
%TO.N,unconnected-(J1-Shield-PadSH)_2*%
X74950000Y-85125000D03*
%TD*%
D14*
%TO.N,GND*%
X45000000Y-93500000D03*
X43000000Y-90500000D03*
X40000000Y-97000000D03*
X42000000Y-91500000D03*
X51850000Y-94500000D03*
X52500000Y-91000000D03*
%TO.N,+3.3V*%
X49000000Y-107000000D03*
X51010000Y-106990000D03*
%TO.N,GND*%
X50500000Y-84000000D03*
%TO.N,+3.3V*%
X55000000Y-105000000D03*
X57000000Y-105000000D03*
%TO.N,GND*%
X71000000Y-99000000D03*
X67500000Y-99500000D03*
X66500000Y-99500000D03*
X67000000Y-96000000D03*
X67000000Y-94500000D03*
X40500000Y-84000000D03*
X63000000Y-91000000D03*
X70000000Y-87500000D03*
X74000000Y-96350000D03*
X43000000Y-99000000D03*
X43000000Y-104500000D03*
X56500000Y-96000000D03*
X54000000Y-101000000D03*
X47500000Y-87500000D03*
%TD*%
%TO.N,+3.3V*%
D15*
X51000000Y-107000000D02*
X51010000Y-106990000D01*
X49000000Y-107000000D02*
X51000000Y-107000000D01*
X57000000Y-105000000D02*
X55000000Y-105000000D01*
%TD*%
%TA.AperFunction,Conductor*%
%TO.N,GND*%
G36*
X74003472Y-76700695D02*
G01*
X74306500Y-76717713D01*
X74320301Y-76719268D01*
X74616088Y-76769524D01*
X74629627Y-76772614D01*
X74917930Y-76855673D01*
X74931049Y-76860263D01*
X75208229Y-76975075D01*
X75220743Y-76981101D01*
X75483344Y-77126236D01*
X75495099Y-77133623D01*
X75739779Y-77307233D01*
X75750639Y-77315892D01*
X75974352Y-77515814D01*
X75984185Y-77525647D01*
X76184102Y-77749354D01*
X76192771Y-77760226D01*
X76366370Y-78004890D01*
X76373766Y-78016660D01*
X76447461Y-78150000D01*
X76518894Y-78279249D01*
X76524927Y-78291777D01*
X76639735Y-78568949D01*
X76644328Y-78582074D01*
X76727382Y-78870361D01*
X76730476Y-78883918D01*
X76780730Y-79179690D01*
X76782287Y-79193508D01*
X76799305Y-79496527D01*
X76799500Y-79503480D01*
X76799500Y-109496519D01*
X76799305Y-109503472D01*
X76782287Y-109806491D01*
X76780730Y-109820309D01*
X76730476Y-110116081D01*
X76727382Y-110129638D01*
X76644328Y-110417925D01*
X76639735Y-110431050D01*
X76524927Y-110708222D01*
X76518894Y-110720750D01*
X76373769Y-110983335D01*
X76366370Y-110995109D01*
X76192771Y-111239773D01*
X76184102Y-111250645D01*
X75984185Y-111474352D01*
X75974352Y-111484185D01*
X75750645Y-111684102D01*
X75739773Y-111692771D01*
X75495109Y-111866370D01*
X75483335Y-111873769D01*
X75220750Y-112018894D01*
X75208222Y-112024927D01*
X74931050Y-112139735D01*
X74917925Y-112144328D01*
X74629638Y-112227382D01*
X74616081Y-112230476D01*
X74320309Y-112280730D01*
X74306491Y-112282287D01*
X74003472Y-112299305D01*
X73996519Y-112299500D01*
X39003481Y-112299500D01*
X38996528Y-112299305D01*
X38693508Y-112282287D01*
X38679690Y-112280730D01*
X38383918Y-112230476D01*
X38370361Y-112227382D01*
X38082074Y-112144328D01*
X38068949Y-112139735D01*
X37791777Y-112024927D01*
X37779249Y-112018894D01*
X37516660Y-111873766D01*
X37504895Y-111866373D01*
X37260222Y-111692768D01*
X37249354Y-111684102D01*
X37025647Y-111484185D01*
X37015814Y-111474352D01*
X36815897Y-111250645D01*
X36807233Y-111239779D01*
X36633623Y-110995099D01*
X36626236Y-110983344D01*
X36481101Y-110720743D01*
X36475075Y-110708229D01*
X36360263Y-110431049D01*
X36355671Y-110417925D01*
X36272614Y-110129627D01*
X36269523Y-110116081D01*
X36267300Y-110102997D01*
X36219268Y-109820301D01*
X36217713Y-109806500D01*
X36200695Y-109503472D01*
X36200500Y-109496519D01*
X36200500Y-109393713D01*
X37649500Y-109393713D01*
X37649500Y-109606287D01*
X37659232Y-109667731D01*
X37682735Y-109816127D01*
X37682754Y-109816243D01*
X37738981Y-109989292D01*
X37748444Y-110018414D01*
X37844951Y-110207820D01*
X37969890Y-110379786D01*
X38120213Y-110530109D01*
X38292179Y-110655048D01*
X38292181Y-110655049D01*
X38292184Y-110655051D01*
X38481588Y-110751557D01*
X38683757Y-110817246D01*
X38893713Y-110850500D01*
X38893714Y-110850500D01*
X39106286Y-110850500D01*
X39106287Y-110850500D01*
X39316243Y-110817246D01*
X39518412Y-110751557D01*
X39707816Y-110655051D01*
X39762572Y-110615269D01*
X39879786Y-110530109D01*
X39879788Y-110530106D01*
X39879792Y-110530104D01*
X40030104Y-110379792D01*
X40030106Y-110379788D01*
X40030109Y-110379786D01*
X40155048Y-110207820D01*
X40155047Y-110207820D01*
X40155051Y-110207816D01*
X40251557Y-110018412D01*
X40317246Y-109816243D01*
X40350500Y-109606287D01*
X40350500Y-109393713D01*
X40317246Y-109183757D01*
X40251557Y-108981588D01*
X40155051Y-108792184D01*
X40069505Y-108674439D01*
X40069504Y-108674436D01*
X40030109Y-108620214D01*
X40030105Y-108620209D01*
X40015027Y-108605131D01*
X46039500Y-108605131D01*
X46039500Y-110394856D01*
X46039502Y-110394882D01*
X46042413Y-110419987D01*
X46042415Y-110419991D01*
X46087793Y-110522764D01*
X46087794Y-110522765D01*
X46167235Y-110602206D01*
X46270009Y-110647585D01*
X46295135Y-110650500D01*
X48084864Y-110650499D01*
X48084879Y-110650497D01*
X48084882Y-110650497D01*
X48109987Y-110647586D01*
X48109988Y-110647585D01*
X48109991Y-110647585D01*
X48212765Y-110602206D01*
X48292206Y-110522765D01*
X48337585Y-110419991D01*
X48340500Y-110394865D01*
X48340499Y-109657125D01*
X48360183Y-109590089D01*
X48412987Y-109544334D01*
X48482146Y-109534390D01*
X48545702Y-109563415D01*
X48583476Y-109622193D01*
X48586972Y-109637729D01*
X48607829Y-109769410D01*
X48663787Y-109941636D01*
X48663788Y-109941639D01*
X48746006Y-110102997D01*
X48852441Y-110249494D01*
X48852445Y-110249499D01*
X48980500Y-110377554D01*
X48980505Y-110377558D01*
X49104565Y-110467692D01*
X49127006Y-110483996D01*
X49232484Y-110537740D01*
X49288360Y-110566211D01*
X49288363Y-110566212D01*
X49374476Y-110594191D01*
X49460591Y-110622171D01*
X49543429Y-110635291D01*
X49639449Y-110650500D01*
X49639454Y-110650500D01*
X49820551Y-110650500D01*
X49907259Y-110636765D01*
X49999409Y-110622171D01*
X50171639Y-110566211D01*
X50332994Y-110483996D01*
X50479501Y-110377553D01*
X50607553Y-110249501D01*
X50713996Y-110102994D01*
X50796211Y-109941639D01*
X50852171Y-109769409D01*
X50868275Y-109667731D01*
X50877527Y-109609321D01*
X50907456Y-109546186D01*
X50966768Y-109509255D01*
X51036630Y-109510253D01*
X51094863Y-109548863D01*
X51122473Y-109609321D01*
X51147829Y-109769410D01*
X51203787Y-109941636D01*
X51203788Y-109941639D01*
X51286006Y-110102997D01*
X51392441Y-110249494D01*
X51392445Y-110249499D01*
X51520500Y-110377554D01*
X51520505Y-110377558D01*
X51644565Y-110467692D01*
X51667006Y-110483996D01*
X51772484Y-110537740D01*
X51828360Y-110566211D01*
X51828363Y-110566212D01*
X51914476Y-110594191D01*
X52000591Y-110622171D01*
X52083429Y-110635291D01*
X52179449Y-110650500D01*
X52179454Y-110650500D01*
X52360551Y-110650500D01*
X52447259Y-110636765D01*
X52539409Y-110622171D01*
X52711639Y-110566211D01*
X52872994Y-110483996D01*
X52961095Y-110419987D01*
X53019495Y-110377558D01*
X53019497Y-110377555D01*
X53019501Y-110377553D01*
X53147553Y-110249501D01*
X53253996Y-110102994D01*
X53321090Y-109971314D01*
X53369065Y-109920519D01*
X53436886Y-109903724D01*
X53503021Y-109926262D01*
X53546472Y-109980977D01*
X53549506Y-109989292D01*
X53558904Y-110018217D01*
X53655375Y-110207550D01*
X53694728Y-110261716D01*
X54327037Y-109629408D01*
X54344075Y-109692993D01*
X54409901Y-109807007D01*
X54502993Y-109900099D01*
X54617007Y-109965925D01*
X54680590Y-109982962D01*
X54048282Y-110615269D01*
X54048282Y-110615270D01*
X54102449Y-110654624D01*
X54291782Y-110751095D01*
X54493870Y-110816757D01*
X54703754Y-110850000D01*
X54916246Y-110850000D01*
X55126127Y-110816757D01*
X55126130Y-110816757D01*
X55328217Y-110751095D01*
X55517554Y-110654622D01*
X55571716Y-110615270D01*
X55571717Y-110615270D01*
X54939408Y-109982962D01*
X55002993Y-109965925D01*
X55117007Y-109900099D01*
X55210099Y-109807007D01*
X55275925Y-109692993D01*
X55292962Y-109629409D01*
X55925270Y-110261717D01*
X55925270Y-110261716D01*
X55964622Y-110207554D01*
X56061095Y-110018217D01*
X56126757Y-109816130D01*
X56126757Y-109816127D01*
X56160000Y-109606246D01*
X56160000Y-109393753D01*
X56159994Y-109393713D01*
X72649500Y-109393713D01*
X72649500Y-109606287D01*
X72659232Y-109667731D01*
X72682735Y-109816127D01*
X72682754Y-109816243D01*
X72738981Y-109989292D01*
X72748444Y-110018414D01*
X72844951Y-110207820D01*
X72969890Y-110379786D01*
X73120213Y-110530109D01*
X73292179Y-110655048D01*
X73292181Y-110655049D01*
X73292184Y-110655051D01*
X73481588Y-110751557D01*
X73683757Y-110817246D01*
X73893713Y-110850500D01*
X73893714Y-110850500D01*
X74106286Y-110850500D01*
X74106287Y-110850500D01*
X74316243Y-110817246D01*
X74518412Y-110751557D01*
X74707816Y-110655051D01*
X74762572Y-110615269D01*
X74879786Y-110530109D01*
X74879788Y-110530106D01*
X74879792Y-110530104D01*
X75030104Y-110379792D01*
X75030106Y-110379788D01*
X75030109Y-110379786D01*
X75155048Y-110207820D01*
X75155047Y-110207820D01*
X75155051Y-110207816D01*
X75251557Y-110018412D01*
X75317246Y-109816243D01*
X75350500Y-109606287D01*
X75350500Y-109393713D01*
X75317246Y-109183757D01*
X75251557Y-108981588D01*
X75155051Y-108792184D01*
X75155049Y-108792181D01*
X75155048Y-108792179D01*
X75030109Y-108620213D01*
X74879786Y-108469890D01*
X74707820Y-108344951D01*
X74518414Y-108248444D01*
X74518413Y-108248443D01*
X74518412Y-108248443D01*
X74316243Y-108182754D01*
X74316241Y-108182753D01*
X74316240Y-108182753D01*
X74154957Y-108157208D01*
X74106287Y-108149500D01*
X73893713Y-108149500D01*
X73845042Y-108157208D01*
X73683760Y-108182753D01*
X73481585Y-108248444D01*
X73292179Y-108344951D01*
X73120213Y-108469890D01*
X72969890Y-108620213D01*
X72844951Y-108792179D01*
X72748444Y-108981585D01*
X72682753Y-109183760D01*
X72681291Y-109192993D01*
X72649500Y-109393713D01*
X56159994Y-109393713D01*
X56126757Y-109183872D01*
X56126757Y-109183869D01*
X56061095Y-108981782D01*
X55964624Y-108792449D01*
X55925270Y-108738282D01*
X55925269Y-108738282D01*
X55292962Y-109370590D01*
X55275925Y-109307007D01*
X55210099Y-109192993D01*
X55117007Y-109099901D01*
X55002993Y-109034075D01*
X54939409Y-109017037D01*
X55571716Y-108384728D01*
X55517550Y-108345375D01*
X55328217Y-108248904D01*
X55126129Y-108183242D01*
X54916246Y-108150000D01*
X54703754Y-108150000D01*
X54493872Y-108183242D01*
X54493869Y-108183242D01*
X54291782Y-108248904D01*
X54102439Y-108345380D01*
X54048282Y-108384727D01*
X54048282Y-108384728D01*
X54680591Y-109017037D01*
X54617007Y-109034075D01*
X54502993Y-109099901D01*
X54409901Y-109192993D01*
X54344075Y-109307007D01*
X54327037Y-109370591D01*
X53694728Y-108738282D01*
X53694727Y-108738282D01*
X53655380Y-108792439D01*
X53558905Y-108981781D01*
X53549506Y-109010708D01*
X53510068Y-109068383D01*
X53445709Y-109095581D01*
X53376862Y-109083666D01*
X53325387Y-109036421D01*
X53321090Y-109028684D01*
X53297091Y-108981585D01*
X53253996Y-108897006D01*
X53240396Y-108878287D01*
X53147558Y-108750505D01*
X53147554Y-108750500D01*
X53019499Y-108622445D01*
X53019494Y-108622441D01*
X52895432Y-108532305D01*
X52872996Y-108516005D01*
X52711639Y-108433788D01*
X52711636Y-108433787D01*
X52539410Y-108377829D01*
X52360551Y-108349500D01*
X52360546Y-108349500D01*
X52179454Y-108349500D01*
X52179449Y-108349500D01*
X52000589Y-108377829D01*
X51828363Y-108433787D01*
X51828360Y-108433788D01*
X51667002Y-108516006D01*
X51520505Y-108622441D01*
X51520500Y-108622445D01*
X51392445Y-108750500D01*
X51392441Y-108750505D01*
X51286006Y-108897002D01*
X51203788Y-109058360D01*
X51203787Y-109058363D01*
X51147829Y-109230589D01*
X51122473Y-109390678D01*
X51092544Y-109453813D01*
X51033232Y-109490744D01*
X50963369Y-109489746D01*
X50905137Y-109451136D01*
X50877527Y-109390678D01*
X50863740Y-109303639D01*
X50852171Y-109230591D01*
X50809708Y-109099901D01*
X50796212Y-109058363D01*
X50796211Y-109058360D01*
X50757091Y-108981585D01*
X50713996Y-108897006D01*
X50700396Y-108878287D01*
X50607558Y-108750505D01*
X50607554Y-108750500D01*
X50479499Y-108622445D01*
X50479494Y-108622441D01*
X50332997Y-108516006D01*
X50332996Y-108516005D01*
X50332994Y-108516004D01*
X50256906Y-108477235D01*
X50171639Y-108433788D01*
X50171636Y-108433787D01*
X49999410Y-108377829D01*
X49820551Y-108349500D01*
X49820546Y-108349500D01*
X49639454Y-108349500D01*
X49639449Y-108349500D01*
X49460589Y-108377829D01*
X49288363Y-108433787D01*
X49288360Y-108433788D01*
X49127002Y-108516006D01*
X48980505Y-108622441D01*
X48980500Y-108622445D01*
X48852445Y-108750500D01*
X48852441Y-108750505D01*
X48746006Y-108897002D01*
X48663788Y-109058360D01*
X48663787Y-109058363D01*
X48607829Y-109230589D01*
X48586972Y-109362271D01*
X48557042Y-109425405D01*
X48497731Y-109462336D01*
X48427868Y-109461338D01*
X48369636Y-109422728D01*
X48341522Y-109358764D01*
X48340499Y-109342872D01*
X48340499Y-108605143D01*
X48340499Y-108605136D01*
X48340497Y-108605117D01*
X48337586Y-108580012D01*
X48337585Y-108580010D01*
X48337585Y-108580009D01*
X48292206Y-108477235D01*
X48212765Y-108397794D01*
X48212763Y-108397793D01*
X48109992Y-108352415D01*
X48084865Y-108349500D01*
X46295143Y-108349500D01*
X46295117Y-108349502D01*
X46270012Y-108352413D01*
X46270008Y-108352415D01*
X46167235Y-108397793D01*
X46087794Y-108477234D01*
X46042415Y-108580006D01*
X46042415Y-108580008D01*
X46039500Y-108605131D01*
X40015027Y-108605131D01*
X39879786Y-108469890D01*
X39707820Y-108344951D01*
X39518414Y-108248444D01*
X39518413Y-108248443D01*
X39518412Y-108248443D01*
X39316243Y-108182754D01*
X39316241Y-108182753D01*
X39316240Y-108182753D01*
X39154957Y-108157208D01*
X39106287Y-108149500D01*
X38893713Y-108149500D01*
X38845042Y-108157208D01*
X38683760Y-108182753D01*
X38481585Y-108248444D01*
X38292179Y-108344951D01*
X38120213Y-108469890D01*
X37969890Y-108620213D01*
X37844951Y-108792179D01*
X37748444Y-108981585D01*
X37682753Y-109183760D01*
X37681291Y-109192993D01*
X37649500Y-109393713D01*
X36200500Y-109393713D01*
X36200500Y-107064071D01*
X48349499Y-107064071D01*
X48374497Y-107189738D01*
X48374499Y-107189744D01*
X48423533Y-107308124D01*
X48423538Y-107308133D01*
X48494723Y-107414668D01*
X48494726Y-107414672D01*
X48585327Y-107505273D01*
X48585331Y-107505276D01*
X48691866Y-107576461D01*
X48691872Y-107576464D01*
X48691873Y-107576465D01*
X48810256Y-107625501D01*
X48810260Y-107625501D01*
X48810261Y-107625502D01*
X48935928Y-107650500D01*
X48935931Y-107650500D01*
X49064071Y-107650500D01*
X49148615Y-107633682D01*
X49189744Y-107625501D01*
X49308127Y-107576465D01*
X49315712Y-107571396D01*
X49382389Y-107550520D01*
X49384601Y-107550500D01*
X50640945Y-107550500D01*
X50696162Y-107564333D01*
X50696245Y-107564134D01*
X50697589Y-107564690D01*
X50699406Y-107565146D01*
X50701872Y-107566464D01*
X50701873Y-107566465D01*
X50820256Y-107615501D01*
X50820260Y-107615501D01*
X50820261Y-107615502D01*
X50945928Y-107640500D01*
X50945931Y-107640500D01*
X51074071Y-107640500D01*
X51158615Y-107623682D01*
X51199744Y-107615501D01*
X51318127Y-107566465D01*
X51424669Y-107495276D01*
X51515276Y-107404669D01*
X51586465Y-107298127D01*
X51635501Y-107179744D01*
X51643682Y-107138615D01*
X51660500Y-107054071D01*
X51660500Y-106925928D01*
X51635502Y-106800261D01*
X51635501Y-106800260D01*
X51635501Y-106800256D01*
X51586465Y-106681873D01*
X51586464Y-106681872D01*
X51586461Y-106681866D01*
X51515276Y-106575331D01*
X51515273Y-106575327D01*
X51424672Y-106484726D01*
X51424668Y-106484723D01*
X51318133Y-106413538D01*
X51318124Y-106413533D01*
X51199744Y-106364499D01*
X51199738Y-106364497D01*
X51074071Y-106339500D01*
X51074069Y-106339500D01*
X50945931Y-106339500D01*
X50945929Y-106339500D01*
X50820261Y-106364497D01*
X50820255Y-106364499D01*
X50701874Y-106413534D01*
X50701870Y-106413536D01*
X50679323Y-106428602D01*
X50612646Y-106449480D01*
X50610433Y-106449500D01*
X49384601Y-106449500D01*
X49317562Y-106429815D01*
X49315747Y-106428626D01*
X49308127Y-106423535D01*
X49308124Y-106423533D01*
X49308123Y-106423533D01*
X49189744Y-106374499D01*
X49189738Y-106374497D01*
X49064071Y-106349500D01*
X49064069Y-106349500D01*
X48935931Y-106349500D01*
X48935929Y-106349500D01*
X48810261Y-106374497D01*
X48810255Y-106374499D01*
X48691875Y-106423533D01*
X48691866Y-106423538D01*
X48585331Y-106494723D01*
X48585327Y-106494726D01*
X48494726Y-106585327D01*
X48494723Y-106585331D01*
X48423538Y-106691866D01*
X48423533Y-106691875D01*
X48374499Y-106810255D01*
X48374497Y-106810261D01*
X48349500Y-106935928D01*
X48349500Y-106935931D01*
X48349500Y-107064069D01*
X48349500Y-107064071D01*
X48349499Y-107064071D01*
X36200500Y-107064071D01*
X36200500Y-105064071D01*
X54349499Y-105064071D01*
X54374497Y-105189738D01*
X54374499Y-105189744D01*
X54423533Y-105308124D01*
X54423538Y-105308133D01*
X54494723Y-105414668D01*
X54494726Y-105414672D01*
X54585327Y-105505273D01*
X54585331Y-105505276D01*
X54691866Y-105576461D01*
X54691872Y-105576464D01*
X54691873Y-105576465D01*
X54810256Y-105625501D01*
X54810260Y-105625501D01*
X54810261Y-105625502D01*
X54935928Y-105650500D01*
X54935931Y-105650500D01*
X55064071Y-105650500D01*
X55148615Y-105633682D01*
X55189744Y-105625501D01*
X55308127Y-105576465D01*
X55315712Y-105571396D01*
X55382389Y-105550520D01*
X55384601Y-105550500D01*
X56615399Y-105550500D01*
X56682438Y-105570185D01*
X56684252Y-105571373D01*
X56691873Y-105576465D01*
X56810256Y-105625501D01*
X56810260Y-105625501D01*
X56810261Y-105625502D01*
X56935928Y-105650500D01*
X56935931Y-105650500D01*
X57064071Y-105650500D01*
X57148615Y-105633682D01*
X57189744Y-105625501D01*
X57308127Y-105576465D01*
X57414669Y-105505276D01*
X57505276Y-105414669D01*
X57576465Y-105308127D01*
X57625501Y-105189744D01*
X57650500Y-105064069D01*
X57650500Y-104935931D01*
X57650500Y-104935928D01*
X57625502Y-104810261D01*
X57625501Y-104810260D01*
X57625501Y-104810256D01*
X57576465Y-104691873D01*
X57576464Y-104691872D01*
X57576461Y-104691866D01*
X57505276Y-104585331D01*
X57505273Y-104585327D01*
X57414672Y-104494726D01*
X57414668Y-104494723D01*
X57308133Y-104423538D01*
X57308124Y-104423533D01*
X57189744Y-104374499D01*
X57189738Y-104374497D01*
X57064071Y-104349500D01*
X57064069Y-104349500D01*
X56935931Y-104349500D01*
X56935929Y-104349500D01*
X56810261Y-104374497D01*
X56810255Y-104374499D01*
X56691876Y-104423533D01*
X56691873Y-104423534D01*
X56691873Y-104423535D01*
X56684287Y-104428603D01*
X56617611Y-104449480D01*
X56615399Y-104449500D01*
X55384601Y-104449500D01*
X55317562Y-104429815D01*
X55315747Y-104428626D01*
X55308127Y-104423535D01*
X55308124Y-104423533D01*
X55308123Y-104423533D01*
X55189744Y-104374499D01*
X55189738Y-104374497D01*
X55064071Y-104349500D01*
X55064069Y-104349500D01*
X54935931Y-104349500D01*
X54935929Y-104349500D01*
X54810261Y-104374497D01*
X54810255Y-104374499D01*
X54691875Y-104423533D01*
X54691866Y-104423538D01*
X54585331Y-104494723D01*
X54585327Y-104494726D01*
X54494726Y-104585327D01*
X54494723Y-104585331D01*
X54423538Y-104691866D01*
X54423533Y-104691875D01*
X54374499Y-104810255D01*
X54374497Y-104810261D01*
X54349500Y-104935928D01*
X54349500Y-104935931D01*
X54349500Y-105064069D01*
X54349500Y-105064071D01*
X54349499Y-105064071D01*
X36200500Y-105064071D01*
X36200500Y-92623992D01*
X69849500Y-92623992D01*
X69849500Y-92826007D01*
X69888907Y-93024119D01*
X69888909Y-93024127D01*
X69966212Y-93210752D01*
X69966217Y-93210762D01*
X70078441Y-93378718D01*
X70221281Y-93521558D01*
X70389237Y-93633782D01*
X70389241Y-93633784D01*
X70389244Y-93633786D01*
X70575873Y-93711091D01*
X70773992Y-93750499D01*
X70773996Y-93750500D01*
X70773997Y-93750500D01*
X71526004Y-93750500D01*
X71526005Y-93750499D01*
X71724127Y-93711091D01*
X71910756Y-93633786D01*
X72078718Y-93521558D01*
X72221558Y-93378718D01*
X72333786Y-93210756D01*
X72411091Y-93024127D01*
X72450500Y-92826003D01*
X72450500Y-92788766D01*
X73749500Y-92788766D01*
X73749500Y-92961233D01*
X73783143Y-93130366D01*
X73783146Y-93130378D01*
X73849138Y-93289698D01*
X73849145Y-93289711D01*
X73944954Y-93433098D01*
X73944957Y-93433102D01*
X74066897Y-93555042D01*
X74066901Y-93555045D01*
X74210288Y-93650854D01*
X74210301Y-93650861D01*
X74355708Y-93711090D01*
X74369626Y-93716855D01*
X74538766Y-93750499D01*
X74538769Y-93750500D01*
X74538771Y-93750500D01*
X75361231Y-93750500D01*
X75361232Y-93750499D01*
X75530374Y-93716855D01*
X75689705Y-93650858D01*
X75833099Y-93555045D01*
X75955045Y-93433099D01*
X76050858Y-93289705D01*
X76116855Y-93130374D01*
X76150500Y-92961229D01*
X76150500Y-92788771D01*
X76150500Y-92788768D01*
X76150499Y-92788766D01*
X76116856Y-92619633D01*
X76116855Y-92619626D01*
X76116853Y-92619621D01*
X76050861Y-92460301D01*
X76050854Y-92460288D01*
X75955045Y-92316901D01*
X75955042Y-92316897D01*
X75833102Y-92194957D01*
X75833098Y-92194954D01*
X75689711Y-92099145D01*
X75689698Y-92099138D01*
X75530378Y-92033146D01*
X75530366Y-92033143D01*
X75361232Y-91999500D01*
X75361229Y-91999500D01*
X74538771Y-91999500D01*
X74538768Y-91999500D01*
X74369633Y-92033143D01*
X74369621Y-92033146D01*
X74210301Y-92099138D01*
X74210288Y-92099145D01*
X74066901Y-92194954D01*
X74066897Y-92194957D01*
X73944957Y-92316897D01*
X73944954Y-92316901D01*
X73849145Y-92460288D01*
X73849138Y-92460301D01*
X73783146Y-92619621D01*
X73783143Y-92619633D01*
X73749500Y-92788766D01*
X72450500Y-92788766D01*
X72450500Y-92623997D01*
X72411091Y-92425873D01*
X72368354Y-92322697D01*
X72360885Y-92253227D01*
X72392160Y-92190748D01*
X72435457Y-92160685D01*
X72531811Y-92120775D01*
X72646542Y-92044114D01*
X72744114Y-91946542D01*
X72820775Y-91831811D01*
X72827236Y-91816214D01*
X72873578Y-91704332D01*
X72873580Y-91704328D01*
X72887975Y-91631959D01*
X72900500Y-91568995D01*
X72900500Y-91431004D01*
X72873581Y-91295677D01*
X72873580Y-91295676D01*
X72873580Y-91295672D01*
X72873578Y-91295667D01*
X72820778Y-91168195D01*
X72820771Y-91168182D01*
X72744114Y-91053458D01*
X72744111Y-91053454D01*
X72646545Y-90955888D01*
X72646541Y-90955885D01*
X72531817Y-90879228D01*
X72531804Y-90879221D01*
X72404332Y-90826421D01*
X72404322Y-90826418D01*
X72268995Y-90799500D01*
X72268993Y-90799500D01*
X72131007Y-90799500D01*
X72131005Y-90799500D01*
X71995677Y-90826418D01*
X71995667Y-90826421D01*
X71868195Y-90879221D01*
X71868182Y-90879228D01*
X71753458Y-90955885D01*
X71753454Y-90955888D01*
X71655888Y-91053454D01*
X71655885Y-91053458D01*
X71579228Y-91168182D01*
X71579221Y-91168195D01*
X71526421Y-91295667D01*
X71526418Y-91295677D01*
X71499500Y-91431004D01*
X71499500Y-91575085D01*
X71496710Y-91575085D01*
X71485942Y-91631959D01*
X71437892Y-91682683D01*
X71375541Y-91699500D01*
X70773992Y-91699500D01*
X70575880Y-91738907D01*
X70575872Y-91738909D01*
X70389247Y-91816212D01*
X70389237Y-91816217D01*
X70221281Y-91928441D01*
X70078441Y-92071281D01*
X69966217Y-92239237D01*
X69966212Y-92239247D01*
X69888909Y-92425872D01*
X69888907Y-92425880D01*
X69849500Y-92623992D01*
X36200500Y-92623992D01*
X36200500Y-88568995D01*
X37469499Y-88568995D01*
X37496418Y-88704322D01*
X37496421Y-88704332D01*
X37549221Y-88831804D01*
X37549228Y-88831817D01*
X37625885Y-88946541D01*
X37625888Y-88946545D01*
X37723454Y-89044111D01*
X37723458Y-89044114D01*
X37838182Y-89120771D01*
X37838195Y-89120778D01*
X37965667Y-89173578D01*
X37965672Y-89173580D01*
X37965676Y-89173580D01*
X37965677Y-89173581D01*
X38101004Y-89200500D01*
X38101007Y-89200500D01*
X38238995Y-89200500D01*
X38330041Y-89182389D01*
X38374328Y-89173580D01*
X38501811Y-89120775D01*
X38616542Y-89044114D01*
X38714114Y-88946542D01*
X38790775Y-88831811D01*
X38843580Y-88704328D01*
X38870500Y-88568993D01*
X38870500Y-88431007D01*
X38870500Y-88431004D01*
X38843581Y-88295677D01*
X38843580Y-88295676D01*
X38843580Y-88295672D01*
X38843578Y-88295667D01*
X38790778Y-88168195D01*
X38790771Y-88168182D01*
X38714114Y-88053458D01*
X38714111Y-88053454D01*
X38616545Y-87955888D01*
X38616541Y-87955885D01*
X38501817Y-87879228D01*
X38501804Y-87879221D01*
X38374332Y-87826421D01*
X38374322Y-87826418D01*
X38238995Y-87799500D01*
X38238993Y-87799500D01*
X38101007Y-87799500D01*
X38101005Y-87799500D01*
X37965677Y-87826418D01*
X37965667Y-87826421D01*
X37838195Y-87879221D01*
X37838182Y-87879228D01*
X37723458Y-87955885D01*
X37723454Y-87955888D01*
X37625888Y-88053454D01*
X37625885Y-88053458D01*
X37549228Y-88168182D01*
X37549221Y-88168195D01*
X37496421Y-88295667D01*
X37496418Y-88295677D01*
X37469500Y-88431004D01*
X37469500Y-88431007D01*
X37469500Y-88568993D01*
X37469500Y-88568995D01*
X37469499Y-88568995D01*
X36200500Y-88568995D01*
X36200500Y-85568995D01*
X37469499Y-85568995D01*
X37496418Y-85704322D01*
X37496421Y-85704332D01*
X37549221Y-85831804D01*
X37549228Y-85831817D01*
X37625885Y-85946541D01*
X37625888Y-85946545D01*
X37723454Y-86044111D01*
X37723458Y-86044114D01*
X37838182Y-86120771D01*
X37838195Y-86120778D01*
X37952640Y-86168182D01*
X37965672Y-86173580D01*
X37965676Y-86173580D01*
X37965677Y-86173581D01*
X38101004Y-86200500D01*
X38101007Y-86200500D01*
X38238995Y-86200500D01*
X38330041Y-86182389D01*
X38374328Y-86173580D01*
X38501811Y-86120775D01*
X38616542Y-86044114D01*
X38714114Y-85946542D01*
X38790775Y-85831811D01*
X38843580Y-85704328D01*
X38869480Y-85574123D01*
X38870500Y-85568995D01*
X38870500Y-85431004D01*
X38843581Y-85295677D01*
X38843580Y-85295676D01*
X38843580Y-85295672D01*
X38810313Y-85215357D01*
X38793179Y-85173992D01*
X69849500Y-85173992D01*
X69849500Y-85376007D01*
X69888907Y-85574119D01*
X69888909Y-85574127D01*
X69966212Y-85760752D01*
X69966217Y-85760762D01*
X70078441Y-85928718D01*
X70221281Y-86071558D01*
X70389237Y-86183782D01*
X70389241Y-86183784D01*
X70389244Y-86183786D01*
X70575873Y-86261091D01*
X70749700Y-86295667D01*
X70773992Y-86300499D01*
X70773996Y-86300500D01*
X70773997Y-86300500D01*
X71375541Y-86300500D01*
X71442580Y-86320185D01*
X71488335Y-86372989D01*
X71496980Y-86424915D01*
X71499500Y-86424915D01*
X71499500Y-86431007D01*
X71499500Y-86568993D01*
X71499500Y-86568995D01*
X71499499Y-86568995D01*
X71526418Y-86704322D01*
X71526421Y-86704332D01*
X71579221Y-86831804D01*
X71579228Y-86831817D01*
X71655885Y-86946541D01*
X71655888Y-86946545D01*
X71753454Y-87044111D01*
X71753458Y-87044114D01*
X71868182Y-87120771D01*
X71868195Y-87120778D01*
X71995667Y-87173578D01*
X71995672Y-87173580D01*
X71995676Y-87173580D01*
X71995677Y-87173581D01*
X72131004Y-87200500D01*
X72131007Y-87200500D01*
X72268995Y-87200500D01*
X72360041Y-87182389D01*
X72404328Y-87173580D01*
X72531811Y-87120775D01*
X72646542Y-87044114D01*
X72744114Y-86946542D01*
X72820775Y-86831811D01*
X72873580Y-86704328D01*
X72900500Y-86568993D01*
X72900500Y-86431007D01*
X72900500Y-86431004D01*
X72873581Y-86295677D01*
X72873580Y-86295676D01*
X72873580Y-86295672D01*
X72827236Y-86183787D01*
X72820778Y-86168195D01*
X72820771Y-86168182D01*
X72744114Y-86053458D01*
X72744111Y-86053454D01*
X72646545Y-85955888D01*
X72646541Y-85955885D01*
X72531817Y-85879228D01*
X72531804Y-85879221D01*
X72435462Y-85839316D01*
X72381058Y-85795476D01*
X72358993Y-85729182D01*
X72368351Y-85677307D01*
X72411091Y-85574127D01*
X72450500Y-85376003D01*
X72450500Y-85173997D01*
X72449343Y-85168182D01*
X72427203Y-85056870D01*
X72423602Y-85038766D01*
X73749500Y-85038766D01*
X73749500Y-85211233D01*
X73783143Y-85380366D01*
X73783146Y-85380378D01*
X73849138Y-85539698D01*
X73849145Y-85539711D01*
X73944954Y-85683098D01*
X73944957Y-85683102D01*
X74066897Y-85805042D01*
X74066901Y-85805045D01*
X74210288Y-85900854D01*
X74210301Y-85900861D01*
X74320586Y-85946542D01*
X74369626Y-85966855D01*
X74538766Y-86000499D01*
X74538769Y-86000500D01*
X74538771Y-86000500D01*
X75361231Y-86000500D01*
X75361232Y-86000499D01*
X75530374Y-85966855D01*
X75689705Y-85900858D01*
X75833099Y-85805045D01*
X75955045Y-85683099D01*
X76050858Y-85539705D01*
X76116855Y-85380374D01*
X76150500Y-85211229D01*
X76150500Y-85038771D01*
X76150500Y-85038768D01*
X76150499Y-85038766D01*
X76137989Y-84975873D01*
X76116855Y-84869626D01*
X76083557Y-84789237D01*
X76050861Y-84710301D01*
X76050854Y-84710288D01*
X75955045Y-84566901D01*
X75955042Y-84566897D01*
X75833102Y-84444957D01*
X75833098Y-84444954D01*
X75689711Y-84349145D01*
X75689698Y-84349138D01*
X75530378Y-84283146D01*
X75530366Y-84283143D01*
X75361232Y-84249500D01*
X75361229Y-84249500D01*
X74538771Y-84249500D01*
X74538768Y-84249500D01*
X74369633Y-84283143D01*
X74369621Y-84283146D01*
X74210301Y-84349138D01*
X74210288Y-84349145D01*
X74066901Y-84444954D01*
X74066897Y-84444957D01*
X73944957Y-84566897D01*
X73944954Y-84566901D01*
X73849145Y-84710288D01*
X73849138Y-84710301D01*
X73783146Y-84869621D01*
X73783143Y-84869633D01*
X73749500Y-85038766D01*
X72423602Y-85038766D01*
X72411092Y-84975880D01*
X72411091Y-84975873D01*
X72333786Y-84789244D01*
X72333784Y-84789241D01*
X72333782Y-84789237D01*
X72221558Y-84621281D01*
X72078718Y-84478441D01*
X71910762Y-84366217D01*
X71910752Y-84366212D01*
X71724127Y-84288909D01*
X71724119Y-84288907D01*
X71526007Y-84249500D01*
X71526003Y-84249500D01*
X70773997Y-84249500D01*
X70773992Y-84249500D01*
X70575880Y-84288907D01*
X70575872Y-84288909D01*
X70389247Y-84366212D01*
X70389237Y-84366217D01*
X70221281Y-84478441D01*
X70078441Y-84621281D01*
X69966217Y-84789237D01*
X69966212Y-84789247D01*
X69888909Y-84975872D01*
X69888907Y-84975880D01*
X69849500Y-85173992D01*
X38793179Y-85173992D01*
X38790778Y-85168195D01*
X38790771Y-85168182D01*
X38714114Y-85053458D01*
X38714111Y-85053454D01*
X38616545Y-84955888D01*
X38616541Y-84955885D01*
X38501817Y-84879228D01*
X38501804Y-84879221D01*
X38374332Y-84826421D01*
X38374322Y-84826418D01*
X38238995Y-84799500D01*
X38238993Y-84799500D01*
X38101007Y-84799500D01*
X38101005Y-84799500D01*
X37965677Y-84826418D01*
X37965667Y-84826421D01*
X37838195Y-84879221D01*
X37838182Y-84879228D01*
X37723458Y-84955885D01*
X37723454Y-84955888D01*
X37625888Y-85053454D01*
X37625885Y-85053458D01*
X37549228Y-85168182D01*
X37549221Y-85168195D01*
X37496421Y-85295667D01*
X37496418Y-85295677D01*
X37469500Y-85431004D01*
X37469500Y-85431007D01*
X37469500Y-85568993D01*
X37469500Y-85568995D01*
X37469499Y-85568995D01*
X36200500Y-85568995D01*
X36200500Y-79503480D01*
X36200695Y-79496527D01*
X36206469Y-79393713D01*
X37649500Y-79393713D01*
X37649500Y-79606286D01*
X37682735Y-79816127D01*
X37682754Y-79816243D01*
X37738982Y-79989295D01*
X37748444Y-80018414D01*
X37844951Y-80207820D01*
X37969890Y-80379786D01*
X38120213Y-80530109D01*
X38292179Y-80655048D01*
X38292181Y-80655049D01*
X38292184Y-80655051D01*
X38481588Y-80751557D01*
X38683757Y-80817246D01*
X38893713Y-80850500D01*
X38893714Y-80850500D01*
X39106286Y-80850500D01*
X39106287Y-80850500D01*
X39316243Y-80817246D01*
X39518412Y-80751557D01*
X39707816Y-80655051D01*
X39762572Y-80615269D01*
X39879786Y-80530109D01*
X39879788Y-80530106D01*
X39879792Y-80530104D01*
X40030104Y-80379792D01*
X40030106Y-80379788D01*
X40030109Y-80379786D01*
X40155048Y-80207820D01*
X40155047Y-80207820D01*
X40155051Y-80207816D01*
X40251557Y-80018412D01*
X40317246Y-79816243D01*
X40350500Y-79606287D01*
X40350500Y-79393753D01*
X47340000Y-79393753D01*
X47340000Y-79606246D01*
X47373242Y-79816127D01*
X47373242Y-79816130D01*
X47438904Y-80018217D01*
X47535375Y-80207550D01*
X47574728Y-80261716D01*
X48207037Y-79629408D01*
X48224075Y-79692993D01*
X48289901Y-79807007D01*
X48382993Y-79900099D01*
X48497007Y-79965925D01*
X48560590Y-79982962D01*
X47928282Y-80615269D01*
X47928282Y-80615270D01*
X47982449Y-80654624D01*
X48171782Y-80751095D01*
X48373870Y-80816757D01*
X48583754Y-80850000D01*
X48796246Y-80850000D01*
X49006127Y-80816757D01*
X49006130Y-80816757D01*
X49208217Y-80751095D01*
X49397554Y-80654622D01*
X49451716Y-80615270D01*
X49451717Y-80615270D01*
X48819408Y-79982962D01*
X48882993Y-79965925D01*
X48997007Y-79900099D01*
X49090099Y-79807007D01*
X49155925Y-79692993D01*
X49172962Y-79629409D01*
X49805270Y-80261717D01*
X49805270Y-80261716D01*
X49844622Y-80207554D01*
X49941095Y-80018217D01*
X49950492Y-79989295D01*
X49989928Y-79931618D01*
X50054286Y-79904419D01*
X50123133Y-79916331D01*
X50174610Y-79963574D01*
X50178908Y-79971314D01*
X50246004Y-80102995D01*
X50352441Y-80249494D01*
X50352445Y-80249499D01*
X50480500Y-80377554D01*
X50480505Y-80377558D01*
X50608287Y-80470396D01*
X50627006Y-80483996D01*
X50732484Y-80537740D01*
X50788360Y-80566211D01*
X50788363Y-80566212D01*
X50874476Y-80594191D01*
X50960591Y-80622171D01*
X51043429Y-80635291D01*
X51139449Y-80650500D01*
X51139454Y-80650500D01*
X51320551Y-80650500D01*
X51407259Y-80636765D01*
X51499409Y-80622171D01*
X51671639Y-80566211D01*
X51832994Y-80483996D01*
X51979501Y-80377553D01*
X52107553Y-80249501D01*
X52213996Y-80102994D01*
X52296211Y-79941639D01*
X52352171Y-79769409D01*
X52373027Y-79637729D01*
X52377527Y-79609321D01*
X52407456Y-79546186D01*
X52466768Y-79509255D01*
X52536630Y-79510253D01*
X52594863Y-79548863D01*
X52622473Y-79609321D01*
X52647829Y-79769410D01*
X52703787Y-79941636D01*
X52703788Y-79941639D01*
X52786006Y-80102997D01*
X52892441Y-80249494D01*
X52892445Y-80249499D01*
X53020500Y-80377554D01*
X53020505Y-80377558D01*
X53148287Y-80470396D01*
X53167006Y-80483996D01*
X53272484Y-80537740D01*
X53328360Y-80566211D01*
X53328363Y-80566212D01*
X53414476Y-80594191D01*
X53500591Y-80622171D01*
X53583429Y-80635291D01*
X53679449Y-80650500D01*
X53679454Y-80650500D01*
X53860551Y-80650500D01*
X53947259Y-80636765D01*
X54039409Y-80622171D01*
X54211639Y-80566211D01*
X54372994Y-80483996D01*
X54519501Y-80377553D01*
X54647553Y-80249501D01*
X54753996Y-80102994D01*
X54836211Y-79941639D01*
X54892171Y-79769409D01*
X54913027Y-79637729D01*
X54942956Y-79574595D01*
X55002267Y-79537663D01*
X55072130Y-79538661D01*
X55130363Y-79577271D01*
X55158477Y-79641234D01*
X55159500Y-79657127D01*
X55159500Y-80394856D01*
X55159502Y-80394882D01*
X55162413Y-80419987D01*
X55162415Y-80419991D01*
X55207793Y-80522764D01*
X55207794Y-80522765D01*
X55287235Y-80602206D01*
X55390009Y-80647585D01*
X55415135Y-80650500D01*
X57204864Y-80650499D01*
X57204879Y-80650497D01*
X57204882Y-80650497D01*
X57229987Y-80647586D01*
X57229988Y-80647585D01*
X57229991Y-80647585D01*
X57332765Y-80602206D01*
X57412206Y-80522765D01*
X57457585Y-80419991D01*
X57460500Y-80394865D01*
X57460499Y-79393753D01*
X59840000Y-79393753D01*
X59840000Y-79606246D01*
X59873242Y-79816127D01*
X59873242Y-79816130D01*
X59938904Y-80018217D01*
X60035375Y-80207550D01*
X60074728Y-80261716D01*
X60707037Y-79629408D01*
X60724075Y-79692993D01*
X60789901Y-79807007D01*
X60882993Y-79900099D01*
X60997007Y-79965925D01*
X61060590Y-79982962D01*
X60428282Y-80615269D01*
X60428282Y-80615270D01*
X60482449Y-80654624D01*
X60671782Y-80751095D01*
X60873870Y-80816757D01*
X61083754Y-80850000D01*
X61296246Y-80850000D01*
X61506127Y-80816757D01*
X61506130Y-80816757D01*
X61708217Y-80751095D01*
X61897554Y-80654622D01*
X61951716Y-80615270D01*
X61951717Y-80615270D01*
X61319408Y-79982962D01*
X61382993Y-79965925D01*
X61497007Y-79900099D01*
X61590099Y-79807007D01*
X61655925Y-79692993D01*
X61672962Y-79629408D01*
X62305270Y-80261717D01*
X62305270Y-80261716D01*
X62344622Y-80207554D01*
X62441095Y-80018217D01*
X62450492Y-79989295D01*
X62489928Y-79931618D01*
X62554286Y-79904419D01*
X62623133Y-79916331D01*
X62674610Y-79963574D01*
X62678908Y-79971314D01*
X62746004Y-80102995D01*
X62852441Y-80249494D01*
X62852445Y-80249499D01*
X62980500Y-80377554D01*
X62980505Y-80377558D01*
X63108287Y-80470396D01*
X63127006Y-80483996D01*
X63232484Y-80537740D01*
X63288360Y-80566211D01*
X63288363Y-80566212D01*
X63374476Y-80594191D01*
X63460591Y-80622171D01*
X63543429Y-80635291D01*
X63639449Y-80650500D01*
X63639454Y-80650500D01*
X63820551Y-80650500D01*
X63907259Y-80636765D01*
X63999409Y-80622171D01*
X64171639Y-80566211D01*
X64332994Y-80483996D01*
X64479501Y-80377553D01*
X64607553Y-80249501D01*
X64713996Y-80102994D01*
X64796211Y-79941639D01*
X64852171Y-79769409D01*
X64873027Y-79637729D01*
X64877527Y-79609321D01*
X64907456Y-79546186D01*
X64966768Y-79509255D01*
X65036630Y-79510253D01*
X65094863Y-79548863D01*
X65122473Y-79609321D01*
X65147829Y-79769410D01*
X65203787Y-79941636D01*
X65203788Y-79941639D01*
X65286006Y-80102997D01*
X65392441Y-80249494D01*
X65392445Y-80249499D01*
X65520500Y-80377554D01*
X65520505Y-80377558D01*
X65648287Y-80470396D01*
X65667006Y-80483996D01*
X65772484Y-80537740D01*
X65828360Y-80566211D01*
X65828363Y-80566212D01*
X65914476Y-80594191D01*
X66000591Y-80622171D01*
X66083429Y-80635291D01*
X66179449Y-80650500D01*
X66179454Y-80650500D01*
X66360551Y-80650500D01*
X66447259Y-80636765D01*
X66539409Y-80622171D01*
X66711639Y-80566211D01*
X66872994Y-80483996D01*
X67019501Y-80377553D01*
X67147553Y-80249501D01*
X67253996Y-80102994D01*
X67336211Y-79941639D01*
X67392171Y-79769409D01*
X67413027Y-79637729D01*
X67442956Y-79574595D01*
X67502267Y-79537663D01*
X67572130Y-79538661D01*
X67630363Y-79577271D01*
X67658477Y-79641234D01*
X67659500Y-79657127D01*
X67659500Y-80394856D01*
X67659502Y-80394882D01*
X67662413Y-80419987D01*
X67662415Y-80419991D01*
X67707793Y-80522764D01*
X67707794Y-80522765D01*
X67787235Y-80602206D01*
X67890009Y-80647585D01*
X67915135Y-80650500D01*
X69704864Y-80650499D01*
X69704879Y-80650497D01*
X69704882Y-80650497D01*
X69729987Y-80647586D01*
X69729988Y-80647585D01*
X69729991Y-80647585D01*
X69832765Y-80602206D01*
X69912206Y-80522765D01*
X69957585Y-80419991D01*
X69960500Y-80394865D01*
X69960499Y-79393713D01*
X72649500Y-79393713D01*
X72649500Y-79606286D01*
X72682735Y-79816127D01*
X72682754Y-79816243D01*
X72738982Y-79989295D01*
X72748444Y-80018414D01*
X72844951Y-80207820D01*
X72969890Y-80379786D01*
X73120213Y-80530109D01*
X73292179Y-80655048D01*
X73292181Y-80655049D01*
X73292184Y-80655051D01*
X73481588Y-80751557D01*
X73683757Y-80817246D01*
X73893713Y-80850500D01*
X73893714Y-80850500D01*
X74106286Y-80850500D01*
X74106287Y-80850500D01*
X74316243Y-80817246D01*
X74518412Y-80751557D01*
X74707816Y-80655051D01*
X74762572Y-80615269D01*
X74879786Y-80530109D01*
X74879788Y-80530106D01*
X74879792Y-80530104D01*
X75030104Y-80379792D01*
X75030106Y-80379788D01*
X75030109Y-80379786D01*
X75155048Y-80207820D01*
X75155047Y-80207820D01*
X75155051Y-80207816D01*
X75251557Y-80018412D01*
X75317246Y-79816243D01*
X75350500Y-79606287D01*
X75350500Y-79393713D01*
X75317246Y-79183757D01*
X75251557Y-78981588D01*
X75155051Y-78792184D01*
X75155049Y-78792181D01*
X75155048Y-78792179D01*
X75030109Y-78620213D01*
X74879786Y-78469890D01*
X74707820Y-78344951D01*
X74518414Y-78248444D01*
X74518413Y-78248443D01*
X74518412Y-78248443D01*
X74316243Y-78182754D01*
X74316241Y-78182753D01*
X74316240Y-78182753D01*
X74154957Y-78157208D01*
X74106287Y-78149500D01*
X73893713Y-78149500D01*
X73845042Y-78157208D01*
X73683760Y-78182753D01*
X73481585Y-78248444D01*
X73292179Y-78344951D01*
X73120213Y-78469890D01*
X72969890Y-78620213D01*
X72844951Y-78792179D01*
X72748444Y-78981585D01*
X72682753Y-79183760D01*
X72649500Y-79393713D01*
X69960499Y-79393713D01*
X69960499Y-78605136D01*
X69960497Y-78605117D01*
X69957586Y-78580012D01*
X69957585Y-78580010D01*
X69957585Y-78580009D01*
X69912206Y-78477235D01*
X69832765Y-78397794D01*
X69832763Y-78397793D01*
X69729992Y-78352415D01*
X69704865Y-78349500D01*
X67915143Y-78349500D01*
X67915117Y-78349502D01*
X67890012Y-78352413D01*
X67890008Y-78352415D01*
X67787235Y-78397793D01*
X67707794Y-78477234D01*
X67662415Y-78580006D01*
X67662415Y-78580008D01*
X67659500Y-78605131D01*
X67659500Y-79342871D01*
X67639815Y-79409910D01*
X67587011Y-79455665D01*
X67517853Y-79465609D01*
X67454297Y-79436584D01*
X67416523Y-79377806D01*
X67413027Y-79362269D01*
X67404274Y-79307007D01*
X67392171Y-79230591D01*
X67336211Y-79058361D01*
X67336211Y-79058360D01*
X67297091Y-78981585D01*
X67253996Y-78897006D01*
X67234637Y-78870361D01*
X67147558Y-78750505D01*
X67147554Y-78750500D01*
X67019499Y-78622445D01*
X67019494Y-78622441D01*
X66872997Y-78516006D01*
X66872996Y-78516005D01*
X66872994Y-78516004D01*
X66796906Y-78477235D01*
X66711639Y-78433788D01*
X66711636Y-78433787D01*
X66539410Y-78377829D01*
X66360551Y-78349500D01*
X66360546Y-78349500D01*
X66179454Y-78349500D01*
X66179449Y-78349500D01*
X66000589Y-78377829D01*
X65828363Y-78433787D01*
X65828360Y-78433788D01*
X65667002Y-78516006D01*
X65520505Y-78622441D01*
X65520500Y-78622445D01*
X65392445Y-78750500D01*
X65392441Y-78750505D01*
X65286006Y-78897002D01*
X65203788Y-79058360D01*
X65203787Y-79058363D01*
X65147829Y-79230589D01*
X65122473Y-79390678D01*
X65092544Y-79453813D01*
X65033232Y-79490744D01*
X64963369Y-79489746D01*
X64905137Y-79451136D01*
X64877527Y-79390678D01*
X64863740Y-79303639D01*
X64852171Y-79230591D01*
X64796211Y-79058361D01*
X64796211Y-79058360D01*
X64757091Y-78981585D01*
X64713996Y-78897006D01*
X64694637Y-78870361D01*
X64607558Y-78750505D01*
X64607554Y-78750500D01*
X64479499Y-78622445D01*
X64479494Y-78622441D01*
X64332997Y-78516006D01*
X64332996Y-78516005D01*
X64332994Y-78516004D01*
X64256906Y-78477235D01*
X64171639Y-78433788D01*
X64171636Y-78433787D01*
X63999410Y-78377829D01*
X63820551Y-78349500D01*
X63820546Y-78349500D01*
X63639454Y-78349500D01*
X63639449Y-78349500D01*
X63460589Y-78377829D01*
X63288363Y-78433787D01*
X63288360Y-78433788D01*
X63127002Y-78516006D01*
X62980505Y-78622441D01*
X62980500Y-78622445D01*
X62852445Y-78750500D01*
X62852441Y-78750505D01*
X62746004Y-78897004D01*
X62678908Y-79028685D01*
X62630933Y-79079480D01*
X62563112Y-79096275D01*
X62496977Y-79073737D01*
X62453527Y-79019021D01*
X62450492Y-79010705D01*
X62441094Y-78981780D01*
X62344624Y-78792449D01*
X62305270Y-78738282D01*
X62305269Y-78738282D01*
X61672962Y-79370590D01*
X61655925Y-79307007D01*
X61590099Y-79192993D01*
X61497007Y-79099901D01*
X61382993Y-79034075D01*
X61319409Y-79017037D01*
X61951716Y-78384728D01*
X61897550Y-78345375D01*
X61708217Y-78248904D01*
X61506129Y-78183242D01*
X61296246Y-78150000D01*
X61083754Y-78150000D01*
X60873872Y-78183242D01*
X60873869Y-78183242D01*
X60671782Y-78248904D01*
X60482439Y-78345380D01*
X60428282Y-78384727D01*
X60428282Y-78384728D01*
X61060591Y-79017037D01*
X60997007Y-79034075D01*
X60882993Y-79099901D01*
X60789901Y-79192993D01*
X60724075Y-79307007D01*
X60707037Y-79370591D01*
X60074728Y-78738282D01*
X60074727Y-78738282D01*
X60035380Y-78792439D01*
X59938904Y-78981782D01*
X59873242Y-79183869D01*
X59873242Y-79183872D01*
X59840000Y-79393753D01*
X57460499Y-79393753D01*
X57460499Y-78605136D01*
X57460497Y-78605117D01*
X57457586Y-78580012D01*
X57457585Y-78580011D01*
X57457585Y-78580009D01*
X57412206Y-78477235D01*
X57332765Y-78397794D01*
X57332763Y-78397793D01*
X57229992Y-78352415D01*
X57204865Y-78349500D01*
X55415143Y-78349500D01*
X55415117Y-78349502D01*
X55390012Y-78352413D01*
X55390008Y-78352415D01*
X55287235Y-78397793D01*
X55207794Y-78477234D01*
X55162415Y-78580006D01*
X55162415Y-78580008D01*
X55159500Y-78605131D01*
X55159500Y-79342871D01*
X55139815Y-79409910D01*
X55087011Y-79455665D01*
X55017853Y-79465609D01*
X54954297Y-79436584D01*
X54916523Y-79377806D01*
X54913027Y-79362269D01*
X54904274Y-79307007D01*
X54892171Y-79230591D01*
X54836211Y-79058361D01*
X54836211Y-79058360D01*
X54797091Y-78981585D01*
X54753996Y-78897006D01*
X54734637Y-78870361D01*
X54647558Y-78750505D01*
X54647554Y-78750500D01*
X54519499Y-78622445D01*
X54519494Y-78622441D01*
X54372997Y-78516006D01*
X54372996Y-78516005D01*
X54372994Y-78516004D01*
X54296906Y-78477235D01*
X54211639Y-78433788D01*
X54211636Y-78433787D01*
X54039410Y-78377829D01*
X53860551Y-78349500D01*
X53860546Y-78349500D01*
X53679454Y-78349500D01*
X53679449Y-78349500D01*
X53500589Y-78377829D01*
X53328363Y-78433787D01*
X53328360Y-78433788D01*
X53167002Y-78516006D01*
X53020505Y-78622441D01*
X53020500Y-78622445D01*
X52892445Y-78750500D01*
X52892441Y-78750505D01*
X52786006Y-78897002D01*
X52703788Y-79058360D01*
X52703787Y-79058363D01*
X52647829Y-79230589D01*
X52622473Y-79390678D01*
X52592544Y-79453813D01*
X52533232Y-79490744D01*
X52463369Y-79489746D01*
X52405137Y-79451136D01*
X52377527Y-79390678D01*
X52363740Y-79303639D01*
X52352171Y-79230591D01*
X52296211Y-79058361D01*
X52296211Y-79058360D01*
X52257091Y-78981585D01*
X52213996Y-78897006D01*
X52194637Y-78870361D01*
X52107558Y-78750505D01*
X52107554Y-78750500D01*
X51979499Y-78622445D01*
X51979494Y-78622441D01*
X51832997Y-78516006D01*
X51832996Y-78516005D01*
X51832994Y-78516004D01*
X51756906Y-78477235D01*
X51671639Y-78433788D01*
X51671636Y-78433787D01*
X51499410Y-78377829D01*
X51320551Y-78349500D01*
X51320546Y-78349500D01*
X51139454Y-78349500D01*
X51139449Y-78349500D01*
X50960589Y-78377829D01*
X50788363Y-78433787D01*
X50788360Y-78433788D01*
X50627002Y-78516006D01*
X50480505Y-78622441D01*
X50480500Y-78622445D01*
X50352445Y-78750500D01*
X50352441Y-78750505D01*
X50246004Y-78897004D01*
X50178908Y-79028685D01*
X50130933Y-79079480D01*
X50063112Y-79096275D01*
X49996977Y-79073737D01*
X49953527Y-79019021D01*
X49950492Y-79010705D01*
X49941094Y-78981780D01*
X49844624Y-78792449D01*
X49805270Y-78738282D01*
X49805269Y-78738282D01*
X49172962Y-79370590D01*
X49155925Y-79307007D01*
X49090099Y-79192993D01*
X48997007Y-79099901D01*
X48882993Y-79034075D01*
X48819409Y-79017037D01*
X49451716Y-78384728D01*
X49397550Y-78345375D01*
X49208217Y-78248904D01*
X49006129Y-78183242D01*
X48796246Y-78150000D01*
X48583754Y-78150000D01*
X48373872Y-78183242D01*
X48373869Y-78183242D01*
X48171782Y-78248904D01*
X47982439Y-78345380D01*
X47928282Y-78384727D01*
X47928282Y-78384728D01*
X48560591Y-79017037D01*
X48497007Y-79034075D01*
X48382993Y-79099901D01*
X48289901Y-79192993D01*
X48224075Y-79307007D01*
X48207037Y-79370591D01*
X47574728Y-78738282D01*
X47574727Y-78738282D01*
X47535380Y-78792439D01*
X47438904Y-78981782D01*
X47373242Y-79183869D01*
X47373242Y-79183872D01*
X47340000Y-79393753D01*
X40350500Y-79393753D01*
X40350500Y-79393713D01*
X40317246Y-79183757D01*
X40251557Y-78981588D01*
X40155051Y-78792184D01*
X40155049Y-78792181D01*
X40155048Y-78792179D01*
X40030109Y-78620213D01*
X39879786Y-78469890D01*
X39707820Y-78344951D01*
X39518414Y-78248444D01*
X39518413Y-78248443D01*
X39518412Y-78248443D01*
X39316243Y-78182754D01*
X39316241Y-78182753D01*
X39316240Y-78182753D01*
X39154957Y-78157208D01*
X39106287Y-78149500D01*
X38893713Y-78149500D01*
X38845042Y-78157208D01*
X38683760Y-78182753D01*
X38481585Y-78248444D01*
X38292179Y-78344951D01*
X38120213Y-78469890D01*
X37969890Y-78620213D01*
X37844951Y-78792179D01*
X37748444Y-78981585D01*
X37682753Y-79183760D01*
X37649500Y-79393713D01*
X36206469Y-79393713D01*
X36217713Y-79193497D01*
X36219267Y-79179700D01*
X36269525Y-78883908D01*
X36272613Y-78870376D01*
X36355674Y-78582063D01*
X36360264Y-78568949D01*
X36382194Y-78516006D01*
X36475078Y-78291762D01*
X36481098Y-78279263D01*
X36626240Y-78016646D01*
X36633617Y-78004907D01*
X36807239Y-77760211D01*
X36815885Y-77749368D01*
X37015824Y-77525636D01*
X37025636Y-77515824D01*
X37249368Y-77315885D01*
X37260211Y-77307239D01*
X37504907Y-77133617D01*
X37516646Y-77126240D01*
X37779263Y-76981098D01*
X37791762Y-76975078D01*
X38068956Y-76860261D01*
X38082063Y-76855674D01*
X38370376Y-76772613D01*
X38383908Y-76769525D01*
X38679700Y-76719267D01*
X38693497Y-76717713D01*
X38996528Y-76700695D01*
X39003481Y-76700500D01*
X39039882Y-76700500D01*
X73960118Y-76700500D01*
X73996519Y-76700500D01*
X74003472Y-76700695D01*
G37*
%TD.AperFunction*%
%TD*%
M02*
