%TF.GenerationSoftware,KiCad,Pcbnew,10.0.0*%
%TF.CreationDate,2026-04-28T07:58:37-06:00*%
%TF.ProjectId,2026_PhilsLab_PCBDesign,32303236-5f50-4686-996c-734c61625f50,rev?*%
%TF.SameCoordinates,Original*%
%TF.FileFunction,Copper,L1,Top*%
%TF.FilePolarity,Positive*%
%FSLAX46Y46*%
G04 Gerber Fmt 4.6, Leading zero omitted, Abs format (unit mm)*
G04 Created by KiCad (PCBNEW 10.0.0) date 2026-04-28 07:58:37*
%MOMM*%
%LPD*%
G01*
G04 APERTURE LIST*
G04 Aperture macros list*
%AMRoundRect*
0 Rectangle with rounded corners*
0 $1 Rounding radius*
0 $2 $3 $4 $5 $6 $7 $8 $9 X,Y pos of 4 corners*
0 Add a 4 corners polygon primitive as box body*
4,1,4,$2,$3,$4,$5,$6,$7,$8,$9,$2,$3,0*
0 Add four circle primitives for the rounded corners*
1,1,$1+$1,$2,$3*
1,1,$1+$1,$4,$5*
1,1,$1+$1,$6,$7*
1,1,$1+$1,$8,$9*
0 Add four rect primitives between the rounded corners*
20,1,$1+$1,$2,$3,$4,$5,0*
20,1,$1+$1,$4,$5,$6,$7,0*
20,1,$1+$1,$6,$7,$8,$9,0*
20,1,$1+$1,$8,$9,$2,$3,0*%
G04 Aperture macros list end*
%TA.AperFunction,SMDPad,CuDef*%
%ADD10RoundRect,0.250000X0.475000X-0.250000X0.475000X0.250000X-0.475000X0.250000X-0.475000X-0.250000X0*%
%TD*%
%TA.AperFunction,SMDPad,CuDef*%
%ADD11RoundRect,0.135000X0.185000X-0.135000X0.185000X0.135000X-0.185000X0.135000X-0.185000X-0.135000X0*%
%TD*%
%TA.AperFunction,SMDPad,CuDef*%
%ADD12RoundRect,0.250000X-0.475000X0.250000X-0.475000X-0.250000X0.475000X-0.250000X0.475000X0.250000X0*%
%TD*%
%TA.AperFunction,SMDPad,CuDef*%
%ADD13R,0.800000X1.000000*%
%TD*%
%TA.AperFunction,SMDPad,CuDef*%
%ADD14R,1.500000X0.700000*%
%TD*%
%TA.AperFunction,SMDPad,CuDef*%
%ADD15RoundRect,0.250000X-0.250000X-0.475000X0.250000X-0.475000X0.250000X0.475000X-0.250000X0.475000X0*%
%TD*%
%TA.AperFunction,SMDPad,CuDef*%
%ADD16RoundRect,0.250000X0.250000X0.475000X-0.250000X0.475000X-0.250000X-0.475000X0.250000X-0.475000X0*%
%TD*%
%TA.AperFunction,SMDPad,CuDef*%
%ADD17RoundRect,0.375000X-0.375000X0.625000X-0.375000X-0.625000X0.375000X-0.625000X0.375000X0.625000X0*%
%TD*%
%TA.AperFunction,SMDPad,CuDef*%
%ADD18RoundRect,0.500000X-1.400000X0.500000X-1.400000X-0.500000X1.400000X-0.500000X1.400000X0.500000X0*%
%TD*%
%TA.AperFunction,SMDPad,CuDef*%
%ADD19RoundRect,0.075000X-0.662500X-0.075000X0.662500X-0.075000X0.662500X0.075000X-0.662500X0.075000X0*%
%TD*%
%TA.AperFunction,SMDPad,CuDef*%
%ADD20RoundRect,0.075000X-0.075000X-0.662500X0.075000X-0.662500X0.075000X0.662500X-0.075000X0.662500X0*%
%TD*%
%TA.AperFunction,SMDPad,CuDef*%
%ADD21RoundRect,0.135000X-0.135000X-0.185000X0.135000X-0.185000X0.135000X0.185000X-0.135000X0.185000X0*%
%TD*%
%TA.AperFunction,SMDPad,CuDef*%
%ADD22RoundRect,0.135000X0.135000X0.185000X-0.135000X0.185000X-0.135000X-0.185000X0.135000X-0.185000X0*%
%TD*%
%TA.AperFunction,SMDPad,CuDef*%
%ADD23RoundRect,0.135000X-0.185000X0.135000X-0.185000X-0.135000X0.185000X-0.135000X0.185000X0.135000X0*%
%TD*%
%TA.AperFunction,ComponentPad*%
%ADD24R,1.700000X1.700000*%
%TD*%
%TA.AperFunction,ComponentPad*%
%ADD25C,1.700000*%
%TD*%
%TA.AperFunction,SMDPad,CuDef*%
%ADD26RoundRect,0.112500X0.537500X-0.112500X0.537500X0.112500X-0.537500X0.112500X-0.537500X-0.112500X0*%
%TD*%
%TA.AperFunction,ComponentPad*%
%ADD27O,1.800000X1.150000*%
%TD*%
%TA.AperFunction,ComponentPad*%
%ADD28O,2.000000X1.450000*%
%TD*%
%TA.AperFunction,SMDPad,CuDef*%
%ADD29RoundRect,0.218750X-0.256250X0.218750X-0.256250X-0.218750X0.256250X-0.218750X0.256250X0.218750X0*%
%TD*%
%TA.AperFunction,SMDPad,CuDef*%
%ADD30RoundRect,0.250000X-0.350000X0.450000X-0.350000X-0.450000X0.350000X-0.450000X0.350000X0.450000X0*%
%TD*%
%TA.AperFunction,ViaPad*%
%ADD31C,0.700000*%
%TD*%
%TA.AperFunction,Conductor*%
%ADD32C,0.500000*%
%TD*%
%TA.AperFunction,Conductor*%
%ADD33C,0.300000*%
%TD*%
%TA.AperFunction,Conductor*%
%ADD34C,0.200000*%
%TD*%
G04 APERTURE END LIST*
D10*
%TO.P,C6,1*%
%TO.N,+3.3VA*%
X47500000Y-96950000D03*
%TO.P,C6,2*%
%TO.N,GND*%
X47500000Y-95050000D03*
%TD*%
D11*
%TO.P,R3,2*%
%TO.N,GND*%
X73000000Y-96490000D03*
%TO.P,R3,1*%
%TO.N,/PWR_LED_K*%
X73000000Y-97510000D03*
%TD*%
D12*
%TO.P,C1,2*%
%TO.N,GND*%
X61500000Y-90950000D03*
%TO.P,C1,1*%
%TO.N,+3.3V*%
X61500000Y-89050000D03*
%TD*%
D13*
%TO.P,SW1,*%
%TO.N,*%
X39280000Y-83350000D03*
X37070000Y-83350000D03*
X39280000Y-90650000D03*
X37070000Y-90650000D03*
D14*
%TO.P,SW1,1,A_1*%
%TO.N,GND*%
X39930000Y-84750000D03*
%TO.P,SW1,2,B_2*%
%TO.N,/SW_BOOT0*%
X39930000Y-87750000D03*
%TO.P,SW1,3,C_3*%
%TO.N,+3.3V*%
X39930000Y-89250000D03*
%TD*%
D10*
%TO.P,C13,1*%
%TO.N,+3.3V*%
X69500000Y-101100000D03*
%TO.P,C13,2*%
%TO.N,GND*%
X69500000Y-99200000D03*
%TD*%
D15*
%TO.P,C12,1*%
%TO.N,VBUS*%
X63550000Y-95150000D03*
%TO.P,C12,2*%
%TO.N,GND*%
X65450000Y-95150000D03*
%TD*%
D10*
%TO.P,C11,1*%
%TO.N,/HSE_OUT*%
X44500000Y-96950000D03*
%TO.P,C11,2*%
%TO.N,GND*%
X44500000Y-95050000D03*
%TD*%
%TO.P,C10,1*%
%TO.N,/HSE_IN*%
X44500000Y-91950000D03*
%TO.P,C10,2*%
%TO.N,GND*%
X44500000Y-90050000D03*
%TD*%
D15*
%TO.P,C9,1*%
%TO.N,/NRST*%
X51050000Y-101000000D03*
%TO.P,C9,2*%
%TO.N,GND*%
X52950000Y-101000000D03*
%TD*%
D16*
%TO.P,C8,1*%
%TO.N,+3.3V*%
X44950000Y-103000000D03*
%TO.P,C8,2*%
%TO.N,GND*%
X43050000Y-103000000D03*
%TD*%
%TO.P,C7,1*%
%TO.N,+3.3VA*%
X44950000Y-100500000D03*
%TO.P,C7,2*%
%TO.N,GND*%
X43050000Y-100500000D03*
%TD*%
D15*
%TO.P,C5,1*%
%TO.N,+3.3V*%
X50550000Y-86500000D03*
%TO.P,C5,2*%
%TO.N,GND*%
X52450000Y-86500000D03*
%TD*%
D10*
%TO.P,C4,1*%
%TO.N,+3.3V*%
X47500000Y-90450000D03*
%TO.P,C4,2*%
%TO.N,GND*%
X47500000Y-88550000D03*
%TD*%
D15*
%TO.P,C3,1*%
%TO.N,+3.3V*%
X47550000Y-84000000D03*
%TO.P,C3,2*%
%TO.N,GND*%
X49450000Y-84000000D03*
%TD*%
D16*
%TO.P,C2,1*%
%TO.N,+3.3V*%
X58950000Y-100500000D03*
%TO.P,C2,2*%
%TO.N,GND*%
X57050000Y-100500000D03*
%TD*%
D17*
%TO.P,U2,1,GND_1*%
%TO.N,GND*%
X66800000Y-98000000D03*
%TO.P,U2,2,VO_2*%
%TO.N,+3.3V*%
X64500000Y-98000000D03*
D18*
X64500000Y-104300000D03*
D17*
%TO.P,U2,3,VI_3*%
%TO.N,VBUS*%
X62200000Y-98000000D03*
%TD*%
D19*
%TO.P,U1,1,VBAT_1*%
%TO.N,+3.3V*%
X50337500Y-90750000D03*
%TO.P,U1,2,PC13_2*%
%TO.N,unconnected-(U1-PC13-Pad2)*%
X50337500Y-91250000D03*
%TO.P,U1,3,PC14_3*%
%TO.N,unconnected-(U1-PC14-Pad3)*%
X50337500Y-91750000D03*
%TO.P,U1,4,PC15_4*%
%TO.N,unconnected-(U1-PC15-Pad4)*%
X50337500Y-92250000D03*
%TO.P,U1,5,PD0_5*%
%TO.N,/HSE_IN*%
X50337500Y-92750000D03*
%TO.P,U1,6,PD1_6*%
%TO.N,/HSE_OUT*%
X50337500Y-93250000D03*
%TO.P,U1,7,NRST_7*%
%TO.N,/NRST*%
X50337500Y-93750000D03*
%TO.P,U1,8,VSSA_8*%
%TO.N,GND*%
X50337500Y-94250000D03*
%TO.P,U1,9,VDDA_9*%
%TO.N,+3.3VA*%
X50337500Y-94750000D03*
%TO.P,U1,10,PA0_10*%
%TO.N,unconnected-(U1-PA0-Pad10)*%
X50337500Y-95250000D03*
%TO.P,U1,11,PA1_11*%
%TO.N,unconnected-(U1-PA1-Pad11)*%
X50337500Y-95750000D03*
%TO.P,U1,12,PA2_12*%
%TO.N,unconnected-(U1-PA2-Pad12)*%
X50337500Y-96250000D03*
D20*
%TO.P,U1,13,PA3_13*%
%TO.N,unconnected-(U1-PA3-Pad13)*%
X51750000Y-97662500D03*
%TO.P,U1,14,PA4_14*%
%TO.N,unconnected-(U1-PA4-Pad14)*%
X52250000Y-97662500D03*
%TO.P,U1,15,PA5_15*%
%TO.N,unconnected-(U1-PA5-Pad15)*%
X52750000Y-97662500D03*
%TO.P,U1,16,PA6_16*%
%TO.N,unconnected-(U1-PA6-Pad16)*%
X53250000Y-97662500D03*
%TO.P,U1,17,PA7_17*%
%TO.N,unconnected-(U1-PA7-Pad17)*%
X53750000Y-97662500D03*
%TO.P,U1,18,PB0_18*%
%TO.N,unconnected-(U1-PB0-Pad18)*%
X54250000Y-97662500D03*
%TO.P,U1,19,PB1_19*%
%TO.N,unconnected-(U1-PB1-Pad19)*%
X54750000Y-97662500D03*
%TO.P,U1,20,PB2_20*%
%TO.N,unconnected-(U1-PB2-Pad20)*%
X55250000Y-97662500D03*
%TO.P,U1,21,PB10_21*%
%TO.N,/I2C2_SCL*%
X55750000Y-97662500D03*
%TO.P,U1,22,PB11_22*%
%TO.N,/I2C2_SDA*%
X56250000Y-97662500D03*
%TO.P,U1,23,VSS_23*%
%TO.N,GND*%
X56750000Y-97662500D03*
%TO.P,U1,24,VDD_24*%
%TO.N,+3.3V*%
X57250000Y-97662500D03*
D19*
%TO.P,U1,25,PB12_25*%
%TO.N,unconnected-(U1-PB12-Pad25)*%
X58662500Y-96250000D03*
%TO.P,U1,26,PB13_26*%
%TO.N,unconnected-(U1-PB13-Pad26)*%
X58662500Y-95750000D03*
%TO.P,U1,27,PB14_27*%
%TO.N,unconnected-(U1-PB14-Pad27)*%
X58662500Y-95250000D03*
%TO.P,U1,28,PB15_28*%
%TO.N,unconnected-(U1-PB15-Pad28)*%
X58662500Y-94750000D03*
%TO.P,U1,29,PA8_29*%
%TO.N,unconnected-(U1-PA8-Pad29)*%
X58662500Y-94250000D03*
%TO.P,U1,30,PA9_30*%
%TO.N,unconnected-(U1-PA9-Pad30)*%
X58662500Y-93750000D03*
%TO.P,U1,31,PA10_31*%
%TO.N,unconnected-(U1-PA10-Pad31)*%
X58662500Y-93250000D03*
%TO.P,U1,32,PA11_32*%
%TO.N,/USB_D-*%
X58662500Y-92750000D03*
%TO.P,U1,33,PA12_33*%
%TO.N,/USB_D+*%
X58662500Y-92250000D03*
%TO.P,U1,34,PA13_34*%
%TO.N,/SWDIO*%
X58662500Y-91750000D03*
%TO.P,U1,35,VSS_35*%
%TO.N,GND*%
X58662500Y-91250000D03*
%TO.P,U1,36,VDD_36*%
%TO.N,+3.3V*%
X58662500Y-90750000D03*
D20*
%TO.P,U1,37,PA14_37*%
%TO.N,/SWCLK*%
X57250000Y-89337500D03*
%TO.P,U1,38,PA15_38*%
%TO.N,unconnected-(U1-PA15-Pad38)*%
X56750000Y-89337500D03*
%TO.P,U1,39,PB3_39*%
%TO.N,unconnected-(U1-PB3-Pad39)*%
X56250000Y-89337500D03*
%TO.P,U1,40,PB4_40*%
%TO.N,unconnected-(U1-PB4-Pad40)*%
X55750000Y-89337500D03*
%TO.P,U1,41,PB5_41*%
%TO.N,unconnected-(U1-PB5-Pad41)*%
X55250000Y-89337500D03*
%TO.P,U1,42,PB6_42*%
%TO.N,/USART1_TX*%
X54750000Y-89337500D03*
%TO.P,U1,43,PB7_43*%
%TO.N,/USART1_RX*%
X54250000Y-89337500D03*
%TO.P,U1,44,BOOT0_44*%
%TO.N,/BOOT0*%
X53750000Y-89337500D03*
%TO.P,U1,45,PB8_45*%
%TO.N,unconnected-(U1-PB8-Pad45)*%
X53250000Y-89337500D03*
%TO.P,U1,46,PB9_46*%
%TO.N,unconnected-(U1-PB9-Pad46)*%
X52750000Y-89337500D03*
%TO.P,U1,47,VSS_47*%
%TO.N,GND*%
X52250000Y-89337500D03*
%TO.P,U1,48,VDD_48*%
%TO.N,+3.3V*%
X51750000Y-89337500D03*
%TD*%
D21*
%TO.P,R5,1*%
%TO.N,+3.3V*%
X52490000Y-106000000D03*
%TO.P,R5,2*%
%TO.N,/I2C2_SDA*%
X53510000Y-106000000D03*
%TD*%
D22*
%TO.P,R4,1*%
%TO.N,+3.3V*%
X51010000Y-106000000D03*
%TO.P,R4,2*%
%TO.N,/I2C2_SCL*%
X49990000Y-106000000D03*
%TD*%
D23*
%TO.P,R2,1*%
%TO.N,+3.3V*%
X65000000Y-90990000D03*
%TO.P,R2,2*%
%TO.N,/USB_D+*%
X65000000Y-92010000D03*
%TD*%
D11*
%TO.P,R1,1*%
%TO.N,/SW_BOOT0*%
X42000000Y-87500000D03*
%TO.P,R1,2*%
%TO.N,/BOOT0*%
X42000000Y-86480000D03*
%TD*%
D24*
%TO.P,J4,1,Pin_1_1*%
%TO.N,+3.3V*%
X47190000Y-109500000D03*
D25*
%TO.P,J4,2,Pin_2_2*%
%TO.N,/I2C2_SCL*%
X49730000Y-109500000D03*
%TO.P,J4,3,Pin_3_3*%
%TO.N,/I2C2_SDA*%
X52270000Y-109500000D03*
%TO.P,J4,4,Pin_4_4*%
%TO.N,GND*%
X54810000Y-109500000D03*
%TD*%
D24*
%TO.P,J3,1,Pin_1_1*%
%TO.N,+3.3V*%
X56310000Y-79500000D03*
D25*
%TO.P,J3,2,Pin_2_2*%
%TO.N,/USART1_TX*%
X53770000Y-79500000D03*
%TO.P,J3,3,Pin_3_3*%
%TO.N,/USART1_RX*%
X51230000Y-79500000D03*
%TO.P,J3,4,Pin_4_4*%
%TO.N,GND*%
X48690000Y-79500000D03*
%TD*%
D24*
%TO.P,J2,1,Pin_1_1*%
%TO.N,+3.3V*%
X68810000Y-79500000D03*
D25*
%TO.P,J2,2,Pin_2_2*%
%TO.N,/SWDIO*%
X66270000Y-79500000D03*
%TO.P,J2,3,Pin_3_3*%
%TO.N,/SWCLK*%
X63730000Y-79500000D03*
%TO.P,J2,4,Pin_4_4*%
%TO.N,GND*%
X61190000Y-79500000D03*
%TD*%
D26*
%TO.P,J1,1,VBUS_1*%
%TO.N,VBUS*%
X71100000Y-90300000D03*
%TO.P,J1,2,D-_2*%
%TO.N,/USB_D-*%
X71100000Y-89650000D03*
%TO.P,J1,3,D+_3*%
%TO.N,/USB_D+*%
X71100000Y-89000000D03*
%TO.P,J1,4,ID_4*%
%TO.N,unconnected-(J1-ID-Pad4)*%
X71100000Y-88350000D03*
%TO.P,J1,5,GND_5*%
%TO.N,GND*%
X71100000Y-87700000D03*
D27*
%TO.P,J1,SH,Shield_SH*%
%TO.N,unconnected-(J1-Shield-PadSH)*%
X74950000Y-92875000D03*
D28*
%TO.N,unconnected-(J1-Shield-PadSH)_1*%
X71150000Y-92725000D03*
%TO.N,unconnected-(J1-Shield-PadSH)_3*%
X71150000Y-85275000D03*
D27*
%TO.N,unconnected-(J1-Shield-PadSH)_2*%
X74950000Y-85125000D03*
%TD*%
D29*
%TO.P,FB1,1*%
%TO.N,+3.3VA*%
X47000000Y-101212500D03*
%TO.P,FB1,2*%
%TO.N,+3.3V*%
X47000000Y-102787500D03*
%TD*%
%TO.P,D1,1,K_1*%
%TO.N,/PWR_LED_K*%
X73000000Y-99712500D03*
%TO.P,D1,2,A_2*%
%TO.N,+3.3V*%
X73000000Y-101287500D03*
%TD*%
D30*
%TO.P,Y1,1,1_1*%
%TO.N,/HSE_IN*%
X40150000Y-92900000D03*
%TO.P,Y1,2,G_2*%
%TO.N,GND*%
X40150000Y-95100000D03*
%TO.P,Y1,3,3_3*%
%TO.N,/HSE_OUT*%
X41850000Y-95100000D03*
%TO.P,Y1,4,G_4*%
%TO.N,GND*%
X41850000Y-92900000D03*
%TD*%
D31*
%TO.N,GND*%
X45000000Y-93500000D03*
X43000000Y-90500000D03*
X40000000Y-97000000D03*
X42000000Y-91500000D03*
X51850000Y-94500000D03*
X52500000Y-91000000D03*
%TO.N,+3.3V*%
X49000000Y-107000000D03*
X51010000Y-106990000D03*
%TO.N,GND*%
X50500000Y-84000000D03*
%TO.N,+3.3V*%
X55000000Y-105000000D03*
X57000000Y-105000000D03*
%TO.N,GND*%
X71000000Y-99000000D03*
X67500000Y-99500000D03*
X66500000Y-99500000D03*
X67000000Y-96000000D03*
X67000000Y-94500000D03*
X40500000Y-84000000D03*
X63000000Y-91000000D03*
X70000000Y-87500000D03*
X74000000Y-96350000D03*
X43000000Y-99000000D03*
X43000000Y-104500000D03*
X56500000Y-96000000D03*
X54000000Y-101000000D03*
X47500000Y-87500000D03*
%TD*%
%TO.N,+3.3V*%
D32*
X58950000Y-105450000D02*
X58950000Y-105000000D01*
X71000000Y-107000000D02*
X60500000Y-107000000D01*
X71500000Y-106500000D02*
X71000000Y-107000000D01*
X71500000Y-103500000D02*
X71500000Y-106500000D01*
X60500000Y-107000000D02*
X58950000Y-105450000D01*
%TO.N,GND*%
X44500000Y-94000000D02*
X45000000Y-93500000D01*
X44500000Y-95050000D02*
X44500000Y-94000000D01*
%TO.N,/HSE_IN*%
D33*
X47950000Y-91950000D02*
X44500000Y-91950000D01*
X48750000Y-92750000D02*
X47950000Y-91950000D01*
X50337500Y-92750000D02*
X48750000Y-92750000D01*
X43000000Y-94000000D02*
X44500000Y-92500000D01*
X41250000Y-94000000D02*
X43000000Y-94000000D01*
X44500000Y-92500000D02*
X44500000Y-91950000D01*
X40150000Y-92900000D02*
X41250000Y-94000000D01*
%TO.N,GND*%
D32*
X44500000Y-90050000D02*
X43450000Y-90050000D01*
X43450000Y-90050000D02*
X43000000Y-90500000D01*
%TO.N,+3.3VA*%
X44950000Y-99500000D02*
X47500000Y-96950000D01*
X44950000Y-100500000D02*
X44950000Y-99500000D01*
%TO.N,GND*%
X40150000Y-96850000D02*
X40000000Y-97000000D01*
X40150000Y-95100000D02*
X40150000Y-96850000D01*
X41850000Y-91650000D02*
X42000000Y-91500000D01*
X41850000Y-92900000D02*
X41850000Y-91650000D01*
%TO.N,/NRST*%
D33*
X53000000Y-95000000D02*
X49500000Y-98500000D01*
X49500000Y-98500000D02*
X49500000Y-100000000D01*
X49500000Y-100000000D02*
X50500000Y-101000000D01*
X53000000Y-94500000D02*
X53000000Y-95000000D01*
X50337500Y-93750000D02*
X52250000Y-93750000D01*
X52250000Y-93750000D02*
X53000000Y-94500000D01*
X50500000Y-101000000D02*
X51050000Y-101000000D01*
%TO.N,GND*%
X51600000Y-94250000D02*
X51850000Y-94500000D01*
X50337500Y-94250000D02*
X51600000Y-94250000D01*
X52250000Y-90750000D02*
X52500000Y-91000000D01*
X52250000Y-89337500D02*
X52250000Y-90750000D01*
%TO.N,+3.3V*%
D32*
X49000000Y-107000000D02*
X47000000Y-107000000D01*
X51000000Y-107000000D02*
X51010000Y-106990000D01*
X51010000Y-106000000D02*
X51010000Y-106990000D01*
X53170001Y-105000000D02*
X52490000Y-105680001D01*
X55000000Y-105000000D02*
X53170001Y-105000000D01*
X52490000Y-105680001D02*
X52490000Y-106000000D01*
X58950000Y-105000000D02*
X57000000Y-105000000D01*
%TO.N,+3.3VA*%
X45662500Y-101212500D02*
X44950000Y-100500000D01*
X47000000Y-101212500D02*
X45662500Y-101212500D01*
%TO.N,+3.3V*%
X46787500Y-103000000D02*
X47000000Y-102787500D01*
X44950000Y-103000000D02*
X46787500Y-103000000D01*
%TO.N,GND*%
X49450000Y-84000000D02*
X50500000Y-84000000D01*
%TO.N,+3.3V*%
X47550000Y-85450000D02*
X47550000Y-84000000D01*
X47500000Y-85500000D02*
X47550000Y-85450000D01*
X47500000Y-86500000D02*
X47500000Y-85500000D01*
X47500000Y-86500000D02*
X48500000Y-86500000D01*
%TO.N,/BOOT0*%
D33*
X50000000Y-82000000D02*
X46000000Y-82000000D01*
X42000000Y-86000000D02*
X42000000Y-86480000D01*
X52000000Y-83000000D02*
X51000000Y-83000000D01*
X51000000Y-83000000D02*
X50000000Y-82000000D01*
X53750000Y-84750000D02*
X52000000Y-83000000D01*
X46000000Y-82000000D02*
X42000000Y-86000000D01*
X53750000Y-89337500D02*
X53750000Y-84750000D01*
%TO.N,+3.3V*%
D32*
X64490000Y-90990000D02*
X62550000Y-89050000D01*
X65000000Y-90990000D02*
X64490000Y-90990000D01*
X62550000Y-89050000D02*
X61500000Y-89050000D01*
X67000000Y-89000000D02*
X65010000Y-90990000D01*
X67000000Y-86000000D02*
X67000000Y-89000000D01*
X71155000Y-81845000D02*
X67000000Y-86000000D01*
X71155000Y-81845000D02*
X73000000Y-83690000D01*
X65010000Y-90990000D02*
X65000000Y-90990000D01*
%TO.N,/PWR_LED_K*%
X73000000Y-99712500D02*
X73000000Y-97510000D01*
%TO.N,+3.3V*%
X73500000Y-103500000D02*
X71500000Y-103500000D01*
X75000000Y-102000000D02*
X73500000Y-103500000D01*
X75000000Y-96000000D02*
X75000000Y-102000000D01*
X73500000Y-84500000D02*
X73500000Y-94500000D01*
X73000000Y-84000000D02*
X73500000Y-84500000D01*
X73000000Y-83690000D02*
X73000000Y-84000000D01*
X73500000Y-94500000D02*
X75000000Y-96000000D01*
X68810000Y-79500000D02*
X71155000Y-81845000D01*
X57300000Y-78200000D02*
X67200000Y-78200000D01*
X68500000Y-79500000D02*
X68810000Y-79500000D01*
X56310000Y-79190000D02*
X57300000Y-78200000D01*
X67200000Y-78200000D02*
X68500000Y-79500000D01*
X56310000Y-79500000D02*
X56310000Y-79190000D01*
%TO.N,/SW_BOOT0*%
D33*
X41750000Y-87750000D02*
X42000000Y-87500000D01*
X39930000Y-87750000D02*
X41750000Y-87750000D01*
%TO.N,+3.3V*%
D32*
X48500000Y-86500000D02*
X48500000Y-87000000D01*
X48500000Y-86500000D02*
X50550000Y-86500000D01*
X48500000Y-87000000D02*
X50337500Y-88837500D01*
X50337500Y-88837500D02*
X50337500Y-90650000D01*
X45500000Y-86500000D02*
X47500000Y-86500000D01*
X41000000Y-91000000D02*
X45500000Y-86500000D01*
X40500000Y-91000000D02*
X41000000Y-91000000D01*
X40500000Y-91000000D02*
X40500000Y-89820000D01*
X40500000Y-91500000D02*
X40500000Y-91000000D01*
X40400000Y-91600000D02*
X40500000Y-91500000D01*
X39400000Y-91600000D02*
X40400000Y-91600000D01*
X38500000Y-92500000D02*
X39400000Y-91600000D01*
X38500000Y-103500000D02*
X38500000Y-92500000D01*
X42000000Y-107000000D02*
X38500000Y-103500000D01*
X45000000Y-107000000D02*
X42000000Y-107000000D01*
X40500000Y-89820000D02*
X39930000Y-89250000D01*
X44950000Y-106950000D02*
X44950000Y-103000000D01*
X45000000Y-107000000D02*
X44950000Y-106950000D01*
X47000000Y-107000000D02*
X45000000Y-107000000D01*
X47000000Y-109310000D02*
X47190000Y-109500000D01*
X47000000Y-107000000D02*
X47000000Y-109310000D01*
X52490000Y-106000000D02*
X51010000Y-106000000D01*
X58950000Y-105000000D02*
X58950000Y-100500000D01*
%TO.N,/I2C2_SDA*%
D33*
X56000000Y-105500000D02*
X55500000Y-106000000D01*
X56249999Y-98999999D02*
X56000000Y-99249998D01*
X56000000Y-99249998D02*
X56000000Y-105500000D01*
X56250000Y-98750000D02*
X56249999Y-98999999D01*
X55500000Y-106000000D02*
X53510000Y-106000000D01*
X56250000Y-97662500D02*
X56250000Y-98750000D01*
%TO.N,/I2C2_SCL*%
X55000000Y-99253120D02*
X55750000Y-98503120D01*
X55000000Y-103000000D02*
X55000000Y-99253120D01*
X54000000Y-104000000D02*
X55000000Y-103000000D01*
X49990000Y-105010000D02*
X51000000Y-104000000D01*
X49990000Y-106000000D02*
X49990000Y-105010000D01*
X51000000Y-104000000D02*
X54000000Y-104000000D01*
X55750000Y-98503120D02*
X55750000Y-97662500D01*
%TO.N,+3.3V*%
D32*
X71500000Y-101100000D02*
X71500000Y-103500000D01*
X71500000Y-101100000D02*
X72812500Y-101100000D01*
X72812500Y-101100000D02*
X73000000Y-101287500D01*
X69500000Y-101100000D02*
X71500000Y-101100000D01*
%TO.N,GND*%
X39930000Y-84570000D02*
X40500000Y-84000000D01*
X39930000Y-84750000D02*
X39930000Y-84570000D01*
D33*
X62950000Y-90950000D02*
X63000000Y-91000000D01*
X61500000Y-90950000D02*
X62950000Y-90950000D01*
X70200000Y-87700000D02*
X70000000Y-87500000D01*
X71100000Y-87700000D02*
X70200000Y-87700000D01*
D32*
X73860000Y-96490000D02*
X74000000Y-96350000D01*
X73000000Y-96490000D02*
X73860000Y-96490000D01*
X43050000Y-99050000D02*
X43000000Y-99000000D01*
X43050000Y-100500000D02*
X43050000Y-99050000D01*
X43050000Y-104450000D02*
X43000000Y-104500000D01*
X43050000Y-103000000D02*
X43050000Y-104450000D01*
D33*
X56750000Y-96250000D02*
X56500000Y-96000000D01*
X56750000Y-97662500D02*
X56750000Y-96250000D01*
D32*
X52950000Y-101000000D02*
X54000000Y-101000000D01*
X47500000Y-88550000D02*
X47500000Y-87500000D01*
%TO.N,/I2C2_SDA*%
D33*
X52270000Y-108230000D02*
X52270000Y-109500000D01*
X53510000Y-106000000D02*
X53510000Y-106990000D01*
X53510000Y-106990000D02*
X52270000Y-108230000D01*
%TO.N,/I2C2_SCL*%
X49990000Y-109240000D02*
X49730000Y-109500000D01*
X49990000Y-106000000D02*
X49990000Y-109240000D01*
%TO.N,GND*%
X57050000Y-99257107D02*
X57050000Y-100500000D01*
X56750000Y-98957106D02*
X57050000Y-99257107D01*
X56750000Y-97662500D02*
X56750000Y-98957106D01*
%TO.N,+3.3V*%
X58950000Y-99450000D02*
X58950000Y-100500000D01*
X58500000Y-99000000D02*
X58950000Y-99450000D01*
X57500000Y-99000000D02*
X58500000Y-99000000D01*
X57250000Y-98750000D02*
X57500000Y-99000000D01*
X57250000Y-97662500D02*
X57250000Y-98750000D01*
%TO.N,/USART1_RX*%
X51230000Y-81730000D02*
X51230000Y-79500000D01*
X55000000Y-84500000D02*
X53000000Y-82500000D01*
X55000000Y-87000000D02*
X55000000Y-84500000D01*
X53000000Y-82500000D02*
X52000000Y-82500000D01*
X54250000Y-87750000D02*
X55000000Y-87000000D01*
X52000000Y-82500000D02*
X51230000Y-81730000D01*
X54250000Y-89337500D02*
X54250000Y-87750000D01*
%TO.N,/USART1_TX*%
X53770000Y-81770000D02*
X53770000Y-79500000D01*
X56000000Y-84000000D02*
X53770000Y-81770000D01*
X56000000Y-87000000D02*
X56000000Y-84000000D01*
X54750000Y-88250000D02*
X56000000Y-87000000D01*
X54750000Y-89337500D02*
X54750000Y-88250000D01*
%TO.N,/SWDIO*%
X57500000Y-91500000D02*
X57500000Y-90500000D01*
X57750000Y-91750000D02*
X57500000Y-91500000D01*
X57500000Y-90500000D02*
X66270000Y-81730000D01*
X66270000Y-81730000D02*
X66270000Y-79500000D01*
X58662500Y-91750000D02*
X57750000Y-91750000D01*
%TO.N,/SWCLK*%
X63730000Y-81270000D02*
X63730000Y-79500000D01*
X57250000Y-87750000D02*
X63730000Y-81270000D01*
X57250000Y-89337500D02*
X57250000Y-87750000D01*
%TO.N,/USB_D-*%
D34*
X70124999Y-89650000D02*
X71100000Y-89650000D01*
X70024999Y-89550000D02*
X70124999Y-89650000D01*
X66093198Y-92725000D02*
X69268198Y-89550000D01*
X59793751Y-92725000D02*
X66093198Y-92725000D01*
X59768751Y-92750000D02*
X59793751Y-92725000D01*
X58662500Y-92750000D02*
X59768751Y-92750000D01*
X69268198Y-89550000D02*
X70024999Y-89550000D01*
%TO.N,/USB_D+*%
X70124999Y-89000000D02*
X71100000Y-89000000D01*
X70024999Y-89100000D02*
X70124999Y-89000000D01*
X69081802Y-89100000D02*
X70024999Y-89100000D01*
X59793751Y-92275000D02*
X65906802Y-92275000D01*
X59768751Y-92250000D02*
X59793751Y-92275000D01*
X65906802Y-92275000D02*
X69081802Y-89100000D01*
X58662500Y-92250000D02*
X59768751Y-92250000D01*
%TO.N,GND*%
D33*
X61200000Y-91250000D02*
X61500000Y-90950000D01*
X58662500Y-91250000D02*
X61200000Y-91250000D01*
%TO.N,+3.3V*%
X60000000Y-89500000D02*
X60450000Y-89050000D01*
X60450000Y-89050000D02*
X61500000Y-89050000D01*
X60000000Y-90500000D02*
X60000000Y-89500000D01*
X59750000Y-90750000D02*
X60000000Y-90500000D01*
X58662500Y-90750000D02*
X59750000Y-90750000D01*
%TO.N,/HSE_OUT*%
X42100000Y-95100000D02*
X41850000Y-95100000D01*
X43000000Y-96000000D02*
X42100000Y-95100000D01*
X43000000Y-96500000D02*
X43000000Y-96000000D01*
X44500000Y-96950000D02*
X43450000Y-96950000D01*
X43450000Y-96950000D02*
X43000000Y-96500000D01*
X45550000Y-96950000D02*
X44500000Y-96950000D01*
X46000000Y-96500000D02*
X45550000Y-96950000D01*
X46000000Y-94000000D02*
X46000000Y-96500000D01*
X46750000Y-93250000D02*
X46000000Y-94000000D01*
X50337500Y-93250000D02*
X46750000Y-93250000D01*
%TO.N,GND*%
X50337500Y-94250000D02*
X49042894Y-94250000D01*
%TO.N,+3.3VA*%
X50337500Y-94750000D02*
X49250000Y-94750000D01*
X49250000Y-94750000D02*
X49000000Y-95000000D01*
%TO.N,+3.3V*%
X47800000Y-90750000D02*
X47500000Y-90450000D01*
X50337500Y-90750000D02*
X47800000Y-90750000D01*
%TO.N,GND*%
X52450000Y-87950000D02*
X52450000Y-86500000D01*
X52500000Y-88000000D02*
X52450000Y-87950000D01*
X52250000Y-88250000D02*
X52500000Y-88000000D01*
X52250000Y-89337500D02*
X52250000Y-88250000D01*
%TO.N,+3.3V*%
X50550000Y-87550000D02*
X50550000Y-86500000D01*
X51000000Y-88000000D02*
X50550000Y-87550000D01*
X51500000Y-88000000D02*
X51000000Y-88000000D01*
X51750000Y-88250000D02*
X51500000Y-88000000D01*
X51750000Y-89337500D02*
X51750000Y-88250000D01*
%TO.N,GND*%
X49042894Y-94250000D02*
X48242893Y-95050000D01*
%TO.N,+3.3VA*%
X49000000Y-96500000D02*
X48550000Y-96950000D01*
X49000000Y-95000000D02*
X49000000Y-96500000D01*
%TO.N,GND*%
X48242893Y-95050000D02*
X47500000Y-95050000D01*
%TO.N,+3.3VA*%
X48550000Y-96950000D02*
X47500000Y-96950000D01*
%TD*%
%TA.AperFunction,Conductor*%
%TO.N,GND*%
G36*
X66984778Y-94003317D02*
G01*
X67012131Y-94009774D01*
X67039096Y-94019548D01*
X67915506Y-94457753D01*
X67944505Y-94477868D01*
X67956819Y-94489322D01*
X67991939Y-94547279D01*
X67995573Y-94560512D01*
X68000000Y-94593349D01*
X68000000Y-97000000D01*
X69000000Y-98000000D01*
X70930808Y-98000000D01*
X70965740Y-98005021D01*
X70990984Y-98012434D01*
X71043730Y-98043730D01*
X71451073Y-98451073D01*
X71472223Y-98479325D01*
X71484831Y-98502414D01*
X71500000Y-98561843D01*
X71500000Y-99430808D01*
X71494976Y-99465745D01*
X71487564Y-99490986D01*
X71456269Y-99543730D01*
X71048926Y-99951073D01*
X71020675Y-99972222D01*
X70997587Y-99984830D01*
X70938157Y-100000000D01*
X66569192Y-100000000D01*
X66534256Y-99994977D01*
X66509014Y-99987565D01*
X66456269Y-99956269D01*
X66048926Y-99548926D01*
X66027774Y-99520670D01*
X66015167Y-99497581D01*
X66000000Y-99438156D01*
X66000000Y-96499999D01*
X64601701Y-96033898D01*
X64570151Y-96018088D01*
X64557315Y-96009168D01*
X64513498Y-95954750D01*
X64509415Y-95944878D01*
X64500000Y-95897484D01*
X64500000Y-94569191D01*
X64505022Y-94534258D01*
X64512434Y-94509013D01*
X64543728Y-94456271D01*
X64951076Y-94048923D01*
X64979326Y-94027775D01*
X65002418Y-94015167D01*
X65061843Y-94000000D01*
X66956289Y-94000000D01*
X66984778Y-94003317D01*
G37*
%TD.AperFunction*%
%TD*%
%TA.AperFunction,Conductor*%
%TO.N,+3.3V*%
G36*
X64965740Y-96505021D02*
G01*
X64990984Y-96512434D01*
X65043730Y-96543730D01*
X65451073Y-96951073D01*
X65472223Y-96979325D01*
X65484831Y-97002414D01*
X65500000Y-97061843D01*
X65500000Y-100500000D01*
X66000000Y-101000000D01*
X68000000Y-101000000D01*
X68451076Y-100548923D01*
X68479326Y-100527775D01*
X68502418Y-100515167D01*
X68561843Y-100500000D01*
X69930808Y-100500000D01*
X69965740Y-100505021D01*
X69990984Y-100512434D01*
X70043730Y-100543730D01*
X70451073Y-100951073D01*
X70472223Y-100979325D01*
X70484831Y-101002414D01*
X70500000Y-101061843D01*
X70500000Y-105405534D01*
X70494976Y-105440471D01*
X70490238Y-105456606D01*
X70454101Y-105513939D01*
X70443887Y-105523109D01*
X70416502Y-105541748D01*
X69539096Y-105980451D01*
X69512135Y-105990224D01*
X69484782Y-105996682D01*
X69456289Y-106000000D01*
X63530119Y-106000000D01*
X63510257Y-105998399D01*
X63490776Y-105995237D01*
X63471428Y-105990476D01*
X62101701Y-105533899D01*
X62070151Y-105518089D01*
X62057315Y-105509169D01*
X62013498Y-105454751D01*
X62009415Y-105444879D01*
X62000000Y-105397485D01*
X62000000Y-101069191D01*
X62005022Y-101034258D01*
X62012434Y-101009013D01*
X62043728Y-100956271D01*
X62500000Y-100500000D01*
X63500000Y-99500000D01*
X63500000Y-97069191D01*
X63505022Y-97034258D01*
X63512434Y-97009013D01*
X63543728Y-96956271D01*
X63951076Y-96548923D01*
X63979326Y-96527775D01*
X64002418Y-96515167D01*
X64061843Y-96500000D01*
X64930808Y-96500000D01*
X64965740Y-96505021D01*
G37*
%TD.AperFunction*%
%TD*%
%TA.AperFunction,Conductor*%
%TO.N,VBUS*%
G36*
X70047977Y-90043990D02*
G01*
X70072272Y-90050500D01*
X70177726Y-90050500D01*
X70215067Y-90050500D01*
X70282106Y-90070185D01*
X70300875Y-90091846D01*
X70308820Y-90095050D01*
X70316716Y-90100786D01*
X70316719Y-90100789D01*
X70433285Y-90160182D01*
X70433286Y-90160182D01*
X70433288Y-90160183D01*
X70433287Y-90160183D01*
X70476618Y-90167045D01*
X70529997Y-90175500D01*
X71670002Y-90175499D01*
X71670007Y-90175499D01*
X71670007Y-90175498D01*
X71766715Y-90160182D01*
X71819706Y-90133181D01*
X71888374Y-90120286D01*
X71953114Y-90146562D01*
X71993372Y-90203668D01*
X72000000Y-90243667D01*
X72000000Y-90448638D01*
X71980315Y-90515677D01*
X71963681Y-90536319D01*
X71536319Y-90963681D01*
X71474996Y-90997166D01*
X71448638Y-91000000D01*
X70000000Y-91000000D01*
X68037230Y-93453462D01*
X67979979Y-93493514D01*
X67940402Y-93500000D01*
X64499999Y-93500000D01*
X64000000Y-93999999D01*
X64000000Y-95948638D01*
X63980315Y-96015677D01*
X63963681Y-96036319D01*
X63000000Y-96999999D01*
X63000000Y-98948638D01*
X62980315Y-99015677D01*
X62963681Y-99036319D01*
X62536319Y-99463681D01*
X62474996Y-99497166D01*
X62448638Y-99500000D01*
X62029272Y-99500000D01*
X61973818Y-99486909D01*
X61068546Y-99034273D01*
X61017387Y-98986686D01*
X61000000Y-98923364D01*
X61000000Y-97051362D01*
X61019685Y-96984323D01*
X61036319Y-96963681D01*
X62000000Y-96000000D01*
X62000000Y-94551362D01*
X62019685Y-94484323D01*
X62036319Y-94463681D01*
X63338181Y-93161819D01*
X63399504Y-93128334D01*
X63425862Y-93125500D01*
X66145923Y-93125500D01*
X66145925Y-93125500D01*
X66247786Y-93098207D01*
X66339111Y-93045480D01*
X66348272Y-93036319D01*
X66409595Y-93002834D01*
X66435953Y-93000000D01*
X67499999Y-93000000D01*
X67500000Y-93000000D01*
X69928031Y-90086361D01*
X69931476Y-90084053D01*
X69933372Y-90080358D01*
X69960253Y-90064766D01*
X69986066Y-90047466D01*
X69990234Y-90047376D01*
X69993811Y-90045302D01*
X70040394Y-90042934D01*
X70047977Y-90043990D01*
G37*
%TD.AperFunction*%
%TD*%
M02*
