%TF.GenerationSoftware,KiCad,Pcbnew,10.0.0*%
%TF.CreationDate,2026-04-28T07:58:37-06:00*%
%TF.ProjectId,2026_PhilsLab_PCBDesign,32303236-5f50-4686-996c-734c61625f50,rev?*%
%TF.SameCoordinates,Original*%
%TF.FileFunction,Paste,Top*%
%TF.FilePolarity,Positive*%
%FSLAX46Y46*%
G04 Gerber Fmt 4.6, Leading zero omitted, Abs format (unit mm)*
G04 Created by KiCad (PCBNEW 10.0.0) date 2026-04-28 07:58:37*
%MOMM*%
%LPD*%
G01*
G04 APERTURE LIST*
G04 Aperture macros list*
%AMRoundRect*
0 Rectangle with rounded corners*
0 $1 Rounding radius*
0 $2 $3 $4 $5 $6 $7 $8 $9 X,Y pos of 4 corners*
0 Add a 4 corners polygon primitive as box body*
4,1,4,$2,$3,$4,$5,$6,$7,$8,$9,$2,$3,0*
0 Add four circle primitives for the rounded corners*
1,1,$1+$1,$2,$3*
1,1,$1+$1,$4,$5*
1,1,$1+$1,$6,$7*
1,1,$1+$1,$8,$9*
0 Add four rect primitives between the rounded corners*
20,1,$1+$1,$2,$3,$4,$5,0*
20,1,$1+$1,$4,$5,$6,$7,0*
20,1,$1+$1,$6,$7,$8,$9,0*
20,1,$1+$1,$8,$9,$2,$3,0*%
G04 Aperture macros list end*
%ADD10RoundRect,0.250000X0.475000X-0.250000X0.475000X0.250000X-0.475000X0.250000X-0.475000X-0.250000X0*%
%ADD11RoundRect,0.135000X0.185000X-0.135000X0.185000X0.135000X-0.185000X0.135000X-0.185000X-0.135000X0*%
%ADD12RoundRect,0.250000X-0.475000X0.250000X-0.475000X-0.250000X0.475000X-0.250000X0.475000X0.250000X0*%
%ADD13R,0.800000X1.000000*%
%ADD14R,1.500000X0.700000*%
%ADD15RoundRect,0.250000X-0.250000X-0.475000X0.250000X-0.475000X0.250000X0.475000X-0.250000X0.475000X0*%
%ADD16RoundRect,0.250000X0.250000X0.475000X-0.250000X0.475000X-0.250000X-0.475000X0.250000X-0.475000X0*%
%ADD17RoundRect,0.375000X-0.375000X0.625000X-0.375000X-0.625000X0.375000X-0.625000X0.375000X0.625000X0*%
%ADD18RoundRect,0.500000X-1.400000X0.500000X-1.400000X-0.500000X1.400000X-0.500000X1.400000X0.500000X0*%
%ADD19RoundRect,0.075000X-0.662500X-0.075000X0.662500X-0.075000X0.662500X0.075000X-0.662500X0.075000X0*%
%ADD20RoundRect,0.075000X-0.075000X-0.662500X0.075000X-0.662500X0.075000X0.662500X-0.075000X0.662500X0*%
%ADD21RoundRect,0.135000X-0.135000X-0.185000X0.135000X-0.185000X0.135000X0.185000X-0.135000X0.185000X0*%
%ADD22RoundRect,0.135000X0.135000X0.185000X-0.135000X0.185000X-0.135000X-0.185000X0.135000X-0.185000X0*%
%ADD23RoundRect,0.135000X-0.185000X0.135000X-0.185000X-0.135000X0.185000X-0.135000X0.185000X0.135000X0*%
%ADD24RoundRect,0.112500X0.537500X-0.112500X0.537500X0.112500X-0.537500X0.112500X-0.537500X-0.112500X0*%
%ADD25RoundRect,0.218750X-0.256250X0.218750X-0.256250X-0.218750X0.256250X-0.218750X0.256250X0.218750X0*%
%ADD26RoundRect,0.250000X-0.350000X0.450000X-0.350000X-0.450000X0.350000X-0.450000X0.350000X0.450000X0*%
G04 APERTURE END LIST*
D10*
%TO.C,C6*%
X47500000Y-96950000D03*
X47500000Y-95050000D03*
%TD*%
D11*
%TO.C,R3*%
X73000000Y-96490000D03*
X73000000Y-97510000D03*
%TD*%
D12*
%TO.C,C1*%
X61500000Y-90950000D03*
X61500000Y-89050000D03*
%TD*%
D13*
%TO.C,SW1*%
X39280000Y-83350000D03*
X37070000Y-83350000D03*
X39280000Y-90650000D03*
X37070000Y-90650000D03*
D14*
X39930000Y-84750000D03*
X39930000Y-87750000D03*
X39930000Y-89250000D03*
%TD*%
D10*
%TO.C,C13*%
X69500000Y-101100000D03*
X69500000Y-99200000D03*
%TD*%
D15*
%TO.C,C12*%
X63550000Y-95150000D03*
X65450000Y-95150000D03*
%TD*%
D10*
%TO.C,C11*%
X44500000Y-96950000D03*
X44500000Y-95050000D03*
%TD*%
%TO.C,C10*%
X44500000Y-91950000D03*
X44500000Y-90050000D03*
%TD*%
D15*
%TO.C,C9*%
X51050000Y-101000000D03*
X52950000Y-101000000D03*
%TD*%
D16*
%TO.C,C8*%
X44950000Y-103000000D03*
X43050000Y-103000000D03*
%TD*%
%TO.C,C7*%
X44950000Y-100500000D03*
X43050000Y-100500000D03*
%TD*%
D15*
%TO.C,C5*%
X50550000Y-86500000D03*
X52450000Y-86500000D03*
%TD*%
D10*
%TO.C,C4*%
X47500000Y-90450000D03*
X47500000Y-88550000D03*
%TD*%
D15*
%TO.C,C3*%
X47550000Y-84000000D03*
X49450000Y-84000000D03*
%TD*%
D16*
%TO.C,C2*%
X58950000Y-100500000D03*
X57050000Y-100500000D03*
%TD*%
D17*
%TO.C,U2*%
X66800000Y-98000000D03*
X64500000Y-98000000D03*
D18*
X64500000Y-104300000D03*
D17*
X62200000Y-98000000D03*
%TD*%
D19*
%TO.C,U1*%
X50337500Y-90750000D03*
X50337500Y-91250000D03*
X50337500Y-91750000D03*
X50337500Y-92250000D03*
X50337500Y-92750000D03*
X50337500Y-93250000D03*
X50337500Y-93750000D03*
X50337500Y-94250000D03*
X50337500Y-94750000D03*
X50337500Y-95250000D03*
X50337500Y-95750000D03*
X50337500Y-96250000D03*
D20*
X51750000Y-97662500D03*
X52250000Y-97662500D03*
X52750000Y-97662500D03*
X53250000Y-97662500D03*
X53750000Y-97662500D03*
X54250000Y-97662500D03*
X54750000Y-97662500D03*
X55250000Y-97662500D03*
X55750000Y-97662500D03*
X56250000Y-97662500D03*
X56750000Y-97662500D03*
X57250000Y-97662500D03*
D19*
X58662500Y-96250000D03*
X58662500Y-95750000D03*
X58662500Y-95250000D03*
X58662500Y-94750000D03*
X58662500Y-94250000D03*
X58662500Y-93750000D03*
X58662500Y-93250000D03*
X58662500Y-92750000D03*
X58662500Y-92250000D03*
X58662500Y-91750000D03*
X58662500Y-91250000D03*
X58662500Y-90750000D03*
D20*
X57250000Y-89337500D03*
X56750000Y-89337500D03*
X56250000Y-89337500D03*
X55750000Y-89337500D03*
X55250000Y-89337500D03*
X54750000Y-89337500D03*
X54250000Y-89337500D03*
X53750000Y-89337500D03*
X53250000Y-89337500D03*
X52750000Y-89337500D03*
X52250000Y-89337500D03*
X51750000Y-89337500D03*
%TD*%
D21*
%TO.C,R5*%
X52490000Y-106000000D03*
X53510000Y-106000000D03*
%TD*%
D22*
%TO.C,R4*%
X51010000Y-106000000D03*
X49990000Y-106000000D03*
%TD*%
D23*
%TO.C,R2*%
X65000000Y-90990000D03*
X65000000Y-92010000D03*
%TD*%
D11*
%TO.C,R1*%
X42000000Y-87500000D03*
X42000000Y-86480000D03*
%TD*%
D24*
%TO.C,J1*%
X71100000Y-90300000D03*
X71100000Y-89650000D03*
X71100000Y-89000000D03*
X71100000Y-88350000D03*
X71100000Y-87700000D03*
%TD*%
D25*
%TO.C,FB1*%
X47000000Y-101212500D03*
X47000000Y-102787500D03*
%TD*%
%TO.C,D1*%
X73000000Y-99712500D03*
X73000000Y-101287500D03*
%TD*%
D26*
%TO.C,Y1*%
X40150000Y-92900000D03*
X40150000Y-95100000D03*
X41850000Y-95100000D03*
X41850000Y-92900000D03*
%TD*%
M02*
