%TF.GenerationSoftware,KiCad,Pcbnew,10.0.0*%
%TF.CreationDate,2026-04-28T07:58:38-06:00*%
%TF.ProjectId,2026_PhilsLab_PCBDesign,32303236-5f50-4686-996c-734c61625f50,rev?*%
%TF.SameCoordinates,Original*%
%TF.FileFunction,Legend,Bot*%
%TF.FilePolarity,Positive*%
%FSLAX46Y46*%
G04 Gerber Fmt 4.6, Leading zero omitted, Abs format (unit mm)*
G04 Created by KiCad (PCBNEW 10.0.0) date 2026-04-28 07:58:38*
%MOMM*%
%LPD*%
G01*
G04 APERTURE LIST*
%ADD10C,0.100000*%
G04 APERTURE END LIST*
D10*
X75838972Y-95372419D02*
X75505639Y-96372419D01*
X75505639Y-96372419D02*
X75172306Y-95372419D01*
X74315163Y-96372419D02*
X74886591Y-96372419D01*
X74600877Y-96372419D02*
X74600877Y-95372419D01*
X74600877Y-95372419D02*
X74696115Y-95515276D01*
X74696115Y-95515276D02*
X74791353Y-95610514D01*
X74791353Y-95610514D02*
X74886591Y-95658133D01*
X73886591Y-96277180D02*
X73838972Y-96324800D01*
X73838972Y-96324800D02*
X73886591Y-96372419D01*
X73886591Y-96372419D02*
X73934210Y-96324800D01*
X73934210Y-96324800D02*
X73886591Y-96277180D01*
X73886591Y-96277180D02*
X73886591Y-96372419D01*
X73219925Y-95372419D02*
X73124687Y-95372419D01*
X73124687Y-95372419D02*
X73029449Y-95420038D01*
X73029449Y-95420038D02*
X72981830Y-95467657D01*
X72981830Y-95467657D02*
X72934211Y-95562895D01*
X72934211Y-95562895D02*
X72886592Y-95753371D01*
X72886592Y-95753371D02*
X72886592Y-95991466D01*
X72886592Y-95991466D02*
X72934211Y-96181942D01*
X72934211Y-96181942D02*
X72981830Y-96277180D01*
X72981830Y-96277180D02*
X73029449Y-96324800D01*
X73029449Y-96324800D02*
X73124687Y-96372419D01*
X73124687Y-96372419D02*
X73219925Y-96372419D01*
X73219925Y-96372419D02*
X73315163Y-96324800D01*
X73315163Y-96324800D02*
X73362782Y-96277180D01*
X73362782Y-96277180D02*
X73410401Y-96181942D01*
X73410401Y-96181942D02*
X73458020Y-95991466D01*
X73458020Y-95991466D02*
X73458020Y-95753371D01*
X73458020Y-95753371D02*
X73410401Y-95562895D01*
X73410401Y-95562895D02*
X73362782Y-95467657D01*
X73362782Y-95467657D02*
X73315163Y-95420038D01*
X73315163Y-95420038D02*
X73219925Y-95372419D01*
M02*
