M48
; DRILL file KiCad 10.0.0 date 2026-05-01T10:29:34
; FORMAT={-:-/ absolute / metric / decimal}
; #@! TF.CreationDate,2026-05-01T10:29:34-06:00
; #@! TF.GenerationSoftware,Kicad,Pcbnew,10.0.0
; #@! TF.FileFunction,Plated,1,2,PTH
FMAT,2
METRIC
; #@! TA.AperFunction,Plated,PTH,ViaDrill
T1C0.300
; #@! TA.AperFunction,Plated,PTH,ComponentDrill
T2C0.600
; #@! TA.AperFunction,Plated,PTH,ComponentDrill
T3C0.950
; #@! TA.AperFunction,Plated,PTH,ComponentDrill
T4C1.000
%
G90
G05
T1
X117.094Y-122.682
X117.094Y-129.286
X119.126Y-120.65
X119.126Y-131.318
X120.396Y-125.984
X124.968Y-118.618
X130.302Y-117.602
X130.834Y-138.938
X131.064Y-111.76
X131.318Y-114.046
X133.604Y-131.826
X134.874Y-113.792
X135.128Y-127.254
X136.398Y-119.888
X137.922Y-119.888
X141.069Y-135.636
X142.748Y-128.27
X142.823Y-135.636
X143.002Y-119.888
X143.51Y-122.174
X146.071Y-115.899
X146.558Y-132.588
X147.066Y-123.698
X149.606Y-95.758
X149.606Y-104.14
X149.606Y-104.902
X149.606Y-113.538
X149.738Y-128.695
X152.024Y-122.345
X153.04Y-127.933
X155.072Y-123.361
X159.258Y-103.632
X159.512Y-112.776
X159.766Y-114.3
X160.02Y-94.488
X160.02Y-102.616
X160.02Y-111.506
X161.29Y-138.43
X161.798Y-116.586
X161.798Y-121.023
X162.052Y-101.854
X162.052Y-105.156
X162.052Y-113.538
X163.322Y-94.488
X163.322Y-130.048
X164.338Y-122.174
X166.624Y-143.256
X170.688Y-118.144
X170.688Y-120.048
X172.466Y-103.632
X173.882Y-103.632
X175.006Y-120.142
X178.816Y-120.719
X178.816Y-122.023
X179.578Y-126.238
X183.896Y-129.54
X184.15Y-126.238
X185.166Y-118.11
X185.166Y-118.872
X185.166Y-121.92
X185.166Y-122.682
T3
X117.916Y-137.939
X120.416Y-137.939
X122.722Y-104.902
X122.916Y-137.939
X125.222Y-104.902
X125.416Y-137.939
X127.722Y-104.902
X130.222Y-104.902
X132.722Y-104.902
T4
X111.76Y-134.112
X111.76Y-136.652
X111.76Y-139.192
X111.76Y-141.732
X114.046Y-105.41
X114.046Y-107.95
X114.046Y-110.49
X114.046Y-113.03
X116.586Y-105.41
X116.586Y-107.95
X116.586Y-110.49
X116.586Y-113.03
X142.748Y-143.764
X145.288Y-143.764
X147.828Y-143.764
X150.368Y-143.764
X152.908Y-143.764
X155.448Y-143.764
X157.988Y-143.764
X160.528Y-143.764
X168.168Y-97.011
X170.668Y-97.011
X178.856Y-140.97
X179.364Y-97.028
X181.356Y-140.97
X181.864Y-97.028
T2
G00X111.48Y-121.68
M15
G01X110.88Y-121.68
M16
G05
G00X111.48Y-130.32
M15
G01X110.88Y-130.32
M16
G05
G00X115.91Y-121.68
M15
G01X114.81Y-121.68
M16
G05
G00X115.91Y-130.32
M15
G01X114.81Y-130.32
M16
G05
M30
