%TF.GenerationSoftware,KiCad,Pcbnew,10.0.0*%
%TF.CreationDate,2026-05-01T10:30:26-06:00*%
%TF.ProjectId,20260501_2Wheel_Balance_Robot,32303236-3035-4303-915f-32576865656c,2.0*%
%TF.SameCoordinates,Original*%
%TF.FileFunction,Copper,L2,Bot*%
%TF.FilePolarity,Positive*%
%FSLAX46Y46*%
G04 Gerber Fmt 4.6, Leading zero omitted, Abs format (unit mm)*
G04 Created by KiCad (PCBNEW 10.0.0) date 2026-05-01 10:30:26*
%MOMM*%
%LPD*%
G01*
G04 APERTURE LIST*
G04 Aperture macros list*
%AMRoundRect*
0 Rectangle with rounded corners*
0 $1 Rounding radius*
0 $2 $3 $4 $5 $6 $7 $8 $9 X,Y pos of 4 corners*
0 Add a 4 corners polygon primitive as box body*
4,1,4,$2,$3,$4,$5,$6,$7,$8,$9,$2,$3,0*
0 Add four circle primitives for the rounded corners*
1,1,$1+$1,$2,$3*
1,1,$1+$1,$4,$5*
1,1,$1+$1,$6,$7*
1,1,$1+$1,$8,$9*
0 Add four rect primitives between the rounded corners*
20,1,$1+$1,$2,$3,$4,$5,0*
20,1,$1+$1,$4,$5,$6,$7,0*
20,1,$1+$1,$6,$7,$8,$9,0*
20,1,$1+$1,$8,$9,$2,$3,0*%
G04 Aperture macros list end*
%TA.AperFunction,ComponentPad*%
%ADD10RoundRect,0.250000X-0.600000X-0.750000X0.600000X-0.750000X0.600000X0.750000X-0.600000X0.750000X0*%
%TD*%
%TA.AperFunction,ComponentPad*%
%ADD11O,1.700000X2.000000*%
%TD*%
%TA.AperFunction,ComponentPad*%
%ADD12R,1.700000X1.700000*%
%TD*%
%TA.AperFunction,ComponentPad*%
%ADD13C,1.700000*%
%TD*%
%TA.AperFunction,ComponentPad*%
%ADD14O,2.100000X1.000000*%
%TD*%
%TA.AperFunction,ComponentPad*%
%ADD15O,1.600000X1.000000*%
%TD*%
%TA.AperFunction,ComponentPad*%
%ADD16RoundRect,0.250000X-0.600000X-0.725000X0.600000X-0.725000X0.600000X0.725000X-0.600000X0.725000X0*%
%TD*%
%TA.AperFunction,ComponentPad*%
%ADD17O,1.700000X1.950000*%
%TD*%
%TA.AperFunction,ComponentPad*%
%ADD18RoundRect,0.250000X0.600000X0.725000X-0.600000X0.725000X-0.600000X-0.725000X0.600000X-0.725000X0*%
%TD*%
%TA.AperFunction,ViaPad*%
%ADD19C,0.600000*%
%TD*%
%TA.AperFunction,Conductor*%
%ADD20C,0.508000*%
%TD*%
%TA.AperFunction,Conductor*%
%ADD21C,0.304800*%
%TD*%
%TA.AperFunction,Conductor*%
%ADD22C,0.254000*%
%TD*%
G04 APERTURE END LIST*
D10*
%TO.P,J6,1,Pin_1_1*%
%TO.N,/MD_AO1*%
X178856000Y-140970000D03*
D11*
%TO.P,J6,2,Pin_2_2*%
%TO.N,/MD_AO2*%
X181356000Y-140970000D03*
%TD*%
D10*
%TO.P,J5,1,Pin_1_1*%
%TO.N,VM*%
X168168000Y-97011000D03*
D11*
%TO.P,J5,2,Pin_2_2*%
%TO.N,GND*%
X170668000Y-97011000D03*
%TD*%
D12*
%TO.P,J4,1,Pin_1_1*%
%TO.N,GND*%
X114046000Y-113030000D03*
D13*
%TO.P,J4,2,Pin_2_2*%
%TO.N,/ESP_TX*%
X116586000Y-113030000D03*
%TO.P,J4,3,Pin_3_3*%
%TO.N,unconnected-(J4-Pin_3-Pad3)*%
X114046000Y-110490000D03*
%TO.P,J4,4,Pin_4_4*%
%TO.N,+3.3V*%
X116586000Y-110490000D03*
%TO.P,J4,5,Pin_5_5*%
%TO.N,Net-(J4-Pin_5)*%
X114046000Y-107950000D03*
%TO.P,J4,6,Pin_6_6*%
%TO.N,+3.3V*%
X116586000Y-107950000D03*
%TO.P,J4,7,Pin_7_7*%
%TO.N,/ESP_RX*%
X114046000Y-105410000D03*
%TO.P,J4,8,Pin_8_8*%
%TO.N,+3.3V*%
X116586000Y-105410000D03*
%TD*%
D14*
%TO.P,J3,SH,SHIELD_SH*%
%TO.N,GND*%
X115360000Y-121680000D03*
D15*
X111180000Y-121680000D03*
D14*
X115360000Y-130320000D03*
D15*
X111180000Y-130320000D03*
%TD*%
D12*
%TO.P,J2,1,Pin_1_1*%
%TO.N,+5V*%
X142748000Y-143764000D03*
D13*
%TO.P,J2,2,Pin_2_2*%
%TO.N,GND*%
X145288000Y-143764000D03*
%TO.P,J2,3,Pin_3_3*%
%TO.N,/IMU_SCL*%
X147828000Y-143764000D03*
%TO.P,J2,4,Pin_4_4*%
%TO.N,/IMU_SDA*%
X150368000Y-143764000D03*
%TO.P,J2,5,Pin_5_5*%
%TO.N,unconnected-(J2-Pin_5-Pad5)*%
X152908000Y-143764000D03*
%TO.P,J2,6,Pin_6_6*%
%TO.N,unconnected-(J2-Pin_6-Pad6)*%
X155448000Y-143764000D03*
%TO.P,J2,7,Pin_7_7*%
%TO.N,unconnected-(J2-Pin_7-Pad7)*%
X157988000Y-143764000D03*
%TO.P,J2,8,Pin_8_8*%
%TO.N,/IMU_INT*%
X160528000Y-143764000D03*
%TD*%
D16*
%TO.P,J9,1,Pin_1_1*%
%TO.N,+3.3V*%
X122722000Y-104902000D03*
D17*
%TO.P,J9,2,Pin_2_2*%
%TO.N,GND*%
X125222000Y-104902000D03*
%TO.P,J9,3,Pin_3_3*%
%TO.N,/MT_PWM*%
X127722000Y-104902000D03*
%TO.P,J9,4,Pin_4_4*%
%TO.N,/MT_SCL*%
X130222000Y-104902000D03*
%TO.P,J9,5,Pin_5_5*%
%TO.N,/MT_SDA*%
X132722000Y-104902000D03*
%TD*%
D12*
%TO.P,J1,1,Pin_1_1*%
%TO.N,+3.3V*%
X111760000Y-141732000D03*
D13*
%TO.P,J1,2,Pin_2_2*%
%TO.N,/SWCLK*%
X111760000Y-139192000D03*
%TO.P,J1,3,Pin_3_3*%
%TO.N,GND*%
X111760000Y-136652000D03*
%TO.P,J1,4,Pin_4_4*%
%TO.N,/SWDIO*%
X111760000Y-134112000D03*
%TD*%
D18*
%TO.P,J8,1,Pin_1_1*%
%TO.N,+3.3V*%
X125416000Y-137939000D03*
D17*
%TO.P,J8,2,Pin_2_2*%
%TO.N,/ENC_A*%
X122916000Y-137939000D03*
%TO.P,J8,3,Pin_3_3*%
%TO.N,/ENC_B*%
X120416000Y-137939000D03*
%TO.P,J8,4,Pin_4_4*%
%TO.N,GND*%
X117916000Y-137939000D03*
%TD*%
D10*
%TO.P,J7,1,Pin_1_1*%
%TO.N,/MD_BO1*%
X179364000Y-97028000D03*
D11*
%TO.P,J7,2,Pin_2_2*%
%TO.N,/MD_BO2*%
X181864000Y-97028000D03*
%TD*%
D19*
%TO.N,GND*%
X159766000Y-114300000D03*
X155072000Y-123361000D03*
X164338000Y-122174000D03*
X160020000Y-111506000D03*
X149738000Y-128695000D03*
X149606000Y-95758000D03*
X135128000Y-127254000D03*
X185166000Y-118872000D03*
X179578000Y-126238000D03*
X175006000Y-120142000D03*
X119126000Y-131318000D03*
X134874000Y-113792000D03*
X131064000Y-111760000D03*
X162052000Y-113538000D03*
X153040000Y-127933000D03*
X162052000Y-105156000D03*
X152024000Y-122345000D03*
X185166000Y-121920000D03*
X131318000Y-114046000D03*
X117094000Y-122682000D03*
X133604000Y-131826000D03*
X146071500Y-115899000D03*
X163322000Y-94488000D03*
X160020000Y-94488000D03*
X159512000Y-112776000D03*
X119126000Y-120650000D03*
X117094000Y-129286000D03*
X142748000Y-128270000D03*
X143002000Y-119888000D03*
X124968000Y-118618000D03*
X166624000Y-143256000D03*
X120396000Y-125984000D03*
X185166000Y-118110000D03*
X130302000Y-117602000D03*
X161290000Y-138430000D03*
X183896000Y-129540000D03*
X162052000Y-101854000D03*
X146558000Y-132588000D03*
X137922000Y-119888000D03*
X149606000Y-113538000D03*
X149606000Y-104140000D03*
X159258000Y-103632000D03*
X136398000Y-119888000D03*
X163322000Y-130048000D03*
X185166000Y-122682000D03*
X184150000Y-126238000D03*
X143510000Y-122174000D03*
X160020000Y-102616000D03*
X147066000Y-123698000D03*
X149606000Y-104902000D03*
X130834000Y-138938000D03*
%TO.N,+5V*%
X161798000Y-121023000D03*
X161798000Y-116586000D03*
%TO.N,VM*%
X178816000Y-122023400D03*
X178816000Y-120718600D03*
X173882500Y-103632000D03*
X172466000Y-103632000D03*
%TO.N,/MD_PWMB*%
X170688000Y-120048000D03*
X170688000Y-118144000D03*
%TO.N,+3.3V*%
X141069000Y-135636000D03*
X142823000Y-135636000D03*
%TD*%
%TO.N,+5V*%
D20*
X161798000Y-121023000D02*
X161798000Y-116586000D01*
%TO.N,VM*%
D21*
X178816000Y-122023400D02*
X178816000Y-120718600D01*
D20*
X172466000Y-103632000D02*
X173882500Y-103632000D01*
%TO.N,/MD_PWMB*%
D22*
X170688000Y-120048000D02*
X170688000Y-118144000D01*
%TO.N,+3.3V*%
D20*
X141069000Y-135636000D02*
X142823000Y-135636000D01*
%TD*%
%TA.AperFunction,Conductor*%
%TO.N,GND*%
G36*
X185228363Y-91960185D02*
G01*
X185249005Y-91976819D01*
X189963181Y-96690995D01*
X189996666Y-96752318D01*
X189999500Y-96778676D01*
X189999500Y-141990651D01*
X189979815Y-142057690D01*
X189965400Y-142076056D01*
X185495795Y-146780905D01*
X185435350Y-146815951D01*
X185405895Y-146819500D01*
X109844500Y-146819500D01*
X109777461Y-146799815D01*
X109731706Y-146747011D01*
X109720500Y-146695500D01*
X109720500Y-144015246D01*
X115871105Y-144015246D01*
X115871105Y-144227819D01*
X115901226Y-144417999D01*
X115904359Y-144437776D01*
X115915419Y-144471816D01*
X115970049Y-144639947D01*
X116066556Y-144829353D01*
X116191495Y-145001319D01*
X116341818Y-145151642D01*
X116513784Y-145276581D01*
X116513786Y-145276582D01*
X116513789Y-145276584D01*
X116703193Y-145373090D01*
X116905362Y-145438779D01*
X117115318Y-145472033D01*
X117115319Y-145472033D01*
X117327891Y-145472033D01*
X117327892Y-145472033D01*
X117537848Y-145438779D01*
X117740017Y-145373090D01*
X117929421Y-145276584D01*
X117951394Y-145260619D01*
X118101391Y-145151642D01*
X118101393Y-145151639D01*
X118101397Y-145151637D01*
X118251709Y-145001325D01*
X118251711Y-145001321D01*
X118251714Y-145001319D01*
X118376653Y-144829353D01*
X118376652Y-144829353D01*
X118376656Y-144829349D01*
X118473162Y-144639945D01*
X118538851Y-144437776D01*
X118572105Y-144227820D01*
X118572105Y-144015246D01*
X118538851Y-143805290D01*
X118473162Y-143603121D01*
X118376656Y-143413717D01*
X118376654Y-143413714D01*
X118376653Y-143413712D01*
X118251714Y-143241746D01*
X118101391Y-143091423D01*
X117929425Y-142966484D01*
X117740019Y-142869977D01*
X117740018Y-142869976D01*
X117740017Y-142869976D01*
X117728196Y-142866135D01*
X141397500Y-142866135D01*
X141397500Y-144661870D01*
X141397501Y-144661876D01*
X141403908Y-144721483D01*
X141454202Y-144856328D01*
X141454206Y-144856335D01*
X141540452Y-144971544D01*
X141540455Y-144971547D01*
X141655664Y-145057793D01*
X141655671Y-145057797D01*
X141790517Y-145108091D01*
X141790516Y-145108091D01*
X141797444Y-145108835D01*
X141850127Y-145114500D01*
X143645872Y-145114499D01*
X143705483Y-145108091D01*
X143840331Y-145057796D01*
X143955546Y-144971546D01*
X144041796Y-144856331D01*
X144092091Y-144721483D01*
X144098500Y-144661873D01*
X144098499Y-143657713D01*
X146477500Y-143657713D01*
X146477500Y-143870286D01*
X146510753Y-144080239D01*
X146576444Y-144282414D01*
X146672951Y-144471820D01*
X146797890Y-144643786D01*
X146948213Y-144794109D01*
X147120179Y-144919048D01*
X147120181Y-144919049D01*
X147120184Y-144919051D01*
X147309588Y-145015557D01*
X147511757Y-145081246D01*
X147721713Y-145114500D01*
X147721714Y-145114500D01*
X147934286Y-145114500D01*
X147934287Y-145114500D01*
X148144243Y-145081246D01*
X148346412Y-145015557D01*
X148535816Y-144919051D01*
X148622138Y-144856335D01*
X148707786Y-144794109D01*
X148707788Y-144794106D01*
X148707792Y-144794104D01*
X148858104Y-144643792D01*
X148858106Y-144643788D01*
X148858109Y-144643786D01*
X148983048Y-144471820D01*
X148983047Y-144471820D01*
X148983051Y-144471816D01*
X148987514Y-144463054D01*
X149035488Y-144412259D01*
X149103308Y-144395463D01*
X149169444Y-144417999D01*
X149208486Y-144463056D01*
X149212951Y-144471820D01*
X149337890Y-144643786D01*
X149488213Y-144794109D01*
X149660179Y-144919048D01*
X149660181Y-144919049D01*
X149660184Y-144919051D01*
X149849588Y-145015557D01*
X150051757Y-145081246D01*
X150261713Y-145114500D01*
X150261714Y-145114500D01*
X150474286Y-145114500D01*
X150474287Y-145114500D01*
X150684243Y-145081246D01*
X150886412Y-145015557D01*
X151075816Y-144919051D01*
X151162138Y-144856335D01*
X151247786Y-144794109D01*
X151247788Y-144794106D01*
X151247792Y-144794104D01*
X151398104Y-144643792D01*
X151398106Y-144643788D01*
X151398109Y-144643786D01*
X151523048Y-144471820D01*
X151523047Y-144471820D01*
X151523051Y-144471816D01*
X151527514Y-144463054D01*
X151575488Y-144412259D01*
X151643308Y-144395463D01*
X151709444Y-144417999D01*
X151748486Y-144463056D01*
X151752951Y-144471820D01*
X151877890Y-144643786D01*
X152028213Y-144794109D01*
X152200179Y-144919048D01*
X152200181Y-144919049D01*
X152200184Y-144919051D01*
X152389588Y-145015557D01*
X152591757Y-145081246D01*
X152801713Y-145114500D01*
X152801714Y-145114500D01*
X153014286Y-145114500D01*
X153014287Y-145114500D01*
X153224243Y-145081246D01*
X153426412Y-145015557D01*
X153615816Y-144919051D01*
X153702138Y-144856335D01*
X153787786Y-144794109D01*
X153787788Y-144794106D01*
X153787792Y-144794104D01*
X153938104Y-144643792D01*
X153938106Y-144643788D01*
X153938109Y-144643786D01*
X154063048Y-144471820D01*
X154063047Y-144471820D01*
X154063051Y-144471816D01*
X154067514Y-144463054D01*
X154115488Y-144412259D01*
X154183308Y-144395463D01*
X154249444Y-144417999D01*
X154288486Y-144463056D01*
X154292951Y-144471820D01*
X154417890Y-144643786D01*
X154568213Y-144794109D01*
X154740179Y-144919048D01*
X154740181Y-144919049D01*
X154740184Y-144919051D01*
X154929588Y-145015557D01*
X155131757Y-145081246D01*
X155341713Y-145114500D01*
X155341714Y-145114500D01*
X155554286Y-145114500D01*
X155554287Y-145114500D01*
X155764243Y-145081246D01*
X155966412Y-145015557D01*
X156155816Y-144919051D01*
X156242138Y-144856335D01*
X156327786Y-144794109D01*
X156327788Y-144794106D01*
X156327792Y-144794104D01*
X156478104Y-144643792D01*
X156478106Y-144643788D01*
X156478109Y-144643786D01*
X156603048Y-144471820D01*
X156603047Y-144471820D01*
X156603051Y-144471816D01*
X156607514Y-144463054D01*
X156655488Y-144412259D01*
X156723308Y-144395463D01*
X156789444Y-144417999D01*
X156828486Y-144463056D01*
X156832951Y-144471820D01*
X156957890Y-144643786D01*
X157108213Y-144794109D01*
X157280179Y-144919048D01*
X157280181Y-144919049D01*
X157280184Y-144919051D01*
X157469588Y-145015557D01*
X157671757Y-145081246D01*
X157881713Y-145114500D01*
X157881714Y-145114500D01*
X158094286Y-145114500D01*
X158094287Y-145114500D01*
X158304243Y-145081246D01*
X158506412Y-145015557D01*
X158695816Y-144919051D01*
X158782138Y-144856335D01*
X158867786Y-144794109D01*
X158867788Y-144794106D01*
X158867792Y-144794104D01*
X159018104Y-144643792D01*
X159018106Y-144643788D01*
X159018109Y-144643786D01*
X159143048Y-144471820D01*
X159143047Y-144471820D01*
X159143051Y-144471816D01*
X159147514Y-144463054D01*
X159195488Y-144412259D01*
X159263308Y-144395463D01*
X159329444Y-144417999D01*
X159368486Y-144463056D01*
X159372951Y-144471820D01*
X159497890Y-144643786D01*
X159648213Y-144794109D01*
X159820179Y-144919048D01*
X159820181Y-144919049D01*
X159820184Y-144919051D01*
X160009588Y-145015557D01*
X160211757Y-145081246D01*
X160421713Y-145114500D01*
X160421714Y-145114500D01*
X160634286Y-145114500D01*
X160634287Y-145114500D01*
X160844243Y-145081246D01*
X161046412Y-145015557D01*
X161235816Y-144919051D01*
X161322138Y-144856335D01*
X161407786Y-144794109D01*
X161407788Y-144794106D01*
X161407792Y-144794104D01*
X161558104Y-144643792D01*
X161558106Y-144643788D01*
X161558109Y-144643786D01*
X161683048Y-144471820D01*
X161683047Y-144471820D01*
X161683051Y-144471816D01*
X161779557Y-144282412D01*
X161845246Y-144080243D01*
X161878500Y-143870287D01*
X161878500Y-143657713D01*
X161845246Y-143447757D01*
X161779557Y-143245588D01*
X161683051Y-143056184D01*
X161683049Y-143056181D01*
X161683048Y-143056179D01*
X161558109Y-142884213D01*
X161407786Y-142733890D01*
X161235820Y-142608951D01*
X161046414Y-142512444D01*
X161046413Y-142512443D01*
X161046412Y-142512443D01*
X160844243Y-142446754D01*
X160844241Y-142446753D01*
X160844240Y-142446753D01*
X160682957Y-142421208D01*
X160634287Y-142413500D01*
X160421713Y-142413500D01*
X160373042Y-142421208D01*
X160211760Y-142446753D01*
X160009585Y-142512444D01*
X159820179Y-142608951D01*
X159648213Y-142733890D01*
X159497890Y-142884213D01*
X159372949Y-143056182D01*
X159368484Y-143064946D01*
X159320509Y-143115742D01*
X159252688Y-143132536D01*
X159186553Y-143109998D01*
X159147516Y-143064946D01*
X159143050Y-143056182D01*
X159018109Y-142884213D01*
X158867786Y-142733890D01*
X158695820Y-142608951D01*
X158506414Y-142512444D01*
X158506413Y-142512443D01*
X158506412Y-142512443D01*
X158304243Y-142446754D01*
X158304241Y-142446753D01*
X158304240Y-142446753D01*
X158142957Y-142421208D01*
X158094287Y-142413500D01*
X157881713Y-142413500D01*
X157833042Y-142421208D01*
X157671760Y-142446753D01*
X157469585Y-142512444D01*
X157280179Y-142608951D01*
X157108213Y-142733890D01*
X156957890Y-142884213D01*
X156832949Y-143056182D01*
X156828484Y-143064946D01*
X156780509Y-143115742D01*
X156712688Y-143132536D01*
X156646553Y-143109998D01*
X156607516Y-143064946D01*
X156603050Y-143056182D01*
X156478109Y-142884213D01*
X156327786Y-142733890D01*
X156155820Y-142608951D01*
X155966414Y-142512444D01*
X155966413Y-142512443D01*
X155966412Y-142512443D01*
X155764243Y-142446754D01*
X155764241Y-142446753D01*
X155764240Y-142446753D01*
X155602957Y-142421208D01*
X155554287Y-142413500D01*
X155341713Y-142413500D01*
X155293042Y-142421208D01*
X155131760Y-142446753D01*
X154929585Y-142512444D01*
X154740179Y-142608951D01*
X154568213Y-142733890D01*
X154417890Y-142884213D01*
X154292949Y-143056182D01*
X154288484Y-143064946D01*
X154240509Y-143115742D01*
X154172688Y-143132536D01*
X154106553Y-143109998D01*
X154067516Y-143064946D01*
X154063050Y-143056182D01*
X153938109Y-142884213D01*
X153787786Y-142733890D01*
X153615820Y-142608951D01*
X153426414Y-142512444D01*
X153426413Y-142512443D01*
X153426412Y-142512443D01*
X153224243Y-142446754D01*
X153224241Y-142446753D01*
X153224240Y-142446753D01*
X153062957Y-142421208D01*
X153014287Y-142413500D01*
X152801713Y-142413500D01*
X152753042Y-142421208D01*
X152591760Y-142446753D01*
X152389585Y-142512444D01*
X152200179Y-142608951D01*
X152028213Y-142733890D01*
X151877890Y-142884213D01*
X151752949Y-143056182D01*
X151748484Y-143064946D01*
X151700509Y-143115742D01*
X151632688Y-143132536D01*
X151566553Y-143109998D01*
X151527516Y-143064946D01*
X151523050Y-143056182D01*
X151398109Y-142884213D01*
X151247786Y-142733890D01*
X151075820Y-142608951D01*
X150886414Y-142512444D01*
X150886413Y-142512443D01*
X150886412Y-142512443D01*
X150684243Y-142446754D01*
X150684241Y-142446753D01*
X150684240Y-142446753D01*
X150522957Y-142421208D01*
X150474287Y-142413500D01*
X150261713Y-142413500D01*
X150213042Y-142421208D01*
X150051760Y-142446753D01*
X149849585Y-142512444D01*
X149660179Y-142608951D01*
X149488213Y-142733890D01*
X149337890Y-142884213D01*
X149212949Y-143056182D01*
X149208484Y-143064946D01*
X149160509Y-143115742D01*
X149092688Y-143132536D01*
X149026553Y-143109998D01*
X148987516Y-143064946D01*
X148983050Y-143056182D01*
X148858109Y-142884213D01*
X148707786Y-142733890D01*
X148535820Y-142608951D01*
X148346414Y-142512444D01*
X148346413Y-142512443D01*
X148346412Y-142512443D01*
X148144243Y-142446754D01*
X148144241Y-142446753D01*
X148144240Y-142446753D01*
X147982957Y-142421208D01*
X147934287Y-142413500D01*
X147721713Y-142413500D01*
X147673042Y-142421208D01*
X147511760Y-142446753D01*
X147309585Y-142512444D01*
X147120179Y-142608951D01*
X146948213Y-142733890D01*
X146797890Y-142884213D01*
X146672951Y-143056179D01*
X146576444Y-143245585D01*
X146510753Y-143447760D01*
X146477500Y-143657713D01*
X144098499Y-143657713D01*
X144098499Y-142866128D01*
X144092091Y-142806517D01*
X144091259Y-142804287D01*
X144041797Y-142671671D01*
X144041793Y-142671664D01*
X143955547Y-142556455D01*
X143955544Y-142556452D01*
X143840335Y-142470206D01*
X143840328Y-142470202D01*
X143705482Y-142419908D01*
X143705483Y-142419908D01*
X143645883Y-142413501D01*
X143645881Y-142413500D01*
X143645873Y-142413500D01*
X143645864Y-142413500D01*
X141850129Y-142413500D01*
X141850123Y-142413501D01*
X141790516Y-142419908D01*
X141655671Y-142470202D01*
X141655664Y-142470206D01*
X141540455Y-142556452D01*
X141540452Y-142556455D01*
X141454206Y-142671664D01*
X141454202Y-142671671D01*
X141403908Y-142806517D01*
X141401993Y-142824335D01*
X141397501Y-142866123D01*
X141397500Y-142866135D01*
X117728196Y-142866135D01*
X117537848Y-142804287D01*
X117537846Y-142804286D01*
X117537845Y-142804286D01*
X117376562Y-142778741D01*
X117327892Y-142771033D01*
X117115318Y-142771033D01*
X117066647Y-142778741D01*
X116905365Y-142804286D01*
X116703190Y-142869977D01*
X116513784Y-142966484D01*
X116341818Y-143091423D01*
X116191495Y-143241746D01*
X116066556Y-143413712D01*
X115970049Y-143603118D01*
X115904358Y-143805293D01*
X115871105Y-144015246D01*
X109720500Y-144015246D01*
X109720500Y-139085713D01*
X110409500Y-139085713D01*
X110409500Y-139298286D01*
X110441884Y-139502754D01*
X110442754Y-139508243D01*
X110481434Y-139627288D01*
X110508444Y-139710414D01*
X110604951Y-139899820D01*
X110729890Y-140071786D01*
X110843430Y-140185326D01*
X110876915Y-140246649D01*
X110871931Y-140316341D01*
X110830059Y-140372274D01*
X110799083Y-140389189D01*
X110667669Y-140438203D01*
X110667664Y-140438206D01*
X110552455Y-140524452D01*
X110552452Y-140524455D01*
X110466206Y-140639664D01*
X110466202Y-140639671D01*
X110415908Y-140774517D01*
X110409501Y-140834116D01*
X110409501Y-140834123D01*
X110409500Y-140834135D01*
X110409500Y-142629870D01*
X110409501Y-142629876D01*
X110415908Y-142689483D01*
X110466202Y-142824328D01*
X110466206Y-142824335D01*
X110552452Y-142939544D01*
X110552455Y-142939547D01*
X110667664Y-143025793D01*
X110667671Y-143025797D01*
X110802517Y-143076091D01*
X110802516Y-143076091D01*
X110809444Y-143076835D01*
X110862127Y-143082500D01*
X112657872Y-143082499D01*
X112717483Y-143076091D01*
X112852331Y-143025796D01*
X112967546Y-142939546D01*
X113053796Y-142824331D01*
X113104091Y-142689483D01*
X113110500Y-142629873D01*
X113110499Y-141546995D01*
X131681499Y-141546995D01*
X131708418Y-141682322D01*
X131708421Y-141682332D01*
X131761221Y-141809804D01*
X131761228Y-141809817D01*
X131837885Y-141924541D01*
X131837888Y-141924545D01*
X131935454Y-142022111D01*
X131935458Y-142022114D01*
X132050182Y-142098771D01*
X132050195Y-142098778D01*
X132177667Y-142151578D01*
X132177672Y-142151580D01*
X132177676Y-142151580D01*
X132177677Y-142151581D01*
X132313004Y-142178500D01*
X132313007Y-142178500D01*
X132450995Y-142178500D01*
X132542041Y-142160389D01*
X132586328Y-142151580D01*
X132713811Y-142098775D01*
X132828542Y-142022114D01*
X132926114Y-141924542D01*
X133002775Y-141809811D01*
X133055580Y-141682328D01*
X133082500Y-141546995D01*
X134681499Y-141546995D01*
X134708418Y-141682322D01*
X134708421Y-141682332D01*
X134761221Y-141809804D01*
X134761228Y-141809817D01*
X134837885Y-141924541D01*
X134837888Y-141924545D01*
X134935454Y-142022111D01*
X134935458Y-142022114D01*
X135050182Y-142098771D01*
X135050195Y-142098778D01*
X135177667Y-142151578D01*
X135177672Y-142151580D01*
X135177676Y-142151580D01*
X135177677Y-142151581D01*
X135313004Y-142178500D01*
X135313007Y-142178500D01*
X135450995Y-142178500D01*
X135542041Y-142160389D01*
X135586328Y-142151580D01*
X135713811Y-142098775D01*
X135828542Y-142022114D01*
X135926114Y-141924542D01*
X136002775Y-141809811D01*
X136055580Y-141682328D01*
X136082500Y-141546993D01*
X136082500Y-141409007D01*
X136082500Y-141409004D01*
X136055581Y-141273677D01*
X136055580Y-141273676D01*
X136055580Y-141273672D01*
X136035952Y-141226286D01*
X136002778Y-141146195D01*
X136002771Y-141146182D01*
X135926114Y-141031458D01*
X135926111Y-141031454D01*
X135828545Y-140933888D01*
X135828541Y-140933885D01*
X135713817Y-140857228D01*
X135713804Y-140857221D01*
X135586332Y-140804421D01*
X135586322Y-140804418D01*
X135450995Y-140777500D01*
X135450993Y-140777500D01*
X135313007Y-140777500D01*
X135313005Y-140777500D01*
X135177677Y-140804418D01*
X135177667Y-140804421D01*
X135050195Y-140857221D01*
X135050182Y-140857228D01*
X134935458Y-140933885D01*
X134935454Y-140933888D01*
X134837888Y-141031454D01*
X134837885Y-141031458D01*
X134761228Y-141146182D01*
X134761221Y-141146195D01*
X134708421Y-141273667D01*
X134708418Y-141273677D01*
X134681500Y-141409004D01*
X134681500Y-141409007D01*
X134681500Y-141546993D01*
X134681500Y-141546995D01*
X134681499Y-141546995D01*
X133082500Y-141546995D01*
X133082500Y-141546993D01*
X133082500Y-141409007D01*
X133082500Y-141409004D01*
X133055581Y-141273677D01*
X133055580Y-141273676D01*
X133055580Y-141273672D01*
X133035952Y-141226286D01*
X133002778Y-141146195D01*
X133002771Y-141146182D01*
X132926114Y-141031458D01*
X132926111Y-141031454D01*
X132828545Y-140933888D01*
X132828541Y-140933885D01*
X132713817Y-140857228D01*
X132713804Y-140857221D01*
X132586332Y-140804421D01*
X132586322Y-140804418D01*
X132450995Y-140777500D01*
X132450993Y-140777500D01*
X132313007Y-140777500D01*
X132313005Y-140777500D01*
X132177677Y-140804418D01*
X132177667Y-140804421D01*
X132050195Y-140857221D01*
X132050182Y-140857228D01*
X131935458Y-140933885D01*
X131935454Y-140933888D01*
X131837888Y-141031454D01*
X131837885Y-141031458D01*
X131761228Y-141146182D01*
X131761221Y-141146195D01*
X131708421Y-141273667D01*
X131708418Y-141273677D01*
X131681500Y-141409004D01*
X131681500Y-141409007D01*
X131681500Y-141546993D01*
X131681500Y-141546995D01*
X131681499Y-141546995D01*
X113110499Y-141546995D01*
X113110499Y-140834128D01*
X113104091Y-140774517D01*
X113053796Y-140639669D01*
X113053795Y-140639668D01*
X113053793Y-140639664D01*
X112967547Y-140524455D01*
X112967544Y-140524452D01*
X112852335Y-140438206D01*
X112852328Y-140438202D01*
X112720917Y-140389189D01*
X112664983Y-140347318D01*
X112640566Y-140281853D01*
X112655418Y-140213580D01*
X112676563Y-140185332D01*
X112691912Y-140169983D01*
X177505500Y-140169983D01*
X177505500Y-141770001D01*
X177505501Y-141770018D01*
X177516000Y-141872796D01*
X177516001Y-141872799D01*
X177571185Y-142039331D01*
X177571187Y-142039336D01*
X177582508Y-142057690D01*
X177663288Y-142188656D01*
X177787344Y-142312712D01*
X177936666Y-142404814D01*
X178103203Y-142459999D01*
X178205991Y-142470500D01*
X179506008Y-142470499D01*
X179508916Y-142470202D01*
X179523895Y-142468671D01*
X179608797Y-142459999D01*
X179775334Y-142404814D01*
X179924656Y-142312712D01*
X180048712Y-142188656D01*
X180140814Y-142039334D01*
X180140814Y-142039331D01*
X180144178Y-142033879D01*
X180196126Y-141987154D01*
X180265088Y-141975931D01*
X180329170Y-142003774D01*
X180337398Y-142011294D01*
X180476213Y-142150109D01*
X180648179Y-142275048D01*
X180648181Y-142275049D01*
X180648184Y-142275051D01*
X180837588Y-142371557D01*
X181039757Y-142437246D01*
X181249713Y-142470500D01*
X181249714Y-142470500D01*
X181462286Y-142470500D01*
X181462287Y-142470500D01*
X181672243Y-142437246D01*
X181874412Y-142371557D01*
X182063816Y-142275051D01*
X182120914Y-142233567D01*
X182235786Y-142150109D01*
X182235788Y-142150106D01*
X182235792Y-142150104D01*
X182386104Y-141999792D01*
X182386106Y-141999788D01*
X182386109Y-141999786D01*
X182511048Y-141827820D01*
X182511047Y-141827820D01*
X182511051Y-141827816D01*
X182607557Y-141638412D01*
X182673246Y-141436243D01*
X182706500Y-141226287D01*
X182706500Y-140713713D01*
X182673246Y-140503757D01*
X182607557Y-140301588D01*
X182511051Y-140112184D01*
X182511049Y-140112181D01*
X182511048Y-140112179D01*
X182386109Y-139940213D01*
X182235786Y-139789890D01*
X182063820Y-139664951D01*
X181874414Y-139568444D01*
X181874413Y-139568443D01*
X181874412Y-139568443D01*
X181672243Y-139502754D01*
X181672241Y-139502753D01*
X181672240Y-139502753D01*
X181510957Y-139477208D01*
X181462287Y-139469500D01*
X181249713Y-139469500D01*
X181201042Y-139477208D01*
X181039760Y-139502753D01*
X180837585Y-139568444D01*
X180648179Y-139664951D01*
X180476215Y-139789889D01*
X180337398Y-139928706D01*
X180276075Y-139962190D01*
X180206383Y-139957206D01*
X180150450Y-139915334D01*
X180144178Y-139906120D01*
X180048712Y-139751344D01*
X179924657Y-139627289D01*
X179924656Y-139627288D01*
X179775334Y-139535186D01*
X179608797Y-139480001D01*
X179608795Y-139480000D01*
X179506010Y-139469500D01*
X178205998Y-139469500D01*
X178205981Y-139469501D01*
X178103203Y-139480000D01*
X178103200Y-139480001D01*
X177936668Y-139535185D01*
X177936663Y-139535187D01*
X177787342Y-139627289D01*
X177663289Y-139751342D01*
X177571187Y-139900663D01*
X177571185Y-139900668D01*
X177566325Y-139915334D01*
X177516001Y-140067203D01*
X177516001Y-140067204D01*
X177516000Y-140067204D01*
X177505500Y-140169983D01*
X112691912Y-140169983D01*
X112790104Y-140071792D01*
X112790106Y-140071788D01*
X112790109Y-140071786D01*
X112915048Y-139899820D01*
X112915047Y-139899820D01*
X112915051Y-139899816D01*
X113011557Y-139710412D01*
X113077246Y-139508243D01*
X113110500Y-139298287D01*
X113110500Y-139085713D01*
X113077246Y-138875757D01*
X113011557Y-138673588D01*
X112915051Y-138484184D01*
X112915049Y-138484181D01*
X112915048Y-138484179D01*
X112790109Y-138312213D01*
X112639786Y-138161890D01*
X112467820Y-138036951D01*
X112278414Y-137940444D01*
X112278413Y-137940443D01*
X112278412Y-137940443D01*
X112076243Y-137874754D01*
X112076241Y-137874753D01*
X112076240Y-137874753D01*
X111914957Y-137849208D01*
X111866287Y-137841500D01*
X111653713Y-137841500D01*
X111605042Y-137849208D01*
X111443760Y-137874753D01*
X111241585Y-137940444D01*
X111052179Y-138036951D01*
X110880213Y-138161890D01*
X110729890Y-138312213D01*
X110604951Y-138484179D01*
X110508444Y-138673585D01*
X110442753Y-138875760D01*
X110409500Y-139085713D01*
X109720500Y-139085713D01*
X109720500Y-137707713D01*
X119065500Y-137707713D01*
X119065500Y-138170287D01*
X119098754Y-138380243D01*
X119160915Y-138571555D01*
X119164444Y-138582414D01*
X119260951Y-138771820D01*
X119385890Y-138943786D01*
X119536213Y-139094109D01*
X119708179Y-139219048D01*
X119708181Y-139219049D01*
X119708184Y-139219051D01*
X119897588Y-139315557D01*
X120099757Y-139381246D01*
X120309713Y-139414500D01*
X120309714Y-139414500D01*
X120522286Y-139414500D01*
X120522287Y-139414500D01*
X120732243Y-139381246D01*
X120934412Y-139315557D01*
X121123816Y-139219051D01*
X121145789Y-139203086D01*
X121295786Y-139094109D01*
X121295788Y-139094106D01*
X121295792Y-139094104D01*
X121446104Y-138943792D01*
X121565683Y-138779204D01*
X121621011Y-138736540D01*
X121690624Y-138730561D01*
X121752420Y-138763166D01*
X121766313Y-138779199D01*
X121869925Y-138921809D01*
X121885896Y-138943792D01*
X122036213Y-139094109D01*
X122208179Y-139219048D01*
X122208181Y-139219049D01*
X122208184Y-139219051D01*
X122397588Y-139315557D01*
X122599757Y-139381246D01*
X122809713Y-139414500D01*
X122809714Y-139414500D01*
X123022286Y-139414500D01*
X123022287Y-139414500D01*
X123232243Y-139381246D01*
X123434412Y-139315557D01*
X123623816Y-139219051D01*
X123795792Y-139094104D01*
X123934604Y-138955291D01*
X123995923Y-138921809D01*
X124065615Y-138926793D01*
X124121549Y-138968664D01*
X124127821Y-138977878D01*
X124131185Y-138983333D01*
X124131186Y-138983334D01*
X124223288Y-139132656D01*
X124347344Y-139256712D01*
X124496666Y-139348814D01*
X124663203Y-139403999D01*
X124765991Y-139414500D01*
X126066008Y-139414499D01*
X126168797Y-139403999D01*
X126335334Y-139348814D01*
X126484656Y-139256712D01*
X126608712Y-139132656D01*
X126700814Y-138983334D01*
X126755999Y-138816797D01*
X126766500Y-138714009D01*
X126766499Y-137213713D01*
X185869500Y-137213713D01*
X185869500Y-137426286D01*
X185902753Y-137636239D01*
X185968444Y-137838414D01*
X186064951Y-138027820D01*
X186189890Y-138199786D01*
X186340213Y-138350109D01*
X186512179Y-138475048D01*
X186512181Y-138475049D01*
X186512184Y-138475051D01*
X186701588Y-138571557D01*
X186903757Y-138637246D01*
X187113713Y-138670500D01*
X187113714Y-138670500D01*
X187326286Y-138670500D01*
X187326287Y-138670500D01*
X187536243Y-138637246D01*
X187738412Y-138571557D01*
X187927816Y-138475051D01*
X187949789Y-138459086D01*
X188099786Y-138350109D01*
X188099788Y-138350106D01*
X188099792Y-138350104D01*
X188250104Y-138199792D01*
X188250106Y-138199788D01*
X188250109Y-138199786D01*
X188368414Y-138036951D01*
X188375051Y-138027816D01*
X188471557Y-137838412D01*
X188537246Y-137636243D01*
X188570500Y-137426287D01*
X188570500Y-137213713D01*
X188537246Y-137003757D01*
X188471557Y-136801588D01*
X188375051Y-136612184D01*
X188375049Y-136612181D01*
X188375048Y-136612179D01*
X188250109Y-136440213D01*
X188099786Y-136289890D01*
X187927820Y-136164951D01*
X187738414Y-136068444D01*
X187738413Y-136068443D01*
X187738412Y-136068443D01*
X187536243Y-136002754D01*
X187536241Y-136002753D01*
X187536240Y-136002753D01*
X187374957Y-135977208D01*
X187326287Y-135969500D01*
X187113713Y-135969500D01*
X187065042Y-135977208D01*
X186903760Y-136002753D01*
X186701585Y-136068444D01*
X186512179Y-136164951D01*
X186340213Y-136289890D01*
X186189890Y-136440213D01*
X186064951Y-136612179D01*
X185968444Y-136801585D01*
X185902753Y-137003760D01*
X185869500Y-137213713D01*
X126766499Y-137213713D01*
X126766499Y-137163992D01*
X126755999Y-137061203D01*
X126700814Y-136894666D01*
X126608712Y-136745344D01*
X126484656Y-136621288D01*
X126335334Y-136529186D01*
X126168797Y-136474001D01*
X126168795Y-136474000D01*
X126066010Y-136463500D01*
X124765998Y-136463500D01*
X124765981Y-136463501D01*
X124663203Y-136474000D01*
X124663200Y-136474001D01*
X124496668Y-136529185D01*
X124496663Y-136529187D01*
X124347342Y-136621289D01*
X124223289Y-136745342D01*
X124127821Y-136900121D01*
X124075873Y-136946845D01*
X124006910Y-136958068D01*
X123942828Y-136930224D01*
X123934601Y-136922705D01*
X123795786Y-136783890D01*
X123623820Y-136658951D01*
X123434414Y-136562444D01*
X123434413Y-136562443D01*
X123434412Y-136562443D01*
X123232243Y-136496754D01*
X123232241Y-136496753D01*
X123232240Y-136496753D01*
X123070957Y-136471208D01*
X123022287Y-136463500D01*
X122809713Y-136463500D01*
X122761042Y-136471208D01*
X122599760Y-136496753D01*
X122397585Y-136562444D01*
X122208179Y-136658951D01*
X122036213Y-136783890D01*
X121885894Y-136934209D01*
X121885890Y-136934214D01*
X121766318Y-137098793D01*
X121710989Y-137141459D01*
X121641375Y-137147438D01*
X121579580Y-137114833D01*
X121565682Y-137098793D01*
X121446109Y-136934214D01*
X121446105Y-136934209D01*
X121295786Y-136783890D01*
X121123820Y-136658951D01*
X120934414Y-136562444D01*
X120934413Y-136562443D01*
X120934412Y-136562443D01*
X120732243Y-136496754D01*
X120732241Y-136496753D01*
X120732240Y-136496753D01*
X120570957Y-136471208D01*
X120522287Y-136463500D01*
X120309713Y-136463500D01*
X120261042Y-136471208D01*
X120099760Y-136496753D01*
X119897585Y-136562444D01*
X119708179Y-136658951D01*
X119536213Y-136783890D01*
X119385890Y-136934213D01*
X119260951Y-137106179D01*
X119164444Y-137295585D01*
X119098753Y-137497760D01*
X119076820Y-137636239D01*
X119065500Y-137707713D01*
X109720500Y-137707713D01*
X109720500Y-135557153D01*
X140268500Y-135557153D01*
X140268500Y-135714846D01*
X140299261Y-135869489D01*
X140299264Y-135869501D01*
X140359602Y-136015172D01*
X140359609Y-136015185D01*
X140447210Y-136146288D01*
X140447213Y-136146292D01*
X140558707Y-136257786D01*
X140558711Y-136257789D01*
X140689814Y-136345390D01*
X140689827Y-136345397D01*
X140798717Y-136390500D01*
X140835503Y-136405737D01*
X140990153Y-136436499D01*
X140990156Y-136436500D01*
X140990158Y-136436500D01*
X141147844Y-136436500D01*
X141147845Y-136436499D01*
X141224152Y-136421320D01*
X141302488Y-136405739D01*
X141302489Y-136405738D01*
X141302497Y-136405737D01*
X141316498Y-136399937D01*
X141363947Y-136390500D01*
X142528053Y-136390500D01*
X142575501Y-136399937D01*
X142589503Y-136405737D01*
X142589508Y-136405738D01*
X142589511Y-136405739D01*
X142744153Y-136436499D01*
X142744156Y-136436500D01*
X142744158Y-136436500D01*
X142901844Y-136436500D01*
X142901845Y-136436499D01*
X143056497Y-136405737D01*
X143202179Y-136345394D01*
X143333289Y-136257789D01*
X143444789Y-136146289D01*
X143532394Y-136015179D01*
X143592737Y-135869497D01*
X143623500Y-135714842D01*
X143623500Y-135557158D01*
X143623500Y-135557155D01*
X143623499Y-135557153D01*
X143604671Y-135462500D01*
X143592737Y-135402503D01*
X143576605Y-135363557D01*
X143532397Y-135256827D01*
X143532390Y-135256814D01*
X143444789Y-135125711D01*
X143444786Y-135125707D01*
X143333292Y-135014213D01*
X143333288Y-135014210D01*
X143202185Y-134926609D01*
X143202172Y-134926602D01*
X143056501Y-134866264D01*
X143056489Y-134866261D01*
X142901845Y-134835500D01*
X142901842Y-134835500D01*
X142744158Y-134835500D01*
X142744155Y-134835500D01*
X142589511Y-134866260D01*
X142589506Y-134866262D01*
X142589504Y-134866262D01*
X142589503Y-134866263D01*
X142575501Y-134872062D01*
X142528053Y-134881500D01*
X141363947Y-134881500D01*
X141316498Y-134872062D01*
X141302497Y-134866263D01*
X141302493Y-134866262D01*
X141302488Y-134866260D01*
X141147845Y-134835500D01*
X141147842Y-134835500D01*
X140990158Y-134835500D01*
X140990155Y-134835500D01*
X140835510Y-134866261D01*
X140835498Y-134866264D01*
X140689827Y-134926602D01*
X140689814Y-134926609D01*
X140558711Y-135014210D01*
X140558707Y-135014213D01*
X140447213Y-135125707D01*
X140447210Y-135125711D01*
X140359609Y-135256814D01*
X140359602Y-135256827D01*
X140299264Y-135402498D01*
X140299261Y-135402510D01*
X140268500Y-135557153D01*
X109720500Y-135557153D01*
X109720500Y-134005713D01*
X110409500Y-134005713D01*
X110409500Y-134218286D01*
X110442753Y-134428239D01*
X110508444Y-134630414D01*
X110604951Y-134819820D01*
X110729890Y-134991786D01*
X110880213Y-135142109D01*
X111052179Y-135267048D01*
X111052181Y-135267049D01*
X111052184Y-135267051D01*
X111241588Y-135363557D01*
X111443757Y-135429246D01*
X111653713Y-135462500D01*
X111653714Y-135462500D01*
X111866286Y-135462500D01*
X111866287Y-135462500D01*
X112076243Y-135429246D01*
X112278412Y-135363557D01*
X112467816Y-135267051D01*
X112489789Y-135251086D01*
X112639786Y-135142109D01*
X112639788Y-135142106D01*
X112639792Y-135142104D01*
X112790104Y-134991792D01*
X112790106Y-134991788D01*
X112790109Y-134991786D01*
X112915048Y-134819820D01*
X112915047Y-134819820D01*
X112915051Y-134819816D01*
X113011557Y-134630412D01*
X113077246Y-134428243D01*
X113110500Y-134218287D01*
X113110500Y-134005713D01*
X113077246Y-133795757D01*
X113011557Y-133593588D01*
X112915051Y-133404184D01*
X112915049Y-133404181D01*
X112915048Y-133404179D01*
X112790109Y-133232213D01*
X112639786Y-133081890D01*
X112467820Y-132956951D01*
X112278414Y-132860444D01*
X112278413Y-132860443D01*
X112278412Y-132860443D01*
X112076243Y-132794754D01*
X112076241Y-132794753D01*
X112076240Y-132794753D01*
X111914957Y-132769208D01*
X111866287Y-132761500D01*
X111653713Y-132761500D01*
X111605042Y-132769208D01*
X111443760Y-132794753D01*
X111241585Y-132860444D01*
X111052179Y-132956951D01*
X110880213Y-133081890D01*
X110729890Y-133232213D01*
X110604951Y-133404179D01*
X110508444Y-133593585D01*
X110442753Y-133795760D01*
X110409500Y-134005713D01*
X109720500Y-134005713D01*
X109720500Y-116507153D01*
X160997500Y-116507153D01*
X160997500Y-116664846D01*
X161028261Y-116819489D01*
X161028263Y-116819497D01*
X161034061Y-116833494D01*
X161043500Y-116880947D01*
X161043500Y-120728053D01*
X161034062Y-120775501D01*
X161028263Y-120789503D01*
X161028262Y-120789506D01*
X161028260Y-120789511D01*
X160997500Y-120944153D01*
X160997500Y-121101846D01*
X161028261Y-121256489D01*
X161028264Y-121256501D01*
X161088602Y-121402172D01*
X161088609Y-121402185D01*
X161176210Y-121533288D01*
X161176213Y-121533292D01*
X161287707Y-121644786D01*
X161287711Y-121644789D01*
X161418814Y-121732390D01*
X161418827Y-121732397D01*
X161557649Y-121789898D01*
X161564503Y-121792737D01*
X161719153Y-121823499D01*
X161719156Y-121823500D01*
X161719158Y-121823500D01*
X161876844Y-121823500D01*
X161876845Y-121823499D01*
X162031497Y-121792737D01*
X162177179Y-121732394D01*
X162308289Y-121644789D01*
X162419789Y-121533289D01*
X162507394Y-121402179D01*
X162567737Y-121256497D01*
X162598500Y-121101842D01*
X162598500Y-120944158D01*
X162598500Y-120944155D01*
X162598499Y-120944153D01*
X162567739Y-120789511D01*
X162567738Y-120789508D01*
X162567737Y-120789503D01*
X162561937Y-120775501D01*
X162552500Y-120728053D01*
X162552500Y-118065153D01*
X169887500Y-118065153D01*
X169887500Y-118222846D01*
X169918261Y-118377489D01*
X169918264Y-118377501D01*
X169978603Y-118523174D01*
X169978604Y-118523175D01*
X169978606Y-118523179D01*
X170039602Y-118614465D01*
X170060480Y-118681142D01*
X170060500Y-118683356D01*
X170060500Y-119508642D01*
X170040815Y-119575681D01*
X170039602Y-119577533D01*
X169978609Y-119668814D01*
X169978602Y-119668827D01*
X169918264Y-119814498D01*
X169918261Y-119814510D01*
X169887500Y-119969153D01*
X169887500Y-120126846D01*
X169918261Y-120281489D01*
X169918264Y-120281501D01*
X169978602Y-120427172D01*
X169978609Y-120427185D01*
X170066210Y-120558288D01*
X170066213Y-120558292D01*
X170177707Y-120669786D01*
X170177711Y-120669789D01*
X170308814Y-120757390D01*
X170308827Y-120757397D01*
X170454498Y-120817735D01*
X170454503Y-120817737D01*
X170609153Y-120848499D01*
X170609156Y-120848500D01*
X170609158Y-120848500D01*
X170766844Y-120848500D01*
X170766845Y-120848499D01*
X170921497Y-120817737D01*
X171067179Y-120757394D01*
X171198289Y-120669789D01*
X171228325Y-120639753D01*
X178015500Y-120639753D01*
X178015500Y-120797446D01*
X178046261Y-120952089D01*
X178046264Y-120952101D01*
X178106602Y-121097772D01*
X178106606Y-121097779D01*
X178142202Y-121151052D01*
X178163080Y-121217729D01*
X178163100Y-121219943D01*
X178163100Y-121522056D01*
X178143415Y-121589095D01*
X178142203Y-121590946D01*
X178106608Y-121644217D01*
X178106602Y-121644228D01*
X178046264Y-121789898D01*
X178046261Y-121789910D01*
X178015500Y-121944553D01*
X178015500Y-122102246D01*
X178046261Y-122256889D01*
X178046264Y-122256901D01*
X178106602Y-122402572D01*
X178106609Y-122402585D01*
X178194210Y-122533688D01*
X178194213Y-122533692D01*
X178305707Y-122645186D01*
X178305711Y-122645189D01*
X178436814Y-122732790D01*
X178436827Y-122732797D01*
X178582498Y-122793135D01*
X178582503Y-122793137D01*
X178737153Y-122823899D01*
X178737156Y-122823900D01*
X178737158Y-122823900D01*
X178894844Y-122823900D01*
X178894845Y-122823899D01*
X179049497Y-122793137D01*
X179195179Y-122732794D01*
X179326289Y-122645189D01*
X179437789Y-122533689D01*
X179525394Y-122402579D01*
X179585737Y-122256897D01*
X179616500Y-122102242D01*
X179616500Y-121944558D01*
X179616500Y-121944555D01*
X179616499Y-121944553D01*
X179592420Y-121823500D01*
X179585737Y-121789903D01*
X179525394Y-121644221D01*
X179489796Y-121590945D01*
X179468920Y-121524268D01*
X179468900Y-121522056D01*
X179468900Y-121219943D01*
X179488585Y-121152904D01*
X179489764Y-121151101D01*
X179525394Y-121097779D01*
X179585737Y-120952097D01*
X179616500Y-120797442D01*
X179616500Y-120639758D01*
X179616500Y-120639755D01*
X179616499Y-120639753D01*
X179600295Y-120558290D01*
X179585737Y-120485103D01*
X179561747Y-120427185D01*
X179525397Y-120339427D01*
X179525390Y-120339414D01*
X179437789Y-120208311D01*
X179437786Y-120208307D01*
X179326292Y-120096813D01*
X179326288Y-120096810D01*
X179195185Y-120009209D01*
X179195172Y-120009202D01*
X179049501Y-119948864D01*
X179049489Y-119948861D01*
X178894845Y-119918100D01*
X178894842Y-119918100D01*
X178737158Y-119918100D01*
X178737155Y-119918100D01*
X178582510Y-119948861D01*
X178582498Y-119948864D01*
X178436827Y-120009202D01*
X178436814Y-120009209D01*
X178305711Y-120096810D01*
X178305707Y-120096813D01*
X178194213Y-120208307D01*
X178194210Y-120208311D01*
X178106609Y-120339414D01*
X178106602Y-120339427D01*
X178046264Y-120485098D01*
X178046261Y-120485110D01*
X178015500Y-120639753D01*
X171228325Y-120639753D01*
X171309789Y-120558289D01*
X171397394Y-120427179D01*
X171457737Y-120281497D01*
X171488500Y-120126842D01*
X171488500Y-119969158D01*
X171488500Y-119969155D01*
X171488499Y-119969153D01*
X171457738Y-119814510D01*
X171457737Y-119814503D01*
X171457735Y-119814498D01*
X171397397Y-119668827D01*
X171397390Y-119668814D01*
X171336398Y-119577533D01*
X171315520Y-119510855D01*
X171315500Y-119508642D01*
X171315500Y-118683356D01*
X171335185Y-118616317D01*
X171336398Y-118614465D01*
X171397394Y-118523179D01*
X171457737Y-118377497D01*
X171488500Y-118222842D01*
X171488500Y-118065158D01*
X171488500Y-118065155D01*
X171488499Y-118065153D01*
X171457738Y-117910510D01*
X171457737Y-117910503D01*
X171457735Y-117910498D01*
X171397397Y-117764827D01*
X171397390Y-117764814D01*
X171309789Y-117633711D01*
X171309786Y-117633707D01*
X171198292Y-117522213D01*
X171198288Y-117522210D01*
X171067185Y-117434609D01*
X171067172Y-117434602D01*
X170921501Y-117374264D01*
X170921489Y-117374261D01*
X170766845Y-117343500D01*
X170766842Y-117343500D01*
X170609158Y-117343500D01*
X170609155Y-117343500D01*
X170454510Y-117374261D01*
X170454498Y-117374264D01*
X170308827Y-117434602D01*
X170308814Y-117434609D01*
X170177711Y-117522210D01*
X170177707Y-117522213D01*
X170066213Y-117633707D01*
X170066210Y-117633711D01*
X169978609Y-117764814D01*
X169978602Y-117764827D01*
X169918264Y-117910498D01*
X169918261Y-117910510D01*
X169887500Y-118065153D01*
X162552500Y-118065153D01*
X162552500Y-116880947D01*
X162561939Y-116833494D01*
X162567737Y-116819497D01*
X162598500Y-116664842D01*
X162598500Y-116507158D01*
X162598500Y-116507155D01*
X162598499Y-116507153D01*
X162567738Y-116352510D01*
X162567737Y-116352503D01*
X162567735Y-116352498D01*
X162507397Y-116206827D01*
X162507390Y-116206814D01*
X162419789Y-116075711D01*
X162419786Y-116075707D01*
X162308292Y-115964213D01*
X162308288Y-115964210D01*
X162177185Y-115876609D01*
X162177172Y-115876602D01*
X162031501Y-115816264D01*
X162031489Y-115816261D01*
X161876845Y-115785500D01*
X161876842Y-115785500D01*
X161719158Y-115785500D01*
X161719155Y-115785500D01*
X161564510Y-115816261D01*
X161564498Y-115816264D01*
X161418827Y-115876602D01*
X161418814Y-115876609D01*
X161287711Y-115964210D01*
X161287707Y-115964213D01*
X161176213Y-116075707D01*
X161176210Y-116075711D01*
X161088609Y-116206814D01*
X161088602Y-116206827D01*
X161028264Y-116352498D01*
X161028261Y-116352510D01*
X160997500Y-116507153D01*
X109720500Y-116507153D01*
X109720500Y-105303713D01*
X112695500Y-105303713D01*
X112695500Y-105516286D01*
X112728741Y-105726166D01*
X112728754Y-105726243D01*
X112787418Y-105906792D01*
X112794444Y-105928414D01*
X112890951Y-106117820D01*
X113015890Y-106289786D01*
X113166213Y-106440109D01*
X113338182Y-106565050D01*
X113346946Y-106569516D01*
X113397742Y-106617491D01*
X113414536Y-106685312D01*
X113391998Y-106751447D01*
X113346946Y-106790484D01*
X113338182Y-106794949D01*
X113166213Y-106919890D01*
X113015890Y-107070213D01*
X112890951Y-107242179D01*
X112794444Y-107431585D01*
X112728753Y-107633760D01*
X112696340Y-107838412D01*
X112695500Y-107843713D01*
X112695500Y-108056287D01*
X112728754Y-108266243D01*
X112774920Y-108408328D01*
X112794444Y-108468414D01*
X112890951Y-108657820D01*
X113015890Y-108829786D01*
X113166213Y-108980109D01*
X113338182Y-109105050D01*
X113346946Y-109109516D01*
X113397742Y-109157491D01*
X113414536Y-109225312D01*
X113391998Y-109291447D01*
X113346946Y-109330484D01*
X113338182Y-109334949D01*
X113166213Y-109459890D01*
X113015890Y-109610213D01*
X112890951Y-109782179D01*
X112794444Y-109971585D01*
X112728753Y-110173760D01*
X112695500Y-110383713D01*
X112695500Y-110596286D01*
X112728753Y-110806239D01*
X112794444Y-111008414D01*
X112890951Y-111197820D01*
X113015890Y-111369786D01*
X113166213Y-111520109D01*
X113338179Y-111645048D01*
X113338181Y-111645049D01*
X113338184Y-111645051D01*
X113527588Y-111741557D01*
X113729757Y-111807246D01*
X113939713Y-111840500D01*
X113939714Y-111840500D01*
X114152286Y-111840500D01*
X114152287Y-111840500D01*
X114362243Y-111807246D01*
X114564412Y-111741557D01*
X114753816Y-111645051D01*
X114775789Y-111629086D01*
X114925786Y-111520109D01*
X114925788Y-111520106D01*
X114925792Y-111520104D01*
X115076104Y-111369792D01*
X115076106Y-111369788D01*
X115076109Y-111369786D01*
X115201048Y-111197820D01*
X115201047Y-111197820D01*
X115201051Y-111197816D01*
X115205514Y-111189054D01*
X115253488Y-111138259D01*
X115321308Y-111121463D01*
X115387444Y-111143999D01*
X115426486Y-111189056D01*
X115430951Y-111197820D01*
X115555890Y-111369786D01*
X115706213Y-111520109D01*
X115878182Y-111645050D01*
X115886946Y-111649516D01*
X115937742Y-111697491D01*
X115954536Y-111765312D01*
X115931998Y-111831447D01*
X115886946Y-111870484D01*
X115878182Y-111874949D01*
X115706213Y-111999890D01*
X115555890Y-112150213D01*
X115430951Y-112322179D01*
X115334444Y-112511585D01*
X115268753Y-112713760D01*
X115235500Y-112923713D01*
X115235500Y-113136286D01*
X115268753Y-113346239D01*
X115334444Y-113548414D01*
X115430951Y-113737820D01*
X115555890Y-113909786D01*
X115706213Y-114060109D01*
X115878179Y-114185048D01*
X115878181Y-114185049D01*
X115878184Y-114185051D01*
X116067588Y-114281557D01*
X116269757Y-114347246D01*
X116479713Y-114380500D01*
X116479714Y-114380500D01*
X116692286Y-114380500D01*
X116692287Y-114380500D01*
X116902243Y-114347246D01*
X117104412Y-114281557D01*
X117293816Y-114185051D01*
X117315789Y-114169086D01*
X117465786Y-114060109D01*
X117465788Y-114060106D01*
X117465792Y-114060104D01*
X117616104Y-113909792D01*
X117616106Y-113909788D01*
X117616109Y-113909786D01*
X117741048Y-113737820D01*
X117741047Y-113737820D01*
X117741051Y-113737816D01*
X117837557Y-113548412D01*
X117903246Y-113346243D01*
X117936500Y-113136287D01*
X117936500Y-112923713D01*
X117903246Y-112713757D01*
X117837557Y-112511588D01*
X117741051Y-112322184D01*
X117741049Y-112322181D01*
X117741048Y-112322179D01*
X117616109Y-112150213D01*
X117465786Y-111999890D01*
X117293820Y-111874951D01*
X117293115Y-111874591D01*
X117285054Y-111870485D01*
X117234259Y-111822512D01*
X117217463Y-111754692D01*
X117239999Y-111688556D01*
X117285054Y-111649515D01*
X117293816Y-111645051D01*
X117315789Y-111629086D01*
X117465786Y-111520109D01*
X117465788Y-111520106D01*
X117465792Y-111520104D01*
X117616104Y-111369792D01*
X117616106Y-111369788D01*
X117616109Y-111369786D01*
X117741048Y-111197820D01*
X117741047Y-111197820D01*
X117741051Y-111197816D01*
X117837557Y-111008412D01*
X117903246Y-110806243D01*
X117936500Y-110596287D01*
X117936500Y-110383713D01*
X117903246Y-110173757D01*
X117837557Y-109971588D01*
X117741051Y-109782184D01*
X117741049Y-109782181D01*
X117741048Y-109782179D01*
X117616109Y-109610213D01*
X117465786Y-109459890D01*
X117293820Y-109334951D01*
X117293115Y-109334591D01*
X117285054Y-109330485D01*
X117234259Y-109282512D01*
X117217463Y-109214692D01*
X117239999Y-109148556D01*
X117285054Y-109109515D01*
X117293816Y-109105051D01*
X117315789Y-109089086D01*
X117465786Y-108980109D01*
X117465788Y-108980106D01*
X117465792Y-108980104D01*
X117616104Y-108829792D01*
X117616106Y-108829788D01*
X117616109Y-108829786D01*
X117741048Y-108657820D01*
X117741047Y-108657820D01*
X117741051Y-108657816D01*
X117837557Y-108468412D01*
X117901052Y-108272995D01*
X168741499Y-108272995D01*
X168768418Y-108408322D01*
X168768421Y-108408332D01*
X168821221Y-108535804D01*
X168821228Y-108535817D01*
X168897885Y-108650541D01*
X168897888Y-108650545D01*
X168995454Y-108748111D01*
X168995458Y-108748114D01*
X169110182Y-108824771D01*
X169110195Y-108824778D01*
X169237667Y-108877578D01*
X169237672Y-108877580D01*
X169237676Y-108877580D01*
X169237677Y-108877581D01*
X169373004Y-108904500D01*
X169373007Y-108904500D01*
X169510995Y-108904500D01*
X169602041Y-108886389D01*
X169646328Y-108877580D01*
X169773811Y-108824775D01*
X169888542Y-108748114D01*
X169986114Y-108650542D01*
X170062775Y-108535811D01*
X170115580Y-108408328D01*
X170142500Y-108272995D01*
X171741499Y-108272995D01*
X171768418Y-108408322D01*
X171768421Y-108408332D01*
X171821221Y-108535804D01*
X171821228Y-108535817D01*
X171897885Y-108650541D01*
X171897888Y-108650545D01*
X171995454Y-108748111D01*
X171995458Y-108748114D01*
X172110182Y-108824771D01*
X172110195Y-108824778D01*
X172237667Y-108877578D01*
X172237672Y-108877580D01*
X172237676Y-108877580D01*
X172237677Y-108877581D01*
X172373004Y-108904500D01*
X172373007Y-108904500D01*
X172510995Y-108904500D01*
X172602041Y-108886389D01*
X172646328Y-108877580D01*
X172773811Y-108824775D01*
X172888542Y-108748114D01*
X172986114Y-108650542D01*
X173062775Y-108535811D01*
X173115580Y-108408328D01*
X173142500Y-108272993D01*
X173142500Y-108135007D01*
X173142500Y-108135004D01*
X173115581Y-107999677D01*
X173115580Y-107999676D01*
X173115580Y-107999672D01*
X173115578Y-107999667D01*
X173062778Y-107872195D01*
X173062771Y-107872182D01*
X172986114Y-107757458D01*
X172986111Y-107757454D01*
X172888545Y-107659888D01*
X172888541Y-107659885D01*
X172773817Y-107583228D01*
X172773804Y-107583221D01*
X172646332Y-107530421D01*
X172646322Y-107530418D01*
X172510995Y-107503500D01*
X172510993Y-107503500D01*
X172373007Y-107503500D01*
X172373005Y-107503500D01*
X172237677Y-107530418D01*
X172237667Y-107530421D01*
X172110195Y-107583221D01*
X172110182Y-107583228D01*
X171995458Y-107659885D01*
X171995454Y-107659888D01*
X171897888Y-107757454D01*
X171897885Y-107757458D01*
X171821228Y-107872182D01*
X171821221Y-107872195D01*
X171768421Y-107999667D01*
X171768418Y-107999677D01*
X171741500Y-108135004D01*
X171741500Y-108135007D01*
X171741500Y-108272993D01*
X171741500Y-108272995D01*
X171741499Y-108272995D01*
X170142500Y-108272995D01*
X170142500Y-108272993D01*
X170142500Y-108135007D01*
X170142500Y-108135004D01*
X170115581Y-107999677D01*
X170115580Y-107999676D01*
X170115580Y-107999672D01*
X170115578Y-107999667D01*
X170062778Y-107872195D01*
X170062771Y-107872182D01*
X169986114Y-107757458D01*
X169986111Y-107757454D01*
X169888545Y-107659888D01*
X169888541Y-107659885D01*
X169773817Y-107583228D01*
X169773804Y-107583221D01*
X169646332Y-107530421D01*
X169646322Y-107530418D01*
X169510995Y-107503500D01*
X169510993Y-107503500D01*
X169373007Y-107503500D01*
X169373005Y-107503500D01*
X169237677Y-107530418D01*
X169237667Y-107530421D01*
X169110195Y-107583221D01*
X169110182Y-107583228D01*
X168995458Y-107659885D01*
X168995454Y-107659888D01*
X168897888Y-107757454D01*
X168897885Y-107757458D01*
X168821228Y-107872182D01*
X168821221Y-107872195D01*
X168768421Y-107999667D01*
X168768418Y-107999677D01*
X168741500Y-108135004D01*
X168741500Y-108135007D01*
X168741500Y-108272993D01*
X168741500Y-108272995D01*
X168741499Y-108272995D01*
X117901052Y-108272995D01*
X117903246Y-108266243D01*
X117936500Y-108056287D01*
X117936500Y-107843713D01*
X117903246Y-107633757D01*
X117837557Y-107431588D01*
X117741051Y-107242184D01*
X117741049Y-107242181D01*
X117741048Y-107242179D01*
X117720367Y-107213713D01*
X185869500Y-107213713D01*
X185869500Y-107426286D01*
X185902360Y-107633760D01*
X185902754Y-107636243D01*
X185942139Y-107757458D01*
X185968444Y-107838414D01*
X186064951Y-108027820D01*
X186189890Y-108199786D01*
X186340213Y-108350109D01*
X186512179Y-108475048D01*
X186512181Y-108475049D01*
X186512184Y-108475051D01*
X186701588Y-108571557D01*
X186903757Y-108637246D01*
X187113713Y-108670500D01*
X187113714Y-108670500D01*
X187326286Y-108670500D01*
X187326287Y-108670500D01*
X187536243Y-108637246D01*
X187738412Y-108571557D01*
X187927816Y-108475051D01*
X188015081Y-108411650D01*
X188099786Y-108350109D01*
X188099788Y-108350106D01*
X188099792Y-108350104D01*
X188250104Y-108199792D01*
X188250106Y-108199788D01*
X188250109Y-108199786D01*
X188375048Y-108027820D01*
X188375047Y-108027820D01*
X188375051Y-108027816D01*
X188471557Y-107838412D01*
X188537246Y-107636243D01*
X188570500Y-107426287D01*
X188570500Y-107213713D01*
X188537246Y-107003757D01*
X188471557Y-106801588D01*
X188375051Y-106612184D01*
X188375049Y-106612181D01*
X188375048Y-106612179D01*
X188250109Y-106440213D01*
X188099786Y-106289890D01*
X187927820Y-106164951D01*
X187738414Y-106068444D01*
X187738413Y-106068443D01*
X187738412Y-106068443D01*
X187536243Y-106002754D01*
X187536241Y-106002753D01*
X187536240Y-106002753D01*
X187374957Y-105977208D01*
X187326287Y-105969500D01*
X187113713Y-105969500D01*
X187065042Y-105977208D01*
X186903760Y-106002753D01*
X186701585Y-106068444D01*
X186512179Y-106164951D01*
X186340213Y-106289890D01*
X186189890Y-106440213D01*
X186064951Y-106612179D01*
X185968444Y-106801585D01*
X185902753Y-107003760D01*
X185869500Y-107213713D01*
X117720367Y-107213713D01*
X117616109Y-107070213D01*
X117465786Y-106919890D01*
X117293820Y-106794951D01*
X117293115Y-106794591D01*
X117285054Y-106790485D01*
X117234259Y-106742512D01*
X117217463Y-106674692D01*
X117239999Y-106608556D01*
X117285054Y-106569515D01*
X117293816Y-106565051D01*
X117315789Y-106549086D01*
X117465786Y-106440109D01*
X117465788Y-106440106D01*
X117465792Y-106440104D01*
X117616104Y-106289792D01*
X117616106Y-106289788D01*
X117616109Y-106289786D01*
X117741048Y-106117820D01*
X117741047Y-106117820D01*
X117741051Y-106117816D01*
X117837557Y-105928412D01*
X117903246Y-105726243D01*
X117936500Y-105516287D01*
X117936500Y-105303713D01*
X117903246Y-105093757D01*
X117837557Y-104891588D01*
X117741051Y-104702184D01*
X117741049Y-104702181D01*
X117741048Y-104702179D01*
X117616109Y-104530213D01*
X117465786Y-104379890D01*
X117293820Y-104254951D01*
X117253327Y-104234319D01*
X117104414Y-104158444D01*
X117104413Y-104158443D01*
X117104412Y-104158443D01*
X117007589Y-104126983D01*
X121371500Y-104126983D01*
X121371500Y-105677001D01*
X121371501Y-105677018D01*
X121382000Y-105779796D01*
X121382001Y-105779799D01*
X121412438Y-105871650D01*
X121437186Y-105946334D01*
X121529288Y-106095656D01*
X121653344Y-106219712D01*
X121802666Y-106311814D01*
X121969203Y-106366999D01*
X122071991Y-106377500D01*
X123372008Y-106377499D01*
X123474797Y-106366999D01*
X123641334Y-106311814D01*
X123790656Y-106219712D01*
X123914712Y-106095656D01*
X124006814Y-105946334D01*
X124061999Y-105779797D01*
X124072500Y-105677009D01*
X124072499Y-104670713D01*
X126371500Y-104670713D01*
X126371500Y-105133287D01*
X126404754Y-105343243D01*
X126460979Y-105516286D01*
X126470444Y-105545414D01*
X126566951Y-105734820D01*
X126691890Y-105906786D01*
X126842213Y-106057109D01*
X127014179Y-106182048D01*
X127014181Y-106182049D01*
X127014184Y-106182051D01*
X127203588Y-106278557D01*
X127405757Y-106344246D01*
X127615713Y-106377500D01*
X127615714Y-106377500D01*
X127828286Y-106377500D01*
X127828287Y-106377500D01*
X128038243Y-106344246D01*
X128240412Y-106278557D01*
X128429816Y-106182051D01*
X128530286Y-106109056D01*
X128601786Y-106057109D01*
X128601788Y-106057106D01*
X128601792Y-106057104D01*
X128752104Y-105906792D01*
X128871683Y-105742204D01*
X128927011Y-105699540D01*
X128996624Y-105693561D01*
X129058420Y-105726166D01*
X129072313Y-105742199D01*
X129166364Y-105871650D01*
X129191896Y-105906792D01*
X129342213Y-106057109D01*
X129514179Y-106182048D01*
X129514181Y-106182049D01*
X129514184Y-106182051D01*
X129703588Y-106278557D01*
X129905757Y-106344246D01*
X130115713Y-106377500D01*
X130115714Y-106377500D01*
X130328286Y-106377500D01*
X130328287Y-106377500D01*
X130538243Y-106344246D01*
X130740412Y-106278557D01*
X130929816Y-106182051D01*
X131030286Y-106109056D01*
X131101786Y-106057109D01*
X131101788Y-106057106D01*
X131101792Y-106057104D01*
X131252104Y-105906792D01*
X131371683Y-105742204D01*
X131427011Y-105699540D01*
X131496624Y-105693561D01*
X131558420Y-105726166D01*
X131572313Y-105742199D01*
X131666364Y-105871650D01*
X131691896Y-105906792D01*
X131842213Y-106057109D01*
X132014179Y-106182048D01*
X132014181Y-106182049D01*
X132014184Y-106182051D01*
X132203588Y-106278557D01*
X132405757Y-106344246D01*
X132615713Y-106377500D01*
X132615714Y-106377500D01*
X132828286Y-106377500D01*
X132828287Y-106377500D01*
X133038243Y-106344246D01*
X133240412Y-106278557D01*
X133429816Y-106182051D01*
X133530286Y-106109056D01*
X133601786Y-106057109D01*
X133601788Y-106057106D01*
X133601792Y-106057104D01*
X133752104Y-105906792D01*
X133752106Y-105906788D01*
X133752109Y-105906786D01*
X133877048Y-105734820D01*
X133877047Y-105734820D01*
X133877051Y-105734816D01*
X133973557Y-105545412D01*
X134039246Y-105343243D01*
X134072500Y-105133287D01*
X134072500Y-104670713D01*
X134039246Y-104460757D01*
X133973557Y-104258588D01*
X133877051Y-104069184D01*
X133877049Y-104069181D01*
X133877048Y-104069179D01*
X133752109Y-103897213D01*
X133601790Y-103746894D01*
X133601785Y-103746890D01*
X133464826Y-103647384D01*
X133429818Y-103621950D01*
X133294796Y-103553153D01*
X171665500Y-103553153D01*
X171665500Y-103710846D01*
X171696261Y-103865489D01*
X171696264Y-103865501D01*
X171756602Y-104011172D01*
X171756609Y-104011185D01*
X171844210Y-104142288D01*
X171844213Y-104142292D01*
X171955707Y-104253786D01*
X171955711Y-104253789D01*
X172086814Y-104341390D01*
X172086827Y-104341397D01*
X172195717Y-104386500D01*
X172232503Y-104401737D01*
X172387153Y-104432499D01*
X172387156Y-104432500D01*
X172387158Y-104432500D01*
X172544844Y-104432500D01*
X172544845Y-104432499D01*
X172621152Y-104417320D01*
X172699488Y-104401739D01*
X172699489Y-104401738D01*
X172699497Y-104401737D01*
X172713498Y-104395937D01*
X172760947Y-104386500D01*
X173587553Y-104386500D01*
X173635001Y-104395937D01*
X173649003Y-104401737D01*
X173649008Y-104401738D01*
X173649011Y-104401739D01*
X173803653Y-104432499D01*
X173803656Y-104432500D01*
X173803658Y-104432500D01*
X173961344Y-104432500D01*
X173961345Y-104432499D01*
X174115997Y-104401737D01*
X174261679Y-104341394D01*
X174392789Y-104253789D01*
X174504289Y-104142289D01*
X174591894Y-104011179D01*
X174652237Y-103865497D01*
X174683000Y-103710842D01*
X174683000Y-103553158D01*
X174683000Y-103553155D01*
X174682999Y-103553153D01*
X174670872Y-103492186D01*
X174652237Y-103398503D01*
X174652235Y-103398498D01*
X174591897Y-103252827D01*
X174591890Y-103252814D01*
X174504289Y-103121711D01*
X174504286Y-103121707D01*
X174392792Y-103010213D01*
X174392788Y-103010210D01*
X174261685Y-102922609D01*
X174261672Y-102922602D01*
X174116001Y-102862264D01*
X174115989Y-102862261D01*
X173961345Y-102831500D01*
X173961342Y-102831500D01*
X173803658Y-102831500D01*
X173803655Y-102831500D01*
X173649011Y-102862260D01*
X173649006Y-102862262D01*
X173649004Y-102862262D01*
X173649003Y-102862263D01*
X173635001Y-102868062D01*
X173587553Y-102877500D01*
X172760947Y-102877500D01*
X172713498Y-102868062D01*
X172699497Y-102862263D01*
X172699493Y-102862262D01*
X172699488Y-102862260D01*
X172544845Y-102831500D01*
X172544842Y-102831500D01*
X172387158Y-102831500D01*
X172387155Y-102831500D01*
X172232510Y-102862261D01*
X172232498Y-102862264D01*
X172086827Y-102922602D01*
X172086814Y-102922609D01*
X171955711Y-103010210D01*
X171955707Y-103010213D01*
X171844213Y-103121707D01*
X171844210Y-103121711D01*
X171756609Y-103252814D01*
X171756602Y-103252827D01*
X171696264Y-103398498D01*
X171696261Y-103398510D01*
X171665500Y-103553153D01*
X133294796Y-103553153D01*
X133240414Y-103525444D01*
X133240413Y-103525443D01*
X133240412Y-103525443D01*
X133038243Y-103459754D01*
X133038241Y-103459753D01*
X133038240Y-103459753D01*
X132876957Y-103434208D01*
X132828287Y-103426500D01*
X132615713Y-103426500D01*
X132567042Y-103434208D01*
X132405760Y-103459753D01*
X132203585Y-103525444D01*
X132014179Y-103621951D01*
X131842213Y-103746890D01*
X131691894Y-103897209D01*
X131691890Y-103897214D01*
X131572318Y-104061793D01*
X131516989Y-104104459D01*
X131447375Y-104110438D01*
X131385580Y-104077833D01*
X131371682Y-104061793D01*
X131252109Y-103897214D01*
X131252105Y-103897209D01*
X131101786Y-103746890D01*
X130929820Y-103621951D01*
X130740414Y-103525444D01*
X130740413Y-103525443D01*
X130740412Y-103525443D01*
X130538243Y-103459754D01*
X130538241Y-103459753D01*
X130538240Y-103459753D01*
X130376957Y-103434208D01*
X130328287Y-103426500D01*
X130115713Y-103426500D01*
X130067042Y-103434208D01*
X129905760Y-103459753D01*
X129703585Y-103525444D01*
X129514179Y-103621951D01*
X129342213Y-103746890D01*
X129191894Y-103897209D01*
X129191890Y-103897214D01*
X129072318Y-104061793D01*
X129016989Y-104104459D01*
X128947375Y-104110438D01*
X128885580Y-104077833D01*
X128871682Y-104061793D01*
X128752109Y-103897214D01*
X128752105Y-103897209D01*
X128601786Y-103746890D01*
X128429820Y-103621951D01*
X128240414Y-103525444D01*
X128240413Y-103525443D01*
X128240412Y-103525443D01*
X128038243Y-103459754D01*
X128038241Y-103459753D01*
X128038240Y-103459753D01*
X127876957Y-103434208D01*
X127828287Y-103426500D01*
X127615713Y-103426500D01*
X127567042Y-103434208D01*
X127405760Y-103459753D01*
X127203585Y-103525444D01*
X127014179Y-103621951D01*
X126842213Y-103746890D01*
X126691890Y-103897213D01*
X126566951Y-104069179D01*
X126470444Y-104258585D01*
X126404753Y-104460760D01*
X126393754Y-104530208D01*
X126371500Y-104670713D01*
X124072499Y-104670713D01*
X124072499Y-104126992D01*
X124069001Y-104092753D01*
X124061999Y-104024203D01*
X124061998Y-104024200D01*
X124057681Y-104011172D01*
X124006814Y-103857666D01*
X123914712Y-103708344D01*
X123790656Y-103584288D01*
X123641334Y-103492186D01*
X123474797Y-103437001D01*
X123474795Y-103437000D01*
X123372010Y-103426500D01*
X122071998Y-103426500D01*
X122071981Y-103426501D01*
X121969203Y-103437000D01*
X121969200Y-103437001D01*
X121802668Y-103492185D01*
X121802663Y-103492187D01*
X121653342Y-103584289D01*
X121529289Y-103708342D01*
X121437187Y-103857663D01*
X121437185Y-103857668D01*
X121424083Y-103897208D01*
X121382001Y-104024203D01*
X121382001Y-104024204D01*
X121382000Y-104024204D01*
X121371500Y-104126983D01*
X117007589Y-104126983D01*
X116902243Y-104092754D01*
X116902241Y-104092753D01*
X116902240Y-104092753D01*
X116706764Y-104061793D01*
X116692287Y-104059500D01*
X116479713Y-104059500D01*
X116465236Y-104061793D01*
X116269760Y-104092753D01*
X116067585Y-104158444D01*
X115878179Y-104254951D01*
X115706213Y-104379890D01*
X115555890Y-104530213D01*
X115430949Y-104702182D01*
X115426484Y-104710946D01*
X115378509Y-104761742D01*
X115310688Y-104778536D01*
X115244553Y-104755998D01*
X115205516Y-104710946D01*
X115201050Y-104702182D01*
X115076109Y-104530213D01*
X114925786Y-104379890D01*
X114753820Y-104254951D01*
X114564414Y-104158444D01*
X114564413Y-104158443D01*
X114564412Y-104158443D01*
X114362243Y-104092754D01*
X114362241Y-104092753D01*
X114362240Y-104092753D01*
X114166764Y-104061793D01*
X114152287Y-104059500D01*
X113939713Y-104059500D01*
X113925236Y-104061793D01*
X113729760Y-104092753D01*
X113527585Y-104158444D01*
X113338179Y-104254951D01*
X113166213Y-104379890D01*
X113015890Y-104530213D01*
X112890951Y-104702179D01*
X112794444Y-104891585D01*
X112728753Y-105093760D01*
X112695500Y-105303713D01*
X109720500Y-105303713D01*
X109720500Y-96213713D01*
X115869500Y-96213713D01*
X115869500Y-96426287D01*
X115902754Y-96636243D01*
X115940469Y-96752318D01*
X115968444Y-96838414D01*
X116064951Y-97027820D01*
X116189890Y-97199786D01*
X116340213Y-97350109D01*
X116512179Y-97475048D01*
X116512181Y-97475049D01*
X116512184Y-97475051D01*
X116701588Y-97571557D01*
X116903757Y-97637246D01*
X117113713Y-97670500D01*
X117113714Y-97670500D01*
X117326286Y-97670500D01*
X117326287Y-97670500D01*
X117536243Y-97637246D01*
X117738412Y-97571557D01*
X117927816Y-97475051D01*
X117949789Y-97459086D01*
X118099786Y-97350109D01*
X118099788Y-97350106D01*
X118099792Y-97350104D01*
X118250104Y-97199792D01*
X118250106Y-97199788D01*
X118250109Y-97199786D01*
X118375048Y-97027820D01*
X118375047Y-97027820D01*
X118375051Y-97027816D01*
X118471557Y-96838412D01*
X118537246Y-96636243D01*
X118570500Y-96426287D01*
X118570500Y-96213713D01*
X118570068Y-96210983D01*
X166817500Y-96210983D01*
X166817500Y-97811001D01*
X166817501Y-97811018D01*
X166828000Y-97913796D01*
X166828001Y-97913799D01*
X166883185Y-98080331D01*
X166883187Y-98080336D01*
X166893673Y-98097336D01*
X166975288Y-98229656D01*
X167099344Y-98353712D01*
X167248666Y-98445814D01*
X167415203Y-98500999D01*
X167517991Y-98511500D01*
X168818008Y-98511499D01*
X168920797Y-98500999D01*
X169087334Y-98445814D01*
X169236656Y-98353712D01*
X169360712Y-98229656D01*
X169452814Y-98080334D01*
X169507999Y-97913797D01*
X169518500Y-97811009D01*
X169518499Y-96227983D01*
X178013500Y-96227983D01*
X178013500Y-97828001D01*
X178013501Y-97828018D01*
X178024000Y-97930796D01*
X178024001Y-97930799D01*
X178069894Y-98069294D01*
X178079186Y-98097334D01*
X178171288Y-98246656D01*
X178295344Y-98370712D01*
X178444666Y-98462814D01*
X178611203Y-98517999D01*
X178713991Y-98528500D01*
X180014008Y-98528499D01*
X180116797Y-98517999D01*
X180283334Y-98462814D01*
X180432656Y-98370712D01*
X180556712Y-98246656D01*
X180648814Y-98097334D01*
X180648814Y-98097331D01*
X180652178Y-98091879D01*
X180704126Y-98045154D01*
X180773088Y-98033931D01*
X180837170Y-98061774D01*
X180845398Y-98069294D01*
X180984213Y-98208109D01*
X181156179Y-98333048D01*
X181156181Y-98333049D01*
X181156184Y-98333051D01*
X181345588Y-98429557D01*
X181547757Y-98495246D01*
X181757713Y-98528500D01*
X181757714Y-98528500D01*
X181970286Y-98528500D01*
X181970287Y-98528500D01*
X182180243Y-98495246D01*
X182382412Y-98429557D01*
X182571816Y-98333051D01*
X182593789Y-98317086D01*
X182743786Y-98208109D01*
X182743788Y-98208106D01*
X182743792Y-98208104D01*
X182894104Y-98057792D01*
X182894106Y-98057788D01*
X182894109Y-98057786D01*
X183019048Y-97885820D01*
X183019047Y-97885820D01*
X183019051Y-97885816D01*
X183115557Y-97696412D01*
X183181246Y-97494243D01*
X183214500Y-97284287D01*
X183214500Y-96771713D01*
X183181246Y-96561757D01*
X183115557Y-96359588D01*
X183019051Y-96170184D01*
X183019049Y-96170181D01*
X183019048Y-96170179D01*
X182894109Y-95998213D01*
X182743786Y-95847890D01*
X182571820Y-95722951D01*
X182382414Y-95626444D01*
X182382413Y-95626443D01*
X182382412Y-95626443D01*
X182180243Y-95560754D01*
X182180241Y-95560753D01*
X182180240Y-95560753D01*
X182018957Y-95535208D01*
X181970287Y-95527500D01*
X181757713Y-95527500D01*
X181709042Y-95535208D01*
X181547760Y-95560753D01*
X181547757Y-95560754D01*
X181389473Y-95612184D01*
X181345585Y-95626444D01*
X181156179Y-95722951D01*
X180984215Y-95847889D01*
X180845398Y-95986706D01*
X180784075Y-96020190D01*
X180714383Y-96015206D01*
X180658450Y-95973334D01*
X180652178Y-95964120D01*
X180638326Y-95941663D01*
X180556712Y-95809344D01*
X180432656Y-95685288D01*
X180283334Y-95593186D01*
X180116797Y-95538001D01*
X180116795Y-95538000D01*
X180014010Y-95527500D01*
X178713998Y-95527500D01*
X178713981Y-95527501D01*
X178611203Y-95538000D01*
X178611200Y-95538001D01*
X178444668Y-95593185D01*
X178444663Y-95593187D01*
X178295342Y-95685289D01*
X178171289Y-95809342D01*
X178079187Y-95958663D01*
X178079185Y-95958668D01*
X178074325Y-95973334D01*
X178024001Y-96125203D01*
X178024001Y-96125204D01*
X178024000Y-96125204D01*
X178013500Y-96227983D01*
X169518499Y-96227983D01*
X169518499Y-96210992D01*
X169507999Y-96108203D01*
X169452814Y-95941666D01*
X169360712Y-95792344D01*
X169236656Y-95668288D01*
X169087334Y-95576186D01*
X168920797Y-95521001D01*
X168920795Y-95521000D01*
X168818010Y-95510500D01*
X167517998Y-95510500D01*
X167517981Y-95510501D01*
X167415203Y-95521000D01*
X167415200Y-95521001D01*
X167248668Y-95576185D01*
X167248663Y-95576187D01*
X167099342Y-95668289D01*
X166975289Y-95792342D01*
X166883187Y-95941663D01*
X166883185Y-95941668D01*
X166877552Y-95958668D01*
X166828001Y-96108203D01*
X166828001Y-96108204D01*
X166828000Y-96108204D01*
X166817500Y-96210983D01*
X118570068Y-96210983D01*
X118537246Y-96003757D01*
X118471557Y-95801588D01*
X118375051Y-95612184D01*
X118375049Y-95612181D01*
X118375048Y-95612179D01*
X118250109Y-95440213D01*
X118099786Y-95289890D01*
X117927820Y-95164951D01*
X117738414Y-95068444D01*
X117738413Y-95068443D01*
X117738412Y-95068443D01*
X117536243Y-95002754D01*
X117536241Y-95002753D01*
X117536240Y-95002753D01*
X117374957Y-94977208D01*
X117326287Y-94969500D01*
X117113713Y-94969500D01*
X117065042Y-94977208D01*
X116903760Y-95002753D01*
X116701585Y-95068444D01*
X116512179Y-95164951D01*
X116340213Y-95289890D01*
X116189890Y-95440213D01*
X116064951Y-95612179D01*
X115968444Y-95801585D01*
X115968443Y-95801587D01*
X115968443Y-95801588D01*
X115953397Y-95847896D01*
X115902753Y-96003760D01*
X115869933Y-96210981D01*
X115869500Y-96213713D01*
X109720500Y-96213713D01*
X109720500Y-92064500D01*
X109740185Y-91997461D01*
X109792989Y-91951706D01*
X109844500Y-91940500D01*
X185161324Y-91940500D01*
X185228363Y-91960185D01*
G37*
%TD.AperFunction*%
%TD*%
M02*
