%TF.GenerationSoftware,KiCad,Pcbnew,10.0.0*%
%TF.CreationDate,2026-05-01T10:30:26-06:00*%
%TF.ProjectId,20260501_2Wheel_Balance_Robot,32303236-3035-4303-915f-32576865656c,2.0*%
%TF.SameCoordinates,Original*%
%TF.FileFunction,Paste,Top*%
%TF.FilePolarity,Positive*%
%FSLAX46Y46*%
G04 Gerber Fmt 4.6, Leading zero omitted, Abs format (unit mm)*
G04 Created by KiCad (PCBNEW 10.0.0) date 2026-05-01 10:30:26*
%MOMM*%
%LPD*%
G01*
G04 APERTURE LIST*
G04 Aperture macros list*
%AMRoundRect*
0 Rectangle with rounded corners*
0 $1 Rounding radius*
0 $2 $3 $4 $5 $6 $7 $8 $9 X,Y pos of 4 corners*
0 Add a 4 corners polygon primitive as box body*
4,1,4,$2,$3,$4,$5,$6,$7,$8,$9,$2,$3,0*
0 Add four circle primitives for the rounded corners*
1,1,$1+$1,$2,$3*
1,1,$1+$1,$4,$5*
1,1,$1+$1,$6,$7*
1,1,$1+$1,$8,$9*
0 Add four rect primitives between the rounded corners*
20,1,$1+$1,$2,$3,$4,$5,0*
20,1,$1+$1,$4,$5,$6,$7,0*
20,1,$1+$1,$6,$7,$8,$9,0*
20,1,$1+$1,$8,$9,$2,$3,0*%
G04 Aperture macros list end*
%ADD10RoundRect,0.250000X0.337500X0.475000X-0.337500X0.475000X-0.337500X-0.475000X0.337500X-0.475000X0*%
%ADD11RoundRect,0.100000X0.850000X0.100000X-0.850000X0.100000X-0.850000X-0.100000X0.850000X-0.100000X0*%
%ADD12RoundRect,0.250000X-0.337500X-0.475000X0.337500X-0.475000X0.337500X0.475000X-0.337500X0.475000X0*%
%ADD13RoundRect,0.250000X0.325000X0.450000X-0.325000X0.450000X-0.325000X-0.450000X0.325000X-0.450000X0*%
%ADD14RoundRect,0.250000X-0.350000X-0.450000X0.350000X-0.450000X0.350000X0.450000X-0.350000X0.450000X0*%
%ADD15R,1.500000X2.300000*%
%ADD16RoundRect,0.250000X0.350000X0.450000X-0.350000X0.450000X-0.350000X-0.450000X0.350000X-0.450000X0*%
%ADD17RoundRect,0.250000X0.475000X-0.337500X0.475000X0.337500X-0.475000X0.337500X-0.475000X-0.337500X0*%
%ADD18RoundRect,0.250000X-0.475000X0.337500X-0.475000X-0.337500X0.475000X-0.337500X0.475000X0.337500X0*%
%ADD19RoundRect,0.090000X0.360000X-0.660000X0.360000X0.660000X-0.360000X0.660000X-0.360000X-0.660000X0*%
%ADD20RoundRect,0.250000X-0.325000X-0.450000X0.325000X-0.450000X0.325000X0.450000X-0.325000X0.450000X0*%
%ADD21RoundRect,0.237500X-0.237500X0.250000X-0.237500X-0.250000X0.237500X-0.250000X0.237500X0.250000X0*%
%ADD22RoundRect,0.375000X0.625000X0.375000X-0.625000X0.375000X-0.625000X-0.375000X0.625000X-0.375000X0*%
%ADD23RoundRect,0.500000X0.500000X1.400000X-0.500000X1.400000X-0.500000X-1.400000X0.500000X-1.400000X0*%
%ADD24RoundRect,0.250000X-0.312500X-1.450000X0.312500X-1.450000X0.312500X1.450000X-0.312500X1.450000X0*%
%ADD25RoundRect,0.150000X-0.512500X-0.150000X0.512500X-0.150000X0.512500X0.150000X-0.512500X0.150000X0*%
%ADD26RoundRect,0.150000X-0.500000X0.150000X-0.500000X-0.150000X0.500000X-0.150000X0.500000X0.150000X0*%
%ADD27RoundRect,0.075000X-0.575000X0.075000X-0.575000X-0.075000X0.575000X-0.075000X0.575000X0.075000X0*%
%ADD28RoundRect,0.250001X-0.872499X-0.944999X0.872499X-0.944999X0.872499X0.944999X-0.872499X0.944999X0*%
%ADD29RoundRect,0.250000X-0.450000X0.350000X-0.450000X-0.350000X0.450000X-0.350000X0.450000X0.350000X0*%
%ADD30RoundRect,0.250000X0.450000X-0.325000X0.450000X0.325000X-0.450000X0.325000X-0.450000X-0.325000X0*%
%ADD31R,0.900000X1.250000*%
%ADD32R,0.800000X0.900000*%
%ADD33RoundRect,0.250000X0.350000X-0.450000X0.350000X0.450000X-0.350000X0.450000X-0.350000X-0.450000X0*%
%ADD34RoundRect,0.075000X0.700000X0.075000X-0.700000X0.075000X-0.700000X-0.075000X0.700000X-0.075000X0*%
%ADD35RoundRect,0.075000X0.075000X0.700000X-0.075000X0.700000X-0.075000X-0.700000X0.075000X-0.700000X0*%
G04 APERTURE END LIST*
D10*
%TO.C,C26*%
X162327500Y-130048000D03*
X160252500Y-130048000D03*
%TD*%
D11*
%TO.C,U2*%
X183586000Y-123971000D03*
X183586000Y-123321000D03*
X183586000Y-122671000D03*
X183586000Y-122021000D03*
X183586000Y-121371000D03*
X183586000Y-120721000D03*
X183586000Y-120071000D03*
X183586000Y-119421000D03*
X183586000Y-118771000D03*
X183586000Y-118121000D03*
X183586000Y-117471000D03*
X183586000Y-116821000D03*
X176586000Y-116821000D03*
X176586000Y-117471000D03*
X176586000Y-118121000D03*
X176586000Y-118771000D03*
X176586000Y-119421000D03*
X176586000Y-120071000D03*
X176586000Y-120721000D03*
X176586000Y-121371000D03*
X176586000Y-122021000D03*
X176586000Y-122671000D03*
X176586000Y-123321000D03*
X176586000Y-123971000D03*
%TD*%
D12*
%TO.C,C1*%
X143002000Y-115824000D03*
X145077000Y-115824000D03*
%TD*%
D13*
%TO.C,D3*%
X158759000Y-114300000D03*
X156709000Y-114300000D03*
%TD*%
D14*
%TO.C,R4*%
X127000000Y-127254000D03*
X129000000Y-127254000D03*
%TD*%
D15*
%TO.C,SW2*%
X165608000Y-142542000D03*
X165608000Y-135842000D03*
%TD*%
D16*
%TO.C,R17*%
X116062000Y-101854000D03*
X114062000Y-101854000D03*
%TD*%
D17*
%TO.C,C14*%
X149606000Y-107993000D03*
X149606000Y-105918000D03*
%TD*%
D16*
%TO.C,R10*%
X154416000Y-94488000D03*
X152416000Y-94488000D03*
%TD*%
D18*
%TO.C,C24*%
X148082000Y-121644500D03*
X148082000Y-123719500D03*
%TD*%
D13*
%TO.C,D5*%
X159013000Y-94488000D03*
X156963000Y-94488000D03*
%TD*%
D19*
%TO.C,D1*%
X160148000Y-127164000D03*
X163448000Y-127164000D03*
X163448000Y-122264000D03*
X160148000Y-122264000D03*
%TD*%
D17*
%TO.C,C7*%
X136144000Y-116099500D03*
X136144000Y-114024500D03*
%TD*%
D20*
%TO.C,D4*%
X131946000Y-111696000D03*
X133996000Y-111696000D03*
%TD*%
D10*
%TO.C,C2*%
X133353500Y-115241000D03*
X131278500Y-115241000D03*
%TD*%
D21*
%TO.C,R8*%
X119000000Y-128587500D03*
X119000000Y-130412500D03*
%TD*%
D12*
%TO.C,C8*%
X181080500Y-126238000D03*
X183155500Y-126238000D03*
%TD*%
D17*
%TO.C,C22*%
X149606000Y-98827500D03*
X149606000Y-96752500D03*
%TD*%
D22*
%TO.C,U6*%
X158598000Y-111520000D03*
X158598000Y-109220000D03*
D23*
X152298000Y-109220000D03*
D22*
X158598000Y-106920000D03*
%TD*%
D18*
%TO.C,C21*%
X161290000Y-135360500D03*
X161290000Y-137435500D03*
%TD*%
%TO.C,C18*%
X162052000Y-98784500D03*
X162052000Y-100859500D03*
%TD*%
D24*
%TO.C,F1*%
X114362500Y-118000000D03*
X118637500Y-118000000D03*
%TD*%
D22*
%TO.C,U3*%
X158598000Y-102376000D03*
X158598000Y-100076000D03*
D23*
X152298000Y-100076000D03*
D22*
X158598000Y-97776000D03*
%TD*%
D18*
%TO.C,C20*%
X150866000Y-122433500D03*
X150866000Y-124508500D03*
%TD*%
D21*
%TO.C,R7*%
X119000000Y-121587500D03*
X119000000Y-123412500D03*
%TD*%
D18*
%TO.C,C15*%
X162052000Y-110490000D03*
X162052000Y-112565000D03*
%TD*%
D17*
%TO.C,C17*%
X162052000Y-96541500D03*
X162052000Y-94466500D03*
%TD*%
D25*
%TO.C,U5*%
X121362500Y-125050000D03*
X121362500Y-126000000D03*
X121362500Y-126950000D03*
X123637500Y-126950000D03*
X123637500Y-126000000D03*
X123637500Y-125050000D03*
%TD*%
D12*
%TO.C,C6*%
X176508500Y-126238000D03*
X178583500Y-126238000D03*
%TD*%
D26*
%TO.C,J3*%
X116000000Y-122800000D03*
X116000000Y-123600000D03*
D27*
X116000000Y-124750000D03*
X116000000Y-125750000D03*
X116000000Y-126250000D03*
X116000000Y-127250000D03*
D26*
X116000000Y-128400000D03*
X116000000Y-129200000D03*
X116000000Y-129200000D03*
X116000000Y-128400000D03*
D27*
X116000000Y-127750000D03*
X116000000Y-126750000D03*
X116000000Y-125250000D03*
X116000000Y-124250000D03*
D26*
X116000000Y-123600000D03*
X116000000Y-122800000D03*
%TD*%
D28*
%TO.C,C9*%
X177274500Y-129540000D03*
X182389500Y-129540000D03*
%TD*%
D18*
%TO.C,C4*%
X132316000Y-129697500D03*
X132316000Y-131772500D03*
%TD*%
D17*
%TO.C,C19*%
X150866000Y-128733500D03*
X150866000Y-126658500D03*
%TD*%
D16*
%TO.C,R6*%
X154162000Y-114300000D03*
X152162000Y-114300000D03*
%TD*%
D18*
%TO.C,C23*%
X149606000Y-101070500D03*
X149606000Y-103145500D03*
%TD*%
D10*
%TO.C,C25*%
X133353500Y-117527000D03*
X131278500Y-117527000D03*
%TD*%
D29*
%TO.C,R1*%
X121225000Y-116375000D03*
X121225000Y-118375000D03*
%TD*%
D30*
%TO.C,D2*%
X123800000Y-118400000D03*
X123800000Y-116350000D03*
%TD*%
D14*
%TO.C,R2*%
X135406000Y-136906000D03*
X137406000Y-136906000D03*
%TD*%
D31*
%TO.C,S3*%
X168692000Y-106129000D03*
X171692000Y-106129000D03*
X173192000Y-106129000D03*
D32*
X167142000Y-107154000D03*
X174742000Y-107154000D03*
X167142000Y-109254000D03*
X174742000Y-109254000D03*
%TD*%
D33*
%TO.C,Y3*%
X155116000Y-126746000D03*
X155116000Y-124546000D03*
X153416000Y-124546000D03*
X153416000Y-126746000D03*
%TD*%
D17*
%TO.C,C13*%
X162052000Y-108247000D03*
X162052000Y-106172000D03*
%TD*%
D31*
%TO.C,S4*%
X131632000Y-139403000D03*
X134632000Y-139403000D03*
X136132000Y-139403000D03*
D32*
X130082000Y-140428000D03*
X137682000Y-140428000D03*
X130082000Y-142528000D03*
X137682000Y-142528000D03*
%TD*%
D14*
%TO.C,R3*%
X127000000Y-124754000D03*
X129000000Y-124754000D03*
%TD*%
D18*
%TO.C,C16*%
X149606000Y-110490000D03*
X149606000Y-112565000D03*
%TD*%
D12*
%TO.C,C3*%
X143470500Y-132513000D03*
X145545500Y-132513000D03*
%TD*%
D14*
%TO.C,R9*%
X136171000Y-111671000D03*
X138171000Y-111671000D03*
%TD*%
D34*
%TO.C,U1*%
X145121000Y-127746000D03*
X145121000Y-127246000D03*
X145121000Y-126746000D03*
X145121000Y-126246000D03*
X145121000Y-125746000D03*
X145121000Y-125246000D03*
X145121000Y-124746000D03*
X145121000Y-124246000D03*
X145121000Y-123746000D03*
X145121000Y-123246000D03*
X145121000Y-122746000D03*
X145121000Y-122246000D03*
X145121000Y-121746000D03*
X145121000Y-121246000D03*
X145121000Y-120746000D03*
X145121000Y-120246000D03*
D35*
X143196000Y-118321000D03*
X142696000Y-118321000D03*
X142196000Y-118321000D03*
X141696000Y-118321000D03*
X141196000Y-118321000D03*
X140696000Y-118321000D03*
X140196000Y-118321000D03*
X139696000Y-118321000D03*
X139196000Y-118321000D03*
X138696000Y-118321000D03*
X138196000Y-118321000D03*
X137696000Y-118321000D03*
X137196000Y-118321000D03*
X136696000Y-118321000D03*
X136196000Y-118321000D03*
X135696000Y-118321000D03*
D34*
X133771000Y-120246000D03*
X133771000Y-120746000D03*
X133771000Y-121246000D03*
X133771000Y-121746000D03*
X133771000Y-122246000D03*
X133771000Y-122746000D03*
X133771000Y-123246000D03*
X133771000Y-123746000D03*
X133771000Y-124246000D03*
X133771000Y-124746000D03*
X133771000Y-125246000D03*
X133771000Y-125746000D03*
X133771000Y-126246000D03*
X133771000Y-126746000D03*
X133771000Y-127246000D03*
X133771000Y-127746000D03*
D35*
X135696000Y-129671000D03*
X136196000Y-129671000D03*
X136696000Y-129671000D03*
X137196000Y-129671000D03*
X137696000Y-129671000D03*
X138196000Y-129671000D03*
X138696000Y-129671000D03*
X139196000Y-129671000D03*
X139696000Y-129671000D03*
X140196000Y-129671000D03*
X140696000Y-129671000D03*
X141196000Y-129671000D03*
X141696000Y-129671000D03*
X142196000Y-129671000D03*
X142696000Y-129671000D03*
X143196000Y-129671000D03*
%TD*%
M02*
